<svg xmlns="http://www.w3.org/2000/svg" width="68" height="69" viewBox="0 0 68 69" fill="none"><path d="M40.8047 63.8283L47.471 57.162L43.335 53.0261L40.8047 63.8283Z" fill="url(#paint0_linear_87_320)"></path><path d="M40.8047 63.8283L47.471 57.162L43.335 53.0261L40.8047 63.8283Z" fill="url(#paint1_linear_87_320)"></path><path d="M40.8047 63.8283L47.471 57.162L43.335 53.0261L40.8047 63.8283Z" fill="url(#paint2_linear_87_320)"></path><path d="M55.909 68.471L39.6369 52.199L27.5921 47.0658C26.488 46.5952 26.5375 45.0138 27.6687 44.6131L66.0439 31.0195C67.1987 30.7066 68.2572 31.7651 67.9444 32.92L58.5 67.7807C58.1885 68.9299 56.751 69.3129 55.909 68.471Z" fill="url(#paint3_linear_87_320)"></path><path d="M67.5458 31.4206H67.5418C67.4993 31.3781 67.4316 31.3795 67.3877 31.418L41.3198 50.9386C41.1077 51.0975 40.8053 50.9461 40.8053 50.6811V39.959L66.0437 31.0194C66.6227 30.8628 67.1766 31.0501 67.5458 31.4206Z" fill="url(#paint4_linear_87_320)"></path><path d="M40.8213 39.9541L27.6688 44.6132C26.5376 45.0139 26.4882 46.5953 27.5921 47.0658L39.6369 52.199L50.1733 44.3088C50.1733 44.3088 44.8983 41.8395 40.8213 39.9541Z" fill="url(#paint5_linear_87_320)"></path><path d="M67.944 32.9194L58.5005 67.7809C58.1884 68.9294 56.7512 69.3133 55.9089 68.4708L43.594 56.1559C43.8563 55.7194 44.1697 55.3135 44.5302 54.9488L67.5455 31.5759C67.5851 31.5319 67.5851 31.4631 67.5426 31.4221C67.5426 31.4221 67.5426 31.4206 67.5426 31.4177C67.9132 31.7869 68.1007 32.3408 67.944 32.9194Z" fill="url(#paint6_linear_87_320)"></path><path d="M50.0362 47.6992L42.3892 54.9514L55.909 68.4712C56.751 69.3131 58.1884 68.9301 58.4999 67.7809L61.3324 57.3259L50.0362 47.6992Z" fill="url(#paint7_linear_87_320)"></path><path d="M67.5431 31.422C67.5426 31.4214 67.5421 31.421 67.5417 31.4205C67.4998 31.3787 67.4317 31.3789 67.3872 31.418L39.637 52.1988V63.3143C39.637 64.1025 40.7426 64.2803 40.9897 63.5317L42.9914 57.4671C43.3038 56.5205 43.8301 55.6587 44.5295 54.9485L67.5458 31.5766C67.5847 31.5319 67.585 31.4638 67.5431 31.422Z" fill="url(#paint8_linear_87_320)"></path><path d="M67.5431 31.422C67.5426 31.4214 67.5421 31.421 67.5417 31.4205C67.4998 31.3787 67.4317 31.3789 67.3872 31.418L39.637 52.1988V63.3143C39.637 64.1025 40.7426 64.2803 40.9897 63.5317L42.9914 57.4671C43.3038 56.5205 43.8301 55.6587 44.5295 54.9485L67.5458 31.5766C67.5847 31.5319 67.585 31.4638 67.5431 31.422Z" fill="url(#paint9_linear_87_320)"></path><path d="M18.5905 44.5884L27.4343 35.7446L21.9474 30.2576L18.5905 44.5884Z" fill="url(#paint10_linear_87_320)"></path><path d="M18.5905 44.5884L27.4343 35.7446L21.9474 30.2576L18.5905 44.5884Z" fill="url(#paint11_linear_87_320)"></path><path d="M18.5905 44.5884L27.4343 35.7446L21.9474 30.2576L18.5905 44.5884Z" fill="url(#paint12_linear_87_320)"></path><path d="M38.629 50.7474L17.0413 29.1599L1.062 22.3498C-0.402658 21.7256 -0.337181 19.6275 1.1636 19.0959L52.0745 1.06178C53.6065 0.646741 55.0109 2.0511 54.5958 3.58309L42.0662 49.8315C41.6531 51.3562 39.7459 51.8644 38.629 50.7474Z" fill="url(#paint13_linear_87_320)"></path><path d="M18.6126 12.9148L1.1636 19.0958C-0.337181 19.6274 -0.402658 21.7254 1.062 22.3495L17.0413 29.1596L31.0196 18.692C31.0196 18.6919 24.0214 15.4161 18.6126 12.9148Z" fill="url(#paint14_linear_87_320)"></path><path d="M54.5954 3.58263L42.0671 49.8321C41.6531 51.3558 39.7464 51.865 38.6288 50.7476L22.291 34.4099C22.639 33.8307 23.0548 33.2923 23.5329 32.8083L54.0667 1.80042C54.1191 1.74212 54.1191 1.65074 54.0628 1.59642C54.0628 1.59642 54.0628 1.59443 54.0628 1.59058C54.5545 2.08026 54.8033 2.81497 54.5954 3.58263Z" fill="url(#paint15_linear_87_320)"></path><path d="M30.8378 23.1902L20.6926 32.8114L38.6288 50.7476C39.7458 51.8646 41.653 51.3564 42.066 49.8317L45.8238 35.9614L30.8378 23.1902Z" fill="url(#paint16_linear_87_320)"></path><path d="M54.0635 1.59592C54.0629 1.59526 54.0622 1.59459 54.0616 1.59393C54.006 1.53841 53.9156 1.53881 53.8566 1.59048L17.0414 29.1597V43.9062C17.0414 44.9519 18.5082 45.1878 18.8359 44.1946L21.4915 36.1488C21.906 34.8931 22.6042 33.7498 23.5321 32.8075L54.067 1.80098C54.1185 1.74188 54.1189 1.65144 54.0635 1.59592Z" fill="url(#paint17_linear_87_320)"></path><path d="M54.0635 1.59592C54.0629 1.59526 54.0622 1.59459 54.0616 1.59393C54.006 1.53841 53.9156 1.53881 53.8566 1.59048L17.0414 29.1597V43.9062C17.0414 44.9519 18.5082 45.1878 18.8359 44.1946L21.4915 36.1488C21.906 34.8931 22.6042 33.7498 23.5321 32.8075L54.067 1.80098C54.1185 1.74188 54.1189 1.65144 54.0635 1.59592Z" fill="url(#paint18_linear_87_320)"></path><defs><linearGradient id="paint0_linear_87_320" x1="39.5367" y1="53.5647" x2="45.1066" y2="61.9544" gradientUnits="userSpaceOnUse"><stop stop-color="#FEF0AE"></stop><stop offset="1" stop-color="#FAC600"></stop></linearGradient><linearGradient id="paint1_linear_87_320" x1="40.8947" y1="60.0386" x2="44.1322" y2="56.4877" gradientUnits="userSpaceOnUse"><stop stop-color="#FE9738" stop-opacity="0"></stop><stop offset="1" stop-color="#FE9738"></stop></linearGradient><linearGradient id="paint2_linear_87_320" x1="46.6635" y1="60.2297" x2="42.5382" y2="58.611" gradientUnits="userSpaceOnUse"><stop stop-color="#FE9738" stop-opacity="0"></stop><stop offset="1" stop-color="#FE9738"></stop></linearGradient><linearGradient id="paint3_linear_87_320" x1="33.8823" y1="25.6999" x2="72.2105" y2="63.8194" gradientUnits="userSpaceOnUse"><stop stop-color="#FEF0AE"></stop><stop offset="1" stop-color="#FAC600"></stop></linearGradient><linearGradient id="paint4_linear_87_320" x1="49.6125" y1="39.8218" x2="44.7524" y2="38.4964" gradientUnits="userSpaceOnUse"><stop stop-color="#FE9738" stop-opacity="0"></stop><stop offset="1" stop-color="#FE9738"></stop></linearGradient><linearGradient id="paint5_linear_87_320" x1="37.3027" y1="48.0724" x2="35.9973" y2="51.5189" gradientUnits="userSpaceOnUse"><stop stop-color="#FE9738" stop-opacity="0"></stop><stop offset="1" stop-color="#FE9738"></stop></linearGradient><linearGradient id="paint6_linear_87_320" x1="59.3591" y1="49.3849" x2="63.641" y2="50.5859" gradientUnits="userSpaceOnUse"><stop stop-color="#FE9738" stop-opacity="0"></stop><stop offset="1" stop-color="#FE9738"></stop></linearGradient><linearGradient id="paint7_linear_87_320" x1="52.454" y1="59.3166" x2="49.1816" y2="62.8675" gradientUnits="userSpaceOnUse"><stop stop-color="#FE9738" stop-opacity="0"></stop><stop offset="1" stop-color="#FE9738"></stop></linearGradient><linearGradient id="paint8_linear_87_320" x1="63.2449" y1="57.1709" x2="48.7041" y2="42.6299" gradientUnits="userSpaceOnUse"><stop stop-color="#FEF0AE"></stop><stop offset="1" stop-color="#FAC600"></stop></linearGradient><linearGradient id="paint9_linear_87_320" x1="48.7759" y1="43.4452" x2="53.2667" y2="47.2572" gradientUnits="userSpaceOnUse"><stop stop-color="#FE9738" stop-opacity="0"></stop><stop offset="1" stop-color="#FE9738"></stop></linearGradient><linearGradient id="paint10_linear_87_320" x1="16.9082" y1="30.9721" x2="24.2977" y2="42.1025" gradientUnits="userSpaceOnUse"><stop stop-color="#C9F6B0"></stop><stop offset="1" stop-color="#0BB494"></stop></linearGradient><linearGradient id="paint11_linear_87_320" x1="18.7099" y1="39.5608" x2="23.005" y2="34.8501" gradientUnits="userSpaceOnUse"><stop stop-color="#00A887" stop-opacity="0"></stop><stop offset="0.3602" stop-color="#01A58C" stop-opacity="0.36"></stop><stop offset="0.7945" stop-color="#069C9A" stop-opacity="0.795"></stop><stop offset="1" stop-color="#0996A4"></stop></linearGradient><linearGradient id="paint12_linear_87_320" x1="26.363" y1="39.8144" x2="20.8902" y2="37.6668" gradientUnits="userSpaceOnUse"><stop stop-color="#00A887" stop-opacity="0"></stop><stop offset="0.3602" stop-color="#01A58C" stop-opacity="0.36"></stop><stop offset="0.7945" stop-color="#069C9A" stop-opacity="0.795"></stop><stop offset="1" stop-color="#0996A4"></stop></linearGradient><linearGradient id="paint13_linear_87_320" x1="9.40688" y1="-5.99535" x2="60.2555" y2="44.5762" gradientUnits="userSpaceOnUse"><stop stop-color="#C9F6B0"></stop><stop offset="1" stop-color="#0BB494"></stop></linearGradient><linearGradient id="paint14_linear_87_320" x1="13.9447" y1="23.6851" x2="12.2128" y2="28.2573" gradientUnits="userSpaceOnUse"><stop stop-color="#00A887" stop-opacity="0"></stop><stop offset="0.3602" stop-color="#01A58C" stop-opacity="0.36"></stop><stop offset="0.7945" stop-color="#069C9A" stop-opacity="0.795"></stop><stop offset="1" stop-color="#0996A4"></stop></linearGradient><linearGradient id="paint15_linear_87_320" x1="43.2061" y1="25.4268" x2="48.8867" y2="27.0202" gradientUnits="userSpaceOnUse"><stop stop-color="#00A887" stop-opacity="0"></stop><stop offset="0.3602" stop-color="#01A58C" stop-opacity="0.36"></stop><stop offset="0.7945" stop-color="#069C9A" stop-opacity="0.795"></stop><stop offset="1" stop-color="#0996A4"></stop></linearGradient><linearGradient id="paint16_linear_87_320" x1="34.0453" y1="38.6026" x2="29.704" y2="43.3133" gradientUnits="userSpaceOnUse"><stop stop-color="#00A887" stop-opacity="0"></stop><stop offset="0.3602" stop-color="#01A58C" stop-opacity="0.36"></stop><stop offset="0.7945" stop-color="#069C9A" stop-opacity="0.795"></stop><stop offset="1" stop-color="#0996A4"></stop></linearGradient><linearGradient id="paint17_linear_87_320" x1="48.3612" y1="35.756" x2="29.0703" y2="16.4651" gradientUnits="userSpaceOnUse"><stop stop-color="#C9F6B0"></stop><stop offset="1" stop-color="#0BB494"></stop></linearGradient><linearGradient id="paint18_linear_87_320" x1="29.1657" y1="17.5467" x2="35.1234" y2="22.6039" gradientUnits="userSpaceOnUse"><stop stop-color="#00A887" stop-opacity="0"></stop><stop offset="0.3602" stop-color="#01A58C" stop-opacity="0.36"></stop><stop offset="0.7945" stop-color="#069C9A" stop-opacity="0.795"></stop><stop offset="1" stop-color="#0996A4"></stop></linearGradient></defs></svg>