<svg xmlns="http://www.w3.org/2000/svg" width="85" height="27" viewBox="0 0 85 27" fill="none"><rect x="0.378418" y="0.860352" width="84" height="26" rx="13" fill="#F6E6EE"></rect><path d="M29.8139 16.3982C29.8139 17.1549 29.6184 17.7919 29.2274 18.309C28.8364 18.8135 28.3067 19.1982 27.6382 19.4631C26.9824 19.7279 26.2634 19.8604 25.4814 19.8604H18.9922V6.42783H26.1814C26.8121 6.42783 27.3544 6.5981 27.8085 6.93864C28.2752 7.26657 28.6283 7.6954 28.8679 8.22514C29.1202 8.74226 29.2463 9.2846 29.2463 9.85217C29.2463 10.4954 29.0824 11.1071 28.7544 11.6873C28.4265 12.2675 27.9472 12.6963 27.3166 12.9738C28.086 13.2008 28.6914 13.6108 29.1328 14.2036C29.5869 14.7964 29.8139 15.5279 29.8139 16.3982ZM27.1842 15.9063C27.1842 15.5657 27.1148 15.263 26.976 14.9982C26.8373 14.7207 26.6481 14.5063 26.4085 14.3549C26.1814 14.1909 25.9166 14.109 25.6139 14.109H21.603V17.6468H25.4814C25.7968 17.6468 26.0805 17.5711 26.3328 17.4198C26.5977 17.2558 26.8058 17.0414 26.9571 16.7765C27.1085 16.5117 27.1842 16.2216 27.1842 15.9063ZM21.603 8.66027V12.0468H25.0841C25.3742 12.0468 25.6391 11.9774 25.8787 11.8387C26.1184 11.6999 26.3076 11.5044 26.4463 11.2522C26.5977 10.9999 26.6733 10.6972 26.6733 10.3441C26.6733 10.0035 26.604 9.70713 26.4652 9.45487C26.3391 9.20262 26.1625 9.00712 25.9355 8.86838C25.7211 8.72964 25.4751 8.66027 25.1977 8.66027H21.603ZM30.9242 16.9279C30.9242 16.2847 31.1008 15.7234 31.4539 15.2441C31.8197 14.7522 32.3242 14.3738 32.9675 14.109C33.6107 13.8441 34.3486 13.7117 35.181 13.7117C35.5972 13.7117 36.0197 13.7432 36.4486 13.8063C36.8774 13.8693 37.2495 13.9702 37.5648 14.109V13.5792C37.5648 12.9486 37.3756 12.463 36.9972 12.1225C36.6315 11.7819 36.0828 11.6116 35.3513 11.6116C34.8089 11.6116 34.2918 11.7062 33.7999 11.8954C33.308 12.0846 32.7909 12.3621 32.2485 12.7279L31.435 11.063C32.0909 10.6342 32.7594 10.3125 33.4404 10.0981C34.1341 9.8837 34.8594 9.7765 35.6161 9.7765C37.0288 9.7765 38.1261 10.1297 38.9081 10.836C39.7027 11.5423 40.1 12.5513 40.1 13.863V17.0225C40.1 17.2874 40.1441 17.4766 40.2324 17.5901C40.3333 17.7036 40.4909 17.7729 40.7054 17.7982V19.8604C40.4783 19.8982 40.2702 19.9297 40.081 19.9549C39.9045 19.9802 39.7531 19.9928 39.627 19.9928C39.1225 19.9928 38.7378 19.8793 38.4729 19.6522C38.2207 19.4252 38.063 19.1477 37.9999 18.8198L37.9432 18.309C37.5144 18.8639 36.9783 19.2928 36.3351 19.5955C35.6918 19.8982 35.036 20.0495 34.3675 20.0495C33.7116 20.0495 33.1188 19.9171 32.5891 19.6522C32.072 19.3748 31.6621 19.0027 31.3594 18.536C31.0693 18.0567 30.9242 17.5207 30.9242 16.9279ZM37.0918 17.4387C37.2306 17.2874 37.3441 17.136 37.4324 16.9847C37.5207 16.8333 37.5648 16.6946 37.5648 16.5684V15.5657C37.2621 15.4396 36.9342 15.345 36.581 15.2819C36.2279 15.2063 35.8936 15.1684 35.5783 15.1684C34.9224 15.1684 34.3801 15.3135 33.9513 15.6036C33.535 15.881 33.3269 16.2531 33.3269 16.7198C33.3269 16.972 33.3963 17.2117 33.535 17.4387C33.6738 17.6657 33.8756 17.8486 34.1405 17.9874C34.4053 18.1261 34.7206 18.1955 35.0864 18.1955C35.4648 18.1955 35.8369 18.1261 36.2026 17.9874C36.5684 17.836 36.8648 17.6531 37.0918 17.4387ZM46.1203 20.0495C45.2753 20.0495 44.4681 19.9108 43.6987 19.6333C42.9293 19.3558 42.2672 18.9459 41.7122 18.4036L42.6203 16.7576C43.2131 17.2369 43.7933 17.5901 44.3609 17.8171C44.9411 18.0441 45.496 18.1576 46.0258 18.1576C46.5176 18.1576 46.9086 18.0693 47.1987 17.8928C47.5014 17.7162 47.6528 17.4513 47.6528 17.0982C47.6528 16.8585 47.5708 16.6756 47.4068 16.5495C47.2429 16.4108 47.0032 16.291 46.6879 16.1901C46.3852 16.0892 46.0131 15.9756 45.5717 15.8495C44.8402 15.6099 44.2284 15.3765 43.7365 15.1495C43.2447 14.9225 42.8726 14.6387 42.6203 14.2982C42.3807 13.945 42.2609 13.4972 42.2609 12.9549C42.2609 12.299 42.4248 11.7378 42.7528 11.2711C43.0933 10.7918 43.56 10.4197 44.1528 10.1549C44.7582 9.89001 45.4645 9.75758 46.2717 9.75758C46.978 9.75758 47.6465 9.87109 48.2771 10.0981C48.9078 10.3125 49.4816 10.6657 49.9988 11.1576L48.9771 12.7657C48.4726 12.3747 47.9933 12.0909 47.5393 11.9144C47.0852 11.7252 46.6249 11.6306 46.1582 11.6306C45.8933 11.6306 45.6411 11.6621 45.4014 11.7252C45.1744 11.7882 44.9852 11.8954 44.8339 12.0468C44.6951 12.1855 44.6257 12.3873 44.6257 12.6522C44.6257 12.8918 44.6888 13.081 44.8149 13.2198C44.9537 13.3459 45.1555 13.4594 45.4203 13.5603C45.6978 13.6612 46.0321 13.7747 46.4231 13.9009C47.2177 14.1279 47.8861 14.3612 48.4285 14.6009C48.9834 14.8405 49.3997 15.1369 49.6771 15.4901C49.9546 15.8306 50.0934 16.3036 50.0934 16.909C50.0934 17.8928 49.7339 18.6621 49.015 19.2171C48.296 19.7721 47.3312 20.0495 46.1203 20.0495ZM51.8176 19.8604V9.94677H54.3528V19.8604H51.8176ZM51.8176 8.56568V6.04944H54.3528V8.56568H51.8176ZM61.256 20.0495C60.4488 20.0495 59.7236 19.9171 59.0803 19.6522C58.4371 19.3748 57.8884 18.9964 57.4344 18.5171C56.9803 18.0252 56.6272 17.4702 56.3749 16.8522C56.1353 16.2342 56.0155 15.5846 56.0155 14.9036C56.0155 13.9702 56.2236 13.1189 56.6398 12.3495C57.0686 11.5675 57.674 10.9432 58.456 10.4765C59.238 10.0098 60.165 9.7765 61.2371 9.7765C62.3092 9.7765 63.2299 10.0098 63.9993 10.4765C64.7687 10.9432 65.3426 11.5549 65.7209 12.3117L63.2425 13.0684C63.0281 12.7026 62.7443 12.4252 62.3912 12.236C62.038 12.0342 61.647 11.9333 61.2182 11.9333C60.7389 11.9333 60.2975 12.0594 59.8939 12.3117C59.5029 12.5513 59.1939 12.8981 58.9668 13.3522C58.7398 13.7936 58.6263 14.3108 58.6263 14.9036C58.6263 15.4837 58.7398 16.0009 58.9668 16.4549C59.2065 16.8964 59.5218 17.2495 59.9128 17.5144C60.3038 17.7666 60.7389 17.8928 61.2182 17.8928C61.5209 17.8928 61.8047 17.8423 62.0696 17.7414C62.347 17.6405 62.593 17.5018 62.8074 17.3252C63.0218 17.1486 63.1795 16.9468 63.2804 16.7198L65.7588 17.4766C65.5317 17.9684 65.1975 18.4099 64.7561 18.8009C64.3272 19.1919 63.8164 19.5009 63.2236 19.7279C62.6434 19.9423 61.9876 20.0495 61.256 20.0495Z" fill="#1E293B"></path></svg>