<svg xmlns="http://www.w3.org/2000/svg" width="61" height="61" viewBox="0 0 61 61" fill="none"><circle cx="30.5746" cy="30.4388" r="27.1961" fill="#EC4899" fill-opacity="0.12"></circle><circle cx="30.5746" cy="30.4388" r="28.7727" stroke="#EC4899" stroke-opacity="0.1" stroke-width="3.15318"></circle><path d="M47.3784 21.4747C47.3784 19.8341 46.0379 18.4993 44.3901 18.4993H39.0776V16.3651C39.0776 14.6434 37.6709 13.2427 35.9418 13.2427H24.8151C23.0859 13.2427 21.6792 14.6434 21.6792 16.3651V18.4993H16.3667C14.719 18.4993 13.3784 19.8341 13.3784 21.4747V26.1691C13.3784 27.0439 13.6645 28.1349 14.7065 29.205V40.1209C14.7065 41.7615 16.0471 43.0963 17.6948 43.0963H43.062C44.7097 43.0963 46.0503 41.7615 46.0503 40.1209V29.205C47.0919 28.1355 47.3784 27.0449 47.3784 26.1691V21.4747ZM23.6714 16.3651C23.6714 15.7372 24.1844 15.2263 24.8151 15.2263H35.9419C36.5725 15.2263 37.0855 15.7372 37.0855 16.3651V18.4993H23.6714V16.3651ZM15.3706 21.4747C15.3706 20.9279 15.8175 20.4829 16.3667 20.4829H44.3901C44.9394 20.4829 45.3862 20.9279 45.3862 21.4747V26.1691C45.3862 28.6095 40.6841 30.601 33.8315 31.1228V30.2027C33.8315 29.655 33.3856 29.2109 32.8354 29.2109H27.9214C27.3713 29.2109 26.9253 29.655 26.9253 30.2027V31.1225C20.0789 30.6 15.3706 28.6033 15.3706 26.1691V21.4747ZM31.8394 31.1945V32.4839C31.8394 33.1948 31.2584 33.7733 30.5444 33.7733H30.2124C29.4984 33.7733 28.9175 33.1948 28.9175 32.4839V31.1945H31.8394ZM43.062 41.1127H17.6948C17.1456 41.1127 16.6987 40.6678 16.6987 40.1209V30.6606C19.6647 32.1739 22.7817 32.7574 26.9874 33.1162C27.2842 34.6193 28.6172 35.7569 30.2124 35.7569H30.5444C32.1398 35.7569 33.4728 34.6192 33.7695 33.116C37.2436 32.8654 40.3799 32.2305 42.67 31.3078C43.1849 31.1003 43.6456 30.8836 44.0581 30.6604V40.1209C44.0581 40.6678 43.6113 41.1127 43.062 41.1127Z" fill="#FF2F7C"></path></svg>