<svg xmlns="http://www.w3.org/2000/svg" width="72" height="72" viewBox="0 0 72 72" fill="none"><circle cx="35.937" cy="35.9371" r="31.5694" fill="#769FD7"></circle><circle cx="35.937" cy="35.9371" r="33.3995" stroke="#004AAF" stroke-opacity="0.12" stroke-width="3.66022"></circle><g clip-path="url(#clip0_87_464)"><path d="M35.4156 47.0925C35.7948 47.0925 36.1025 46.7848 36.1025 46.4056C36.1025 46.0265 35.7948 45.7188 35.4156 45.7188C35.0365 45.7188 34.7288 46.0265 34.7288 46.4056C34.7288 46.7848 35.0365 47.0925 35.4156 47.0925Z" fill="white"></path><path d="M45.7191 42.9712H41.5978C41.2184 42.9712 40.9109 43.2787 40.9109 43.6581V47.7794C40.9109 48.1588 41.2184 48.4663 41.5978 48.4663H45.7191C46.0985 48.4663 46.406 48.1588 46.406 47.7794V43.6581C46.406 43.2787 46.0985 42.9712 45.7191 42.9712ZM45.0322 47.0925H42.2847V44.345H45.0322V47.0925Z" fill="white"></path><path d="M29.2336 26.4863H25.1123C24.7329 26.4863 24.4254 26.7938 24.4254 27.1732V31.2945C24.4254 31.6739 24.7329 31.9814 25.1123 31.9814H29.2336C29.613 31.9814 29.9205 31.6739 29.9205 31.2945V27.1732C29.9205 26.7938 29.613 26.4863 29.2336 26.4863ZM28.5467 30.6077H25.7992V27.8601H28.5467V30.6077Z" fill="white"></path><path d="M37.4764 26.4863H33.3551C32.9757 26.4863 32.6682 26.7938 32.6682 27.1732V31.2945C32.6682 31.6739 32.9757 31.9814 33.3551 31.9814H37.4764C37.8558 31.9814 38.1633 31.6739 38.1633 31.2945V27.1732C38.1633 26.7938 37.8558 26.4863 37.4764 26.4863ZM36.7895 30.6077H34.042V27.8601H36.7895V30.6077Z" fill="white"></path><path d="M40.9109 27.1732V31.2945C40.9109 31.6739 41.2184 31.9814 41.5978 31.9814H45.7191C46.0985 31.9814 46.406 31.6739 46.406 31.2945V27.1732C46.406 26.7938 46.0985 26.4863 45.7191 26.4863H41.5978C41.2184 26.4863 40.9109 26.7938 40.9109 27.1732ZM42.2847 27.8601H45.0322V30.6077H42.2847V27.8601Z" fill="white"></path><path d="M29.2336 34.729H25.1123C24.7329 34.729 24.4254 35.0365 24.4254 35.4159V39.5372C24.4254 39.9166 24.7329 40.2241 25.1123 40.2241H29.2336C29.613 40.2241 29.9205 39.9166 29.9205 39.5372V35.4159C29.9205 35.0365 29.613 34.729 29.2336 34.729ZM28.5467 38.8503H25.7992V36.1028H28.5467V38.8503Z" fill="white"></path><path d="M37.4764 34.729H33.3551C32.9757 34.729 32.6682 35.0365 32.6682 35.4159V39.5372C32.6682 39.9166 32.9757 40.2241 33.3551 40.2241H37.4764C37.8558 40.2241 38.1633 39.9166 38.1633 39.5372V35.4159C38.1633 35.0365 37.8558 34.729 37.4764 34.729ZM36.7895 38.8503H34.042V36.1028H36.7895V38.8503Z" fill="white"></path><path d="M45.7191 34.729H41.5978C41.2184 34.729 40.9109 35.0365 40.9109 35.4159V39.5372C40.9109 39.9166 41.2184 40.2241 41.5978 40.2241H45.7191C46.0985 40.2241 46.406 39.9166 46.406 39.5372V35.4159C46.406 35.0365 46.0985 34.729 45.7191 34.729ZM45.0322 38.8503H42.2847V36.1028H45.0322V38.8503Z" fill="white"></path><path d="M29.2336 42.9712H25.1123C24.7329 42.9712 24.4254 43.2787 24.4254 43.6581V47.7794C24.4254 48.1588 24.7329 48.4663 25.1123 48.4663H29.2336C29.613 48.4663 29.9205 48.1588 29.9205 47.7794V43.6581C29.9205 43.2787 29.613 42.9712 29.2336 42.9712ZM28.5467 47.0925H25.7992V44.345H28.5467V47.0925Z" fill="white"></path><path d="M44.3453 17.8315H26.4862C26.1068 17.8315 25.7993 18.139 25.7993 18.5184V22.365H22.3649C21.9855 22.365 21.678 22.6725 21.678 23.0519V51.6264H19.6173C19.2379 51.6264 18.9304 51.9339 18.9304 52.3133C18.9304 52.6927 19.2379 53.0002 19.6173 53.0002H51.2141C51.5935 53.0002 51.901 52.6927 51.901 52.3133C51.901 51.9339 51.5935 51.6264 51.2141 51.6264H49.1535V23.0519C49.1535 22.6725 48.846 22.365 48.4666 22.365H45.0322V18.5184C45.0322 18.139 44.7247 17.8315 44.3453 17.8315ZM27.1731 19.2053H43.6584V22.365H27.1731V19.2053ZM38.1633 51.6264H36.1026V49.1536C36.1026 48.7742 35.7951 48.4667 35.4157 48.4667C35.0363 48.4667 34.7288 48.7742 34.7288 49.1536V51.6264H32.6682V44.3454H38.1633V51.6264ZM47.7797 51.6264H39.5371V43.6585C39.5371 43.2791 39.2296 42.9716 38.8502 42.9716H31.9813C31.6019 42.9716 31.2944 43.2791 31.2944 43.6585V51.6264H23.0517V23.7388H47.7797V51.6264Z" fill="white"></path></g><defs><clipPath id="clip0_87_464"><rect width="35.1687" height="35.1687" fill="white" transform="translate(17.8313 17.8315)"></rect></clipPath></defs></svg>