<svg xmlns="http://www.w3.org/2000/svg" width="108" height="28" viewBox="0 0 108 28" fill="none"><rect x="0.367554" y="1.12744" width="107" height="26" rx="13" fill="#AFCBF0"></rect><path d="M21.0279 17.1178C21.0279 17.9388 20.8158 18.6299 20.3916 19.1909C19.9675 19.7383 19.3927 20.1556 18.6675 20.443C17.9559 20.7303 17.176 20.874 16.3276 20.874H9.28725V6.30078H17.087C17.7712 6.30078 18.3596 6.48551 18.8522 6.85498C19.3585 7.21075 19.7417 7.676 20.0017 8.25072C20.2753 8.81176 20.4122 9.40016 20.4122 10.0159C20.4122 10.7138 20.2343 11.3775 19.8785 12.0069C19.5227 12.6364 19.0027 13.1016 18.3186 13.4027C19.1533 13.649 19.8101 14.0937 20.289 14.7368C20.7816 15.38 21.0279 16.1736 21.0279 17.1178ZM18.1749 16.5842C18.1749 16.2147 18.0996 15.8863 17.9491 15.5989C17.7986 15.2979 17.5933 15.0653 17.3333 14.901C17.087 14.7232 16.7997 14.6342 16.4712 14.6342H12.1198V18.4725H16.3276C16.6697 18.4725 16.9775 18.3904 17.2512 18.2262C17.5386 18.0483 17.7644 17.8157 17.9286 17.5283C18.0928 17.241 18.1749 16.9262 18.1749 16.5842ZM12.1198 8.72281V12.3969H15.8965C16.2113 12.3969 16.4986 12.3217 16.7586 12.1711C17.0186 12.0206 17.2239 11.8085 17.3744 11.5348C17.5386 11.2612 17.6207 10.9327 17.6207 10.5496C17.6207 10.1801 17.5454 9.85857 17.3949 9.58489C17.2581 9.31122 17.0665 9.09912 16.8202 8.9486C16.5876 8.79807 16.3207 8.72281 16.0197 8.72281H12.1198ZM22.8288 16.851V10.1186H25.5792V16.2557C25.5792 17.0768 25.7297 17.6994 26.0308 18.1236C26.3318 18.5341 26.7765 18.7394 27.3649 18.7394C27.7207 18.7394 28.0696 18.6709 28.4117 18.5341C28.7675 18.3836 29.0891 18.1646 29.3765 17.8773C29.6775 17.5899 29.9306 17.2273 30.1359 16.7894V10.1186H32.8863V17.7952C32.8863 18.0825 32.9342 18.2878 33.03 18.4109C33.1395 18.5341 33.3105 18.6094 33.5432 18.6367V20.874C33.2695 20.9151 33.0369 20.9424 32.8453 20.9561C32.6674 20.9835 32.5032 20.9972 32.3527 20.9972C31.8601 20.9972 31.4564 20.8877 31.1417 20.6688C30.8406 20.4361 30.6627 20.1214 30.608 19.7246L30.5464 18.8625C30.0675 19.5877 29.4517 20.1419 28.6991 20.5251C27.9465 20.8945 27.1186 21.0793 26.2155 21.0793C25.1071 21.0793 24.2656 20.7235 23.6908 20.0119C23.1161 19.2867 22.8288 18.2331 22.8288 16.851ZM39.5811 21.0793C38.6643 21.0793 37.7885 20.9288 36.9538 20.6277C36.1191 20.3267 35.4007 19.8819 34.7986 19.2935L35.7838 17.5078C36.427 18.0278 37.0564 18.4109 37.6722 18.6572C38.3017 18.9036 38.9037 19.0267 39.4785 19.0267C40.0121 19.0267 40.4363 18.9309 40.7511 18.7394C41.0795 18.5478 41.2437 18.2604 41.2437 17.8773C41.2437 17.6173 41.1547 17.4189 40.9768 17.282C40.7989 17.1315 40.539 17.0015 40.1969 16.892C39.8684 16.7826 39.4648 16.6594 38.9858 16.5226C38.1922 16.2626 37.5285 16.0094 36.9949 15.7631C36.4612 15.5168 36.0575 15.2089 35.7838 14.8395C35.5238 14.4563 35.3938 13.9705 35.3938 13.3821C35.3938 12.6706 35.5717 12.0617 35.9275 11.5554C36.297 11.0354 36.8033 10.6317 37.4464 10.3443C38.1032 10.057 38.8695 9.9133 39.7453 9.9133C40.5116 9.9133 41.2368 10.0365 41.921 10.2828C42.6052 10.5154 43.2278 10.8985 43.7889 11.4322L42.6805 13.1769C42.1331 12.7527 41.6131 12.4448 41.1205 12.2532C40.6279 12.048 40.1284 11.9453 39.6221 11.9453C39.3348 11.9453 39.0611 11.9796 38.8011 12.048C38.5548 12.1164 38.3495 12.2327 38.1853 12.3969C38.0348 12.5474 37.9596 12.7664 37.9596 13.0537C37.9596 13.3137 38.028 13.519 38.1648 13.6695C38.3153 13.8063 38.5343 13.9295 38.8216 14.039C39.1227 14.1484 39.4853 14.2716 39.9095 14.4084C40.7716 14.6547 41.4968 14.9079 42.0852 15.1679C42.6873 15.4279 43.1389 15.7494 43.4399 16.1326C43.741 16.5021 43.8915 17.0152 43.8915 17.672C43.8915 18.7394 43.5015 19.5741 42.7215 20.1761C41.9415 20.7782 40.8947 21.0793 39.5811 21.0793ZM45.7622 20.874V10.1186H48.5126V20.874H45.7622ZM45.7622 8.62019V5.89027H48.5126V8.62019H45.7622ZM60.9899 20.874H58.2394V14.8395C58.2394 13.9774 58.0889 13.3479 57.7879 12.9511C57.4868 12.5543 57.0695 12.3559 56.5358 12.3559C56.1663 12.3559 55.79 12.4516 55.4069 12.6432C55.0374 12.8348 54.7022 13.1016 54.4011 13.4437C54.1001 13.7721 53.8811 14.1553 53.7443 14.5932V20.874H50.9939V10.1186H53.4775V12.1096C53.7511 11.6443 54.1001 11.2543 54.5243 10.9396C54.9485 10.6112 55.4342 10.3649 55.9816 10.2007C56.5426 10.0228 57.131 9.93383 57.7468 9.93383C58.4173 9.93383 58.9647 10.057 59.3889 10.3033C59.8267 10.5359 60.1552 10.8575 60.3741 11.268C60.6067 11.6648 60.7641 12.1164 60.8462 12.6227C60.942 13.129 60.9899 13.6421 60.9899 14.1621V20.874ZM68.3692 21.0793C67.5071 21.0793 66.7271 20.9356 66.0292 20.6482C65.3314 20.3472 64.7361 19.9435 64.2435 19.4372C63.7509 18.9172 63.3677 18.3288 63.0941 17.672C62.8341 17.0015 62.7041 16.2968 62.7041 15.5579C62.7041 14.5316 62.9299 13.5942 63.3814 12.7458C63.8467 11.8975 64.5035 11.2201 65.3519 10.7138C66.214 10.1938 67.2266 9.93383 68.3897 9.93383C69.5665 9.93383 70.5723 10.1938 71.407 10.7138C72.2417 11.2201 72.878 11.8975 73.3159 12.7458C73.7674 13.5806 73.9932 14.4837 73.9932 15.4552C73.9932 15.6194 73.9864 15.7905 73.9727 15.9684C73.959 16.1326 73.9453 16.2694 73.9316 16.3789H65.6187C65.6735 16.9262 65.8308 17.4052 66.0908 17.8157C66.3645 18.2262 66.7066 18.5409 67.1171 18.7599C67.5413 18.9651 67.9929 19.0678 68.4718 19.0678C69.0192 19.0678 69.5323 18.9378 70.0112 18.6778C70.5038 18.4041 70.8391 18.0483 71.017 17.6104L73.3774 18.2673C73.1174 18.8146 72.7411 19.3004 72.2485 19.7246C71.7696 20.1488 71.2017 20.484 70.5449 20.7303C69.8881 20.963 69.1628 21.0793 68.3692 21.0793ZM65.5572 14.6342H71.1812C71.1265 14.0869 70.9691 13.6148 70.7091 13.2179C70.4628 12.8074 70.1344 12.4927 69.7239 12.2738C69.3134 12.0411 68.8549 11.9248 68.3486 11.9248C67.856 11.9248 67.4045 12.0411 66.9939 12.2738C66.5971 12.4927 66.2687 12.8074 66.0087 13.2179C65.7624 13.6148 65.6119 14.0869 65.5572 14.6342ZM79.6302 21.0793C78.7134 21.0793 77.8377 20.9288 77.0029 20.6277C76.1682 20.3267 75.4498 19.8819 74.8477 19.2935L75.833 17.5078C76.4761 18.0278 77.1056 18.4109 77.7213 18.6572C78.3508 18.9036 78.9529 19.0267 79.5276 19.0267C80.0613 19.0267 80.4855 18.9309 80.8002 18.7394C81.1286 18.5478 81.2928 18.2604 81.2928 17.8773C81.2928 17.6173 81.2039 17.4189 81.026 17.282C80.8481 17.1315 80.5881 17.0015 80.246 16.892C79.9176 16.7826 79.5139 16.6594 79.035 16.5226C78.2413 16.2626 77.5777 16.0094 77.044 15.7631C76.5103 15.5168 76.1067 15.2089 75.833 14.8395C75.573 14.4563 75.443 13.9705 75.443 13.3821C75.443 12.6706 75.6209 12.0617 75.9767 11.5554C76.3461 11.0354 76.8524 10.6317 77.4956 10.3443C78.1524 10.057 78.9187 9.9133 79.7944 9.9133C80.5607 9.9133 81.286 10.0365 81.9702 10.2828C82.6544 10.5154 83.277 10.8985 83.838 11.4322L82.7296 13.1769C82.1823 12.7527 81.6623 12.4448 81.1697 12.2532C80.677 12.048 80.1776 11.9453 79.6713 11.9453C79.3839 11.9453 79.1103 11.9796 78.8503 12.048C78.604 12.1164 78.3987 12.2327 78.2345 12.3969C78.084 12.5474 78.0087 12.7664 78.0087 13.0537C78.0087 13.3137 78.0771 13.519 78.214 13.6695C78.3645 13.8063 78.5834 13.9295 78.8708 14.039C79.1718 14.1484 79.5344 14.2716 79.9586 14.4084C80.8207 14.6547 81.546 14.9079 82.1344 15.1679C82.7365 15.4279 83.188 15.7494 83.4891 16.1326C83.7901 16.5021 83.9406 17.0152 83.9406 17.672C83.9406 18.7394 83.5506 19.5741 82.7707 20.1761C81.9907 20.7782 80.9439 21.0793 79.6302 21.0793ZM89.7728 21.0793C88.856 21.0793 87.9802 20.9288 87.1455 20.6277C86.3108 20.3267 85.5924 19.8819 84.9903 19.2935L85.9756 17.5078C86.6187 18.0278 87.2482 18.4109 87.8639 18.6572C88.4934 18.9036 89.0955 19.0267 89.6702 19.0267C90.2039 19.0267 90.6281 18.9309 90.9428 18.7394C91.2712 18.5478 91.4354 18.2604 91.4354 17.8773C91.4354 17.6173 91.3465 17.4189 91.1686 17.282C90.9907 17.1315 90.7307 17.0015 90.3886 16.892C90.0602 16.7826 89.6565 16.6594 89.1776 16.5226C88.3839 16.2626 87.7202 16.0094 87.1866 15.7631C86.6529 15.5168 86.2492 15.2089 85.9756 14.8395C85.7156 14.4563 85.5856 13.9705 85.5856 13.3821C85.5856 12.6706 85.7635 12.0617 86.1192 11.5554C86.4887 11.0354 86.995 10.6317 87.6381 10.3443C88.295 10.057 89.0613 9.9133 89.937 9.9133C90.7033 9.9133 91.4286 10.0365 92.1127 10.2828C92.7969 10.5154 93.4195 10.8985 93.9806 11.4322L92.8722 13.1769C92.3248 12.7527 91.8049 12.4448 91.3122 12.2532C90.8196 12.048 90.3202 11.9453 89.8139 11.9453C89.5265 11.9453 89.2528 11.9796 88.9928 12.048C88.7465 12.1164 88.5413 12.2327 88.3771 12.3969C88.2265 12.5474 88.1513 12.7664 88.1513 13.0537C88.1513 13.3137 88.2197 13.519 88.3565 13.6695C88.5071 13.8063 88.726 13.9295 89.0134 14.039C89.3144 14.1484 89.677 14.2716 90.1012 14.4084C90.9633 14.6547 91.6885 14.9079 92.2769 15.1679C92.879 15.4279 93.3306 15.7494 93.6316 16.1326C93.9327 16.5021 94.0832 17.0152 94.0832 17.672C94.0832 18.7394 93.6932 19.5741 92.9132 20.1761C92.1333 20.7782 91.0865 21.0793 89.7728 21.0793Z" fill="#1E293B"></path></svg>