<svg xmlns="http://www.w3.org/2000/svg" width="62" height="61" viewBox="0 0 62 61" fill="none"><circle cx="31.171" cy="30.4388" r="27.1961" fill="#EC4899" fill-opacity="0.12"></circle><circle cx="31.171" cy="30.4388" r="28.7727" stroke="#EC4899" stroke-opacity="0.1" stroke-width="3.15318"></circle><g clip-path="url(#clip0_87_463)"><path d="M19.3324 26.5853C18.8747 26.1276 18.8747 25.3856 19.3324 24.928L26.1937 18.0667C26.6513 17.6091 27.3933 17.609 27.8509 18.0667L32.1651 22.3808L38.9595 15.5864H35.9492C35.3019 15.5864 34.7773 15.0618 34.7773 14.4146C34.7773 13.7673 35.3019 13.2427 35.9492 13.2427H41.788C42.4458 13.2423 42.9605 13.78 42.9605 14.4146V20.254C42.9605 20.9012 42.4358 21.4259 41.7886 21.4259C41.1414 21.4259 40.6167 20.9012 40.6167 20.254V17.2438L32.9937 24.8668C32.536 25.3245 31.7941 25.3245 31.3364 24.8668L27.0223 20.5527L20.9897 26.5853C20.532 27.043 19.79 27.0429 19.3324 26.5853ZM24.3473 35.1567V42.0708C24.3473 42.718 23.8226 43.2427 23.1754 43.2427H17.1467C16.4995 43.2427 15.9749 42.718 15.9749 42.0708V35.1567C15.9749 34.5095 16.4995 33.9849 17.1467 33.9849H23.1754C23.8226 33.9849 24.3473 34.5095 24.3473 35.1567ZM22.0035 36.3286H18.3186V40.8989H22.0035V36.3286ZM35.161 30.6993V42.0708C35.161 42.718 34.6364 43.2427 33.9892 43.2427H27.9606C27.3133 43.2427 26.7887 42.718 26.7887 42.0708V30.6993C26.7887 30.052 27.3133 29.5274 27.9606 29.5274H33.9892C34.6364 29.5274 35.161 30.052 35.161 30.6993ZM32.8173 31.8712H29.1324V40.8989H32.8173V31.8712ZM45.9749 26.2419V42.0708C45.9749 42.718 45.4502 43.2427 44.803 43.2427H38.7743C38.1271 43.2427 37.6025 42.718 37.6025 42.0708V26.2419C37.6025 25.5946 38.1271 25.07 38.7743 25.07H44.803C45.4502 25.07 45.9749 25.5946 45.9749 26.2419ZM43.6311 27.4137H39.9462V40.8989H43.6311V27.4137Z" fill="#FF2F7C"></path></g><defs><clipPath id="clip0_87_463"><rect width="30" height="30" fill="white" transform="translate(15.9749 13.2427)"></rect></clipPath></defs></svg>