<svg xmlns="http://www.w3.org/2000/svg" width="113" height="27" viewBox="0 0 113 27" fill="none"><rect x="0.974854" y="0.860352" width="112" height="26" rx="13" fill="#F6E6EE"></rect><path d="M22.0695 17.4315V19.7207H12.7424V6.28818H21.8992V8.57738H15.3532V11.8125H21.01V13.9315H15.3532V17.4315H22.0695ZM33.0171 19.7207H30.4819V14.1585C30.4819 13.3639 30.3432 12.7837 30.0657 12.4179C29.7882 12.0522 29.4035 11.8693 28.9116 11.8693C28.5711 11.8693 28.2243 11.9576 27.8711 12.1342C27.5306 12.3107 27.2215 12.5567 26.9441 12.872C26.6666 13.1747 26.4648 13.5279 26.3387 13.9315V19.7207H23.8035V9.80712H26.0927V11.6423C26.345 11.2134 26.6666 10.854 27.0576 10.5639C27.4486 10.2612 27.8963 10.0341 28.4008 9.8828C28.918 9.71883 29.4603 9.63685 30.0279 9.63685C30.6459 9.63685 31.1504 9.75036 31.5414 9.97739C31.945 10.1918 32.2477 10.4882 32.4495 10.8666C32.6639 11.2324 32.809 11.6486 32.8846 12.1152C32.9729 12.5819 33.0171 13.0549 33.0171 13.5342V19.7207ZM41.1066 19.2099C40.8922 19.2982 40.6336 19.3991 40.3309 19.5126C40.0282 19.6261 39.7003 19.7144 39.3471 19.7775C39.0066 19.8531 38.6597 19.891 38.3066 19.891C37.8399 19.891 37.4111 19.809 37.0201 19.645C36.6291 19.4811 36.3138 19.2225 36.0741 18.8693C35.8471 18.5036 35.7336 18.0306 35.7336 17.4504V11.7558H34.4282V9.80712H35.7336V6.59088H38.2687V9.80712H40.3498V11.7558H38.2687V16.5991C38.2814 16.9396 38.3759 17.1856 38.5525 17.3369C38.7291 17.4883 38.9498 17.5639 39.2147 17.5639C39.4796 17.5639 39.7381 17.5198 39.9904 17.4315C40.2426 17.3432 40.4444 17.2675 40.5958 17.2045L41.1066 19.2099ZM46.9134 19.9099C46.1188 19.9099 45.3999 19.7775 44.7566 19.5126C44.1134 19.2351 43.5647 18.863 43.1107 18.3964C42.6566 17.9171 42.3035 17.3747 42.0512 16.7693C41.8116 16.1513 41.6918 15.5018 41.6918 14.8207C41.6918 13.8747 41.8999 13.0107 42.3161 12.2288C42.7449 11.4468 43.3503 10.8224 44.1323 10.3558C44.9269 9.87649 45.8603 9.63685 46.9323 9.63685C48.017 9.63685 48.9441 9.87649 49.7134 10.3558C50.4828 10.8224 51.0693 11.4468 51.4729 12.2288C51.8891 12.9981 52.0972 13.8306 52.0972 14.7261C52.0972 14.8774 52.0909 15.0351 52.0783 15.199C52.0657 15.3504 52.0531 15.4765 52.0405 15.5774H44.3783C44.4287 16.0819 44.5738 16.5234 44.8134 16.9018C45.0657 17.2801 45.381 17.5702 45.7594 17.772C46.1503 17.9612 46.5666 18.0558 47.008 18.0558C47.5125 18.0558 47.9855 17.936 48.4269 17.6964C48.881 17.4441 49.19 17.1162 49.354 16.7126L51.5297 17.318C51.29 17.8225 50.9432 18.2702 50.4891 18.6612C50.0477 19.0522 49.5242 19.3612 48.9188 19.5883C48.3134 19.8027 47.645 19.9099 46.9134 19.9099ZM44.3215 13.9693H49.5053C49.4549 13.4648 49.3098 13.0297 49.0702 12.6639C48.8432 12.2855 48.5405 11.9954 48.1621 11.7936C47.7837 11.5792 47.3612 11.472 46.8945 11.472C46.4404 11.472 46.0242 11.5792 45.6458 11.7936C45.2801 11.9954 44.9774 12.2855 44.7377 12.6639C44.5107 13.0297 44.372 13.4648 44.3215 13.9693ZM59.5444 12.0017C58.775 12.0017 58.0876 12.1531 57.4822 12.4558C56.8768 12.7459 56.4417 13.1684 56.1768 13.7234V19.7207H53.6417V9.80712H55.9687V11.9261C56.3219 11.245 56.7696 10.7089 57.3119 10.3179C57.8543 9.92694 58.4282 9.71253 59.0336 9.67469C59.1723 9.67469 59.2795 9.67469 59.3552 9.67469C59.4309 9.67469 59.4939 9.68099 59.5444 9.69361V12.0017ZM66.8986 19.9099C66.1292 19.9099 65.4481 19.7396 64.8553 19.3991C64.2751 19.0459 63.8211 18.5729 63.4932 17.9802V23.7505H60.958V9.80712H63.1715V11.5098C63.5499 10.9297 64.0292 10.4756 64.6094 10.1477C65.1896 9.80712 65.8517 9.63685 66.5959 9.63685C67.2644 9.63685 67.8761 9.76928 68.431 10.0341C68.9986 10.299 69.4905 10.6711 69.9067 11.1504C70.3229 11.617 70.6446 12.1594 70.8716 12.7774C71.1112 13.3828 71.231 14.0387 71.231 14.745C71.231 15.7036 71.0419 16.5738 70.6635 17.3558C70.2977 18.1378 69.7869 18.7621 69.131 19.2288C68.4878 19.6829 67.7436 19.9099 66.8986 19.9099ZM66.0472 17.7531C66.4382 17.7531 66.7914 17.6711 67.1067 17.5072C67.422 17.3432 67.6932 17.1225 67.9202 16.845C68.1599 16.5549 68.3364 16.2333 68.4499 15.8801C68.5761 15.5144 68.6391 15.136 68.6391 14.745C68.6391 14.3288 68.5698 13.9441 68.431 13.5909C68.3049 13.2378 68.1157 12.9288 67.8635 12.6639C67.6112 12.3864 67.3148 12.172 66.9743 12.0206C66.6463 11.8693 66.2869 11.7936 65.8959 11.7936C65.6562 11.7936 65.4103 11.8378 65.158 11.9261C64.9184 12.0017 64.6851 12.1152 64.458 12.2666C64.231 12.4179 64.0292 12.5945 63.8526 12.7963C63.6887 12.9981 63.5688 13.2189 63.4932 13.4585V15.7855C63.6445 16.1513 63.8463 16.4855 64.0986 16.7883C64.3634 17.091 64.6661 17.3306 65.0067 17.5072C65.3472 17.6711 65.6941 17.7531 66.0472 17.7531ZM78.8514 12.0017C78.0821 12.0017 77.3947 12.1531 76.7893 12.4558C76.1838 12.7459 75.7487 13.1684 75.4838 13.7234V19.7207H72.9487V9.80712H75.2757V11.9261C75.6289 11.245 76.0766 10.7089 76.619 10.3179C77.1613 9.92694 77.7352 9.71253 78.3406 9.67469C78.4794 9.67469 78.5866 9.67469 78.6622 9.67469C78.7379 9.67469 78.801 9.68099 78.8514 9.69361V12.0017ZM80.265 19.7207V9.80712H82.8002V19.7207H80.265ZM80.265 8.42603V5.9098H82.8002V8.42603H80.265ZM88.7386 19.9099C87.8935 19.9099 87.0863 19.7712 86.3169 19.4937C85.5475 19.2162 84.8854 18.8063 84.3304 18.2639L85.2385 16.618C85.8313 17.0973 86.4115 17.4504 86.9791 17.6774C87.5593 17.9045 88.1142 18.018 88.644 18.018C89.1359 18.018 89.5269 17.9297 89.8169 17.7531C90.1197 17.5765 90.271 17.3117 90.271 16.9585C90.271 16.7189 90.189 16.536 90.0251 16.4099C89.8611 16.2711 89.6214 16.1513 89.3061 16.0504C89.0034 15.9495 88.6314 15.836 88.1899 15.7099C87.4584 15.4702 86.8467 15.2369 86.3548 15.0099C85.8629 14.7828 85.4908 14.499 85.2385 14.1585C84.9989 13.8053 84.8791 13.3576 84.8791 12.8152C84.8791 12.1594 85.043 11.5981 85.371 11.1315C85.7115 10.6522 86.1782 10.2801 86.771 10.0152C87.3764 9.75036 88.0827 9.61793 88.8899 9.61793C89.5962 9.61793 90.2647 9.73144 90.8953 9.95847C91.526 10.1729 92.0998 10.526 92.617 11.0179L91.5953 12.6261C91.0908 12.2351 90.6115 11.9513 90.1575 11.7747C89.7034 11.5855 89.2431 11.4909 88.7764 11.4909C88.5115 11.4909 88.2593 11.5224 88.0196 11.5855C87.7926 11.6486 87.6034 11.7558 87.4521 11.9071C87.3133 12.0459 87.244 12.2477 87.244 12.5125C87.244 12.7522 87.307 12.9414 87.4331 13.0801C87.5719 13.2062 87.7737 13.3198 88.0386 13.4207C88.316 13.5216 88.6503 13.6351 89.0413 13.7612C89.8359 13.9882 90.5043 14.2216 91.0467 14.4612C91.6016 14.7008 92.0179 14.9972 92.2953 15.3504C92.5728 15.6909 92.7116 16.1639 92.7116 16.7693C92.7116 17.7531 92.3521 18.5225 91.6332 19.0775C90.9143 19.6324 89.9494 19.9099 88.7386 19.9099ZM99.0332 19.9099C98.2386 19.9099 97.5197 19.7775 96.8764 19.5126C96.2332 19.2351 95.6845 18.863 95.2304 18.3964C94.7764 17.9171 94.4232 17.3747 94.171 16.7693C93.9313 16.1513 93.8115 15.5018 93.8115 14.8207C93.8115 13.8747 94.0196 13.0107 94.4358 12.2288C94.8647 11.4468 95.4701 10.8224 96.2521 10.3558C97.0467 9.87649 97.98 9.63685 99.0521 9.63685C100.137 9.63685 101.064 9.87649 101.833 10.3558C102.603 10.8224 103.189 11.4468 103.593 12.2288C104.009 12.9981 104.217 13.8306 104.217 14.7261C104.217 14.8774 104.211 15.0351 104.198 15.199C104.185 15.3504 104.173 15.4765 104.16 15.5774H96.498C96.5485 16.0819 96.6935 16.5234 96.9332 16.9018C97.1854 17.2801 97.5007 17.5702 97.8791 17.772C98.2701 17.9612 98.6863 18.0558 99.1278 18.0558C99.6323 18.0558 100.105 17.936 100.547 17.6964C101.001 17.4441 101.31 17.1162 101.474 16.7126L103.649 17.318C103.41 17.8225 103.063 18.2702 102.609 18.6612C102.167 19.0522 101.644 19.3612 101.039 19.5883C100.433 19.8027 99.7647 19.9099 99.0332 19.9099ZM96.4413 13.9693H101.625C101.575 13.4648 101.43 13.0297 101.19 12.6639C100.963 12.2855 100.66 11.9954 100.282 11.7936C99.9035 11.5792 99.4809 11.472 99.0143 11.472C98.5602 11.472 98.144 11.5792 97.7656 11.7936C97.3998 11.9954 97.0971 12.2855 96.8575 12.6639C96.6305 13.0297 96.4917 13.4648 96.4413 13.9693Z" fill="#1E293B"></path></svg>