<svg xmlns="http://www.w3.org/2000/svg" width="52" height="52" viewBox="0 0 52 52" fill="none"><circle cx="25.8039" cy="26.1962" r="22.8039" fill="#EC4899" fill-opacity="0.12"></circle><circle cx="25.8039" cy="26.1962" r="24.1258" stroke="#EC4899" stroke-opacity="0.1" stroke-width="2.64393"></circle><path d="M26.9095 21.6507H25.8608C25.3984 21.6507 25.0222 21.2745 25.0222 20.812C25.0222 20.3496 25.3984 19.9734 25.8608 19.9734H27.958C28.3635 19.9734 28.6922 19.6447 28.6922 19.2392C28.6922 18.8337 28.3635 18.5049 27.958 18.5049H27.1193V17.6664C27.1193 17.2609 26.7905 16.9321 26.385 16.9321C25.9796 16.9321 25.6508 17.2609 25.6508 17.6664V18.515C24.4768 18.6214 23.5537 19.6108 23.5537 20.8121C23.5537 22.0843 24.5887 23.1192 25.8608 23.1192H26.9095C27.3719 23.1192 27.7481 23.4955 27.7481 23.9579C27.7481 24.4203 27.372 24.7965 26.9095 24.7965H24.8122C24.4067 24.7965 24.078 25.1253 24.078 25.5307C24.078 25.9362 24.4067 26.265 24.8122 26.265H25.6508V27.1036C25.6508 27.5091 25.9796 27.8378 26.385 27.8378C26.7905 27.8378 27.1193 27.5091 27.1193 27.1036V26.255C28.2934 26.1486 29.2166 25.1592 29.2166 23.9578C29.2166 22.6857 28.1817 21.6507 26.9095 21.6507Z" fill="#FF2F7C"></path><path d="M30.3174 30.3018H22.453C22.0475 30.3018 21.7188 30.6305 21.7188 31.036C21.7188 31.4415 22.0475 31.7702 22.453 31.7702H30.3174C30.7229 31.7702 31.0516 31.4415 31.0516 31.036C31.0516 30.6305 30.7229 30.3018 30.3174 30.3018Z" fill="#FF2F7C"></path><path d="M35.0359 13H17.7342C17.3287 13 17 13.3287 17 13.7342V35.1647C17 35.3595 17.0774 35.5462 17.2151 35.6839L19.3778 37.8467C19.6645 38.1334 20.1294 38.1334 20.4162 37.8467L22.0597 36.2031L23.7032 37.8467C23.8409 37.9844 24.0277 38.0618 24.2224 38.0618C24.4171 38.0618 24.6039 37.9844 24.7416 37.8467L26.3851 36.2031L28.0286 37.8467C28.1663 37.9844 28.3531 38.0618 28.5478 38.0618C28.7425 38.0618 28.9293 37.9844 29.067 37.8467L30.7105 36.2031L32.354 37.8467C32.4974 37.9901 32.6853 38.0618 32.8732 38.0618C33.0611 38.0618 33.249 37.9901 33.3924 37.8467L35.5551 35.6839C35.6928 35.5462 35.7702 35.3595 35.7702 35.1647V13.7342C35.7702 13.3287 35.4415 13 35.0359 13ZM32.8732 36.2891L31.2296 34.6456C31.0919 34.5079 30.9051 34.4305 30.7104 34.4305C30.5157 34.4305 30.3289 34.5079 30.1912 34.6456L28.5477 36.2891L26.9042 34.6456C26.6175 34.3589 26.1526 34.3589 25.8658 34.6456L24.2223 36.2891L22.5788 34.6456C22.4411 34.5079 22.2543 34.4305 22.0596 34.4305C21.8649 34.4305 21.6781 34.5079 21.5404 34.6456L19.8969 36.2891L18.4684 34.8606V14.4685H34.3016V34.8606H34.3017L32.8732 36.2891Z" fill="#FF2F7C"></path></svg>