<svg xmlns="http://www.w3.org/2000/svg" width="52" height="52" viewBox="0 0 52 52" fill="none"><circle cx="25.8039" cy="26.1962" r="22.8039" fill="#EC4899" fill-opacity="0.12"></circle><circle cx="25.8039" cy="26.1962" r="24.1258" stroke="#EC4899" stroke-opacity="0.1" stroke-width="2.64393"></circle><path d="M37.292 36.5933H34.7034V19.6081C34.7034 19.2026 34.3747 18.8739 33.9692 18.8739H31.4171V16.6712C31.4171 16.2657 31.0883 15.9369 30.6828 15.9369H29.2558V13.7342C29.2558 13.3287 28.9271 13 28.5216 13H22.5046C22.0991 13 21.7704 13.3287 21.7704 13.7342V15.9369H20.3434C19.9379 15.9369 19.6092 16.2657 19.6092 16.6712V18.8739H17.057C16.6515 18.8739 16.3228 19.2026 16.3228 19.6081V36.5933H13.7342C13.3287 36.5933 13 36.922 13 37.3275C13 37.733 13.3287 38.0618 13.7342 38.0618H37.292C37.6974 38.0618 38.0262 37.733 38.0262 37.3275C38.0262 36.922 37.6975 36.5933 37.292 36.5933ZM23.2389 14.4685H27.7874V15.9369H23.2389V14.4685ZM21.0776 17.4054H29.9486V18.8739H21.0776V17.4054ZM24.7789 36.5933H21.842V32.2006H24.7789V36.5933ZM29.1843 36.5933H26.2473V32.2006H29.1843V36.5933ZM33.235 36.5933H30.6527V31.4664C30.6527 31.0609 30.324 30.7321 29.9185 30.7321H21.1077C20.7022 30.7321 20.3735 31.0609 20.3735 31.4664V36.5933H17.7913V20.3423H33.235V36.5933Z" fill="#FF2F7C"></path><path d="M29.9186 28.8961C30.324 28.8961 30.6528 28.5673 30.6528 28.1619V27.0973C30.6528 26.6918 30.324 26.363 29.9186 26.363C29.5131 26.363 29.1843 26.6918 29.1843 27.0973V28.1619C29.1843 28.5673 29.5131 28.8961 29.9186 28.8961Z" fill="#FF2F7C"></path><path d="M26.9815 28.8961C27.387 28.8961 27.7158 28.5673 27.7158 28.1619V27.0973C27.7158 26.6918 27.387 26.363 26.9815 26.363C26.5761 26.363 26.2473 26.6918 26.2473 27.0973V28.1619C26.2473 28.5673 26.5761 28.8961 26.9815 28.8961Z" fill="#FF2F7C"></path><path d="M24.0447 28.8961C24.4501 28.8961 24.7789 28.5673 24.7789 28.1619V27.0973C24.7789 26.6918 24.4501 26.363 24.0447 26.363C23.6392 26.363 23.3104 26.6918 23.3104 27.0973V28.1619C23.3104 28.5673 23.6392 28.8961 24.0447 28.8961Z" fill="#FF2F7C"></path><path d="M21.1078 28.8961C21.5133 28.8961 21.842 28.5673 21.842 28.1619V27.0973C21.842 26.6918 21.5133 26.363 21.1078 26.363C20.7023 26.363 20.3735 26.6918 20.3735 27.0973V28.1619C20.3735 28.5673 20.7023 28.8961 21.1078 28.8961Z" fill="#FF2F7C"></path><path d="M29.9186 24.9801C30.324 24.9801 30.6528 24.6513 30.6528 24.2458V23.1813C30.6528 22.7758 30.324 22.447 29.9186 22.447C29.5131 22.447 29.1843 22.7758 29.1843 23.1813V24.2458C29.1843 24.6513 29.5131 24.9801 29.9186 24.9801Z" fill="#FF2F7C"></path><path d="M26.9815 24.9801C27.387 24.9801 27.7158 24.6513 27.7158 24.2458V23.1813C27.7158 22.7758 27.387 22.447 26.9815 22.447C26.5761 22.447 26.2473 22.7758 26.2473 23.1813V24.2458C26.2473 24.6513 26.5761 24.9801 26.9815 24.9801Z" fill="#FF2F7C"></path><path d="M24.0447 24.9801C24.4501 24.9801 24.7789 24.6513 24.7789 24.2458V23.1813C24.7789 22.7758 24.4501 22.447 24.0447 22.447C23.6392 22.447 23.3104 22.7758 23.3104 23.1813V24.2458C23.3104 24.6513 23.6392 24.9801 24.0447 24.9801Z" fill="#FF2F7C"></path><path d="M21.1078 24.9801C21.5133 24.9801 21.842 24.6513 21.842 24.2458V23.1813C21.842 22.7758 21.5133 22.447 21.1078 22.447C20.7023 22.447 20.3735 22.7758 20.3735 23.1813V24.2458C20.3735 24.6513 20.7023 24.9801 21.1078 24.9801Z" fill="#FF2F7C"></path></svg>