<svg xmlns="http://www.w3.org/2000/svg" width="52" height="52" viewBox="0 0 52 52" fill="none"><circle cx="26.196" cy="26.1962" r="22.8039" fill="#EC4899" fill-opacity="0.12"></circle><circle cx="26.196" cy="26.1962" r="24.1258" stroke="#EC4899" stroke-opacity="0.1" stroke-width="2.64393"></circle><path d="M25.545 28.5167C25.1402 28.5167 24.8108 28.1873 24.8108 27.7825C24.8108 27.4867 24.9868 27.2211 25.2591 27.1058C25.5879 26.9666 25.9813 27.0854 26.3389 27.4317C26.6301 27.7139 27.0949 27.7065 27.3771 27.4153C27.6593 27.1241 27.6519 26.6593 27.3607 26.3771C27.0292 26.056 26.6607 25.829 26.2792 25.7009V24.8456C26.2792 24.4401 25.9505 24.1113 25.545 24.1113C25.1395 24.1113 24.8108 24.4401 24.8108 24.8456V25.7056C24.7691 25.7205 24.7276 25.7361 24.6865 25.7536C23.8699 26.0994 23.3423 26.8958 23.3423 27.7825C23.3423 28.9971 24.3304 29.9852 25.545 29.9852C25.9499 29.9852 26.2792 30.3146 26.2792 30.7194C26.2792 31.0271 26.0852 31.3045 25.7963 31.4097C25.4192 31.547 24.9801 31.3608 24.5919 30.8985C24.3311 30.5879 23.868 30.5477 23.5574 30.8084C23.2469 31.0692 23.2066 31.5324 23.4674 31.8429C23.8644 32.3155 24.3264 32.6396 24.8108 32.8027V33.6563C24.8108 34.0618 25.1396 34.3906 25.5451 34.3906C25.9506 34.3906 26.2793 34.0618 26.2793 33.6563V32.7962C26.2859 32.7939 26.2924 32.7919 26.2989 32.7895C27.1655 32.4739 27.7477 31.6419 27.7477 30.7194C27.7477 29.5048 26.7596 28.5167 25.545 28.5167Z" fill="#FF2F7C"></path><path d="M32.3449 24.0262C31.4723 22.9526 30.4747 22.0972 29.3796 21.4821C29.559 21.2699 29.7005 21.0211 29.7919 20.7438C30.1505 19.6518 29.6267 18.3547 28.2897 17.9321L30.1639 14.6641C30.4004 14.2516 30.1879 13.7263 29.732 13.5937C28.3769 13.1998 26.9682 13 25.545 13C24.1218 13 22.7131 13.1998 21.358 13.5937C20.9015 13.7264 20.6899 14.2521 20.9261 14.6641L22.8003 17.9322C21.4687 18.3526 20.9382 19.6478 21.2984 20.7444C21.3895 21.021 21.5309 21.2696 21.7108 21.4819C20.6156 22.097 19.6179 22.9525 18.7451 24.0262C17.0006 26.1724 16 28.8796 16 31.4537C16 36.7936 20.2608 38.0618 25.545 38.0618C30.8329 38.0618 35.09 36.7914 35.09 31.4537C35.09 28.8796 34.0895 26.1724 32.3449 24.0262ZM22.6813 14.7728C23.618 14.5706 24.5777 14.4685 25.545 14.4685C26.5123 14.4685 27.472 14.5706 28.4087 14.7728L26.7918 17.5924C25.9636 17.4768 25.1266 17.4768 24.2983 17.5924L22.6813 14.7728ZM23.161 19.3582C24.4246 18.9438 25.7466 18.8652 27.0319 19.1221C27.0334 19.1224 27.035 19.1227 27.0365 19.123C27.336 19.1831 27.6336 19.2613 27.928 19.3579C28.3128 19.4847 28.5231 19.9009 28.3969 20.285C28.3052 20.5632 28.0632 20.7548 27.7784 20.7858C27.0464 20.5566 26.2997 20.4402 25.545 20.4402C24.7919 20.4402 24.0466 20.5561 23.316 20.7844C23.0268 20.7547 22.7842 20.5617 22.6933 20.2857C22.567 19.9009 22.7773 19.4847 23.161 19.3582ZM25.545 36.6031C19.8084 36.6031 17.4685 35.1043 17.4685 31.4537C17.4685 29.244 18.3717 26.8137 19.8846 24.9524C21.4801 22.9896 23.4903 21.9087 25.545 21.9087C27.8067 21.9087 29.785 23.2049 31.2054 24.9524C32.7183 26.8137 33.6216 29.244 33.6216 31.4537C33.6216 35.1043 31.2816 36.6031 25.545 36.6031Z" fill="#FF2F7C"></path></svg>