<svg xmlns="http://www.w3.org/2000/svg" width="52" height="52" viewBox="0 0 52 52" fill="none"><circle cx="25.8039" cy="26.1962" r="22.8039" fill="#EC4899" fill-opacity="0.12"></circle><circle cx="25.8039" cy="26.1962" r="24.1258" stroke="#EC4899" stroke-opacity="0.1" stroke-width="2.64393"></circle><path d="M36.0045 23.0587L36.7153 21.8739H37.3275C37.733 21.8739 38.0618 21.5451 38.0618 21.1396C38.0618 20.7341 37.733 20.4054 37.3275 20.4054H36.2996C36.0417 20.4054 35.8027 20.5407 35.67 20.7619L35.0722 21.7582L34.0863 18.3076C33.6981 16.9489 32.4401 16 31.0271 16H20.0347C18.6217 16 17.3636 16.9489 16.9754 18.3076L15.9895 21.7582L15.3917 20.7619C15.259 20.5407 15.0201 20.4054 14.7622 20.4054H13.7342C13.3287 20.4054 13 20.7341 13 21.1396C13 21.5451 13.3287 21.8739 13.7342 21.8739H14.3464L15.0573 23.0587C13.8563 23.5139 13 24.6758 13 26.0345V31.5168C13 31.9223 13.3287 32.251 13.7342 32.251H15.0069V33.4747C15.0069 34.4194 15.7754 35.1879 16.7201 35.1879H18.6781C19.6227 35.1879 20.3913 34.4194 20.3913 33.4747V32.251H30.6705V33.4747C30.6705 34.4194 31.4391 35.1879 32.3837 35.1879H34.3417C35.2863 35.1879 36.0549 34.4194 36.0549 33.4747V32.251H37.3275C37.733 32.251 38.0618 31.9223 38.0618 31.5168V26.0345C38.0618 24.6758 37.2055 23.5139 36.0045 23.0587ZM18.3874 18.711C18.5964 17.9794 19.2738 17.4685 20.0347 17.4685H31.0271C31.788 17.4685 32.4654 17.9794 32.6744 18.711L33.8578 22.8528H32.5546C32.2135 21.1792 30.7302 19.9159 28.9573 19.9159C27.1844 19.9159 25.7011 21.1792 25.36 22.8528H17.204L18.3874 18.711ZM26.8804 22.8528C27.1834 21.9981 28.0001 21.3844 28.9573 21.3844C29.9145 21.3844 30.7312 21.9981 31.0342 22.8528H26.8804ZM18.9228 33.4747C18.9228 33.6097 18.813 33.7195 18.6781 33.7195H16.7201C16.5852 33.7195 16.4754 33.6097 16.4754 33.4747V32.251H18.9228V33.4747ZM23.3282 30.7825V28.7267H27.7336V30.7825H23.3282ZM34.5864 33.4747C34.5864 33.6097 34.4766 33.7195 34.3417 33.7195H32.3837C32.2488 33.7195 32.139 33.6097 32.139 33.4747V32.251H34.5864V33.4747ZM36.5933 30.7825H29.202V27.9924C29.202 27.587 28.8733 27.2582 28.4678 27.2582H22.594C22.1885 27.2582 21.8597 27.587 21.8597 27.9924V30.7825H14.4685V26.0345C14.4685 25.0898 15.237 24.3213 16.1817 24.3213H16.2275C16.2288 24.3213 16.23 24.3214 16.2313 24.3214C16.2325 24.3214 16.2337 24.3213 16.2349 24.3213H34.8268C34.8281 24.3213 34.8292 24.3214 34.8305 24.3214C34.8317 24.3214 34.833 24.3213 34.8342 24.3213H34.8801C35.8248 24.3213 36.5933 25.0898 36.5933 26.0345V30.7825Z" fill="#FF2F7C"></path><path d="M32.8733 25.3491C31.6588 25.3491 30.6707 26.3372 30.6707 27.5518C30.6707 28.7664 31.6588 29.7545 32.8733 29.7545C34.0879 29.7545 35.076 28.7664 35.076 27.5518C35.076 26.3372 34.0879 25.3491 32.8733 25.3491ZM32.8733 28.286C32.4685 28.286 32.1391 27.9567 32.1391 27.5518C32.1391 27.147 32.4685 26.8176 32.8733 26.8176C33.2782 26.8176 33.6076 27.147 33.6076 27.5518C33.6076 27.9567 33.2782 28.286 32.8733 28.286Z" fill="#FF2F7C"></path><path d="M18.1885 25.3491C16.974 25.3491 15.9858 26.3372 15.9858 27.5518C15.9858 28.7664 16.974 29.7545 18.1885 29.7545C19.4031 29.7545 20.3912 28.7664 20.3912 27.5518C20.3912 26.3372 19.4031 25.3491 18.1885 25.3491ZM18.1885 28.286C17.7837 28.286 17.4543 27.9567 17.4543 27.5518C17.4543 27.147 17.7837 26.8176 18.1885 26.8176C18.5934 26.8176 18.9228 27.147 18.9228 27.5518C18.9228 27.9567 18.5934 28.286 18.1885 28.286Z" fill="#FF2F7C"></path></svg>