<svg xmlns="http://www.w3.org/2000/svg" width="52" height="52" viewBox="0 0 52 52" fill="none"><circle cx="25.8039" cy="26.1962" r="22.8039" fill="#EC4899" fill-opacity="0.12"></circle><circle cx="25.8039" cy="26.1962" r="24.1258" stroke="#EC4899" stroke-opacity="0.1" stroke-width="2.64393"></circle><path d="M37.5459 34.6921H13.8148V35.7239H37.5459V34.6921Z" fill="#FF2F7C"></path><path d="M37.1866 18.4381C35.4631 17.4336 33.5047 17.9672 32.1656 18.5916L28.1738 20.4531L21.3082 17L17.2196 17.1757L22.8889 22.9231L19.2759 24.6394L15.5168 23.2088L13 24.3824L15.2745 27.2068C15.0342 27.4935 14.8165 27.8972 15.0141 28.3211C15.2724 28.8748 16.0355 29.1538 17.2873 29.1538C17.544 29.1538 17.8213 29.1421 18.1189 29.1185C19.4931 29.01 20.9829 28.6592 21.9144 28.2248L36.1838 21.5709C37.4163 20.9962 38.0302 20.3927 38.0606 19.7258C38.0764 19.38 37.9376 18.8757 37.1866 18.4381ZM35.7477 20.6358L21.4783 27.2897C20.6847 27.6598 19.3817 27.9699 18.1588 28.0797C16.9089 28.1919 16.2406 28.051 16.0179 27.9314C16.0637 27.8686 16.1494 27.77 16.3074 27.6309L16.678 27.3047L14.6295 24.7609L15.5574 24.3282L19.3205 25.7605L24.6429 23.2321L19.5871 18.1066L21.0843 18.0423L28.1566 21.5993L32.6016 19.5267C34.2249 18.7697 35.5927 18.7035 36.667 19.3295L36.667 19.3295C36.9377 19.4872 37.0323 19.6248 37.0298 19.6788C37.0297 19.6825 36.9987 20.0525 35.7477 20.6358Z" fill="#FF2F7C"></path></svg>