<svg xmlns="http://www.w3.org/2000/svg" width="147" height="148" viewBox="0 0 147 148" fill="none"><g filter="url(#filter0_d_106_54)"><rect x="23.1926" y="24.4576" width="91.1695" height="91.1695" rx="45.5847" fill="white"></rect></g><path d="M81.7874 61.0044C81.4147 61.0044 81.1125 61.3065 81.1125 61.6792V91.894L79.7317 90.6478C79.0731 90.0535 78.0797 90.0534 77.4209 90.6478L75.9491 91.976C75.6163 92.2764 75.1143 92.2765 74.7813 91.976L73.3096 90.6477C72.651 90.0534 71.6576 90.0533 70.9988 90.6477L69.527 91.9761C69.1942 92.2765 68.6921 92.2766 68.3592 91.9761L66.8875 90.6479C66.2288 90.0535 65.2354 90.0534 64.5768 90.6479L63.105 91.9762C62.7722 92.2766 62.2701 92.2766 61.9372 91.9762L60.1107 90.3278C59.6543 89.9159 58.9658 89.9159 58.5094 90.3278L56.7739 91.8941V79.1659C56.7739 78.7932 56.4717 78.4911 56.099 78.4911C55.7263 78.4911 55.4242 78.7932 55.4242 79.1659V92.3377C55.4242 92.7997 55.6864 93.2032 56.1085 93.3909C56.5307 93.5786 57.006 93.5029 57.3488 93.1934L59.31 91.4233L61.0329 92.9781C61.8813 93.7438 63.1608 93.7438 64.0092 92.9781L65.481 91.6498C65.624 91.5207 65.8399 91.5206 65.9832 91.6498L67.4549 92.9781C67.879 93.361 68.4111 93.5524 68.9431 93.5524C69.4751 93.5524 70.0071 93.361 70.4313 92.9781L71.903 91.6498C72.0461 91.5206 72.262 91.5207 72.4052 91.6498L73.8769 92.9781C74.7253 93.7439 76.0049 93.7438 76.8534 92.9781L78.3251 91.6499C78.4682 91.5207 78.6841 91.5208 78.8273 91.6499L80.6085 93.2575C80.9338 93.5511 81.4028 93.6258 81.803 93.4477C82.2034 93.2698 82.4621 92.8717 82.4621 92.4336V61.6792C82.4622 61.3065 82.1601 61.0044 81.7874 61.0044Z" fill="#004AAF"></path><path d="M80.6112 47.4802H57.2751C56.2545 47.4802 55.4242 48.3106 55.4242 49.3312V75.9266C55.4242 76.2993 55.7263 76.6015 56.099 76.6015C56.4717 76.6015 56.7739 76.2993 56.7739 75.9266V49.3312C56.7739 49.0548 56.9988 48.8299 57.2751 48.8299H80.6112C80.8876 48.8299 81.1125 49.0548 81.1125 49.3312V58.44C81.1125 58.8127 81.4147 59.1148 81.7874 59.1148C82.1601 59.1148 82.4622 58.8127 82.4622 58.44V49.3312C82.4622 48.3106 81.6319 47.4802 80.6112 47.4802Z" fill="#004AAF"></path><path d="M59.728 52.7033H66.2448C66.6175 52.7033 66.9197 52.4012 66.9197 52.0285C66.9197 51.6558 66.6175 51.3536 66.2448 51.3536H59.728C59.3553 51.3536 59.0531 51.6558 59.0531 52.0285C59.0531 52.4012 59.3553 52.7033 59.728 52.7033Z" fill="#004AAF"></path><path d="M59.728 55.7656H70.3454C70.7181 55.7656 71.0203 55.4634 71.0203 55.0907C71.0203 54.718 70.7181 54.4159 70.3454 54.4159H59.728C59.3553 54.4159 59.0531 54.718 59.0531 55.0907C59.0531 55.4634 59.3553 55.7656 59.728 55.7656Z" fill="#004AAF"></path><path d="M59.728 61.6543H68.2652C68.6379 61.6543 68.9401 61.3521 68.9401 60.9794C68.9401 60.6067 68.6379 60.3046 68.2652 60.3046H59.728C59.3553 60.3046 59.0531 60.6067 59.0531 60.9794C59.0531 61.3521 59.3553 61.6543 59.728 61.6543Z" fill="#004AAF"></path><path d="M75.2881 61.6543H78.1584C78.5311 61.6543 78.8333 61.3521 78.8333 60.9794C78.8333 60.6067 78.5311 60.3046 78.1584 60.3046H75.2881C74.9154 60.3046 74.6133 60.6067 74.6133 60.9794C74.6133 61.3521 74.9154 61.6543 75.2881 61.6543Z" fill="#004AAF"></path><path d="M59.728 65.4231H68.2652C68.6379 65.4231 68.9401 65.1209 68.9401 64.7482C68.9401 64.3755 68.6379 64.0734 68.2652 64.0734H59.728C59.3553 64.0734 59.0531 64.3755 59.0531 64.7482C59.0531 65.1209 59.3553 65.4231 59.728 65.4231Z" fill="#004AAF"></path><path d="M75.2881 65.4231H78.1584C78.5311 65.4231 78.8333 65.1209 78.8333 64.7482C78.8333 64.3755 78.5311 64.0734 78.1584 64.0734H75.2881C74.9154 64.0734 74.6133 64.3755 74.6133 64.7482C74.6133 65.1209 74.9154 65.4231 75.2881 65.4231Z" fill="#004AAF"></path><path d="M59.728 69.1919H68.2652C68.6379 69.1919 68.9401 68.8897 68.9401 68.517C68.9401 68.1443 68.6379 67.8422 68.2652 67.8422H59.728C59.3553 67.8422 59.0531 68.1443 59.0531 68.517C59.0531 68.8897 59.3553 69.1919 59.728 69.1919Z" fill="#004AAF"></path><path d="M75.2881 69.1919H78.1584C78.5311 69.1919 78.8333 68.8897 78.8333 68.517C78.8333 68.1443 78.5311 67.8422 78.1584 67.8422H75.2881C74.9154 67.8422 74.6133 68.1443 74.6133 68.517C74.6133 68.8897 74.9154 69.1919 75.2881 69.1919Z" fill="#004AAF"></path><path d="M59.728 72.9607H68.2652C68.6379 72.9607 68.9401 72.6585 68.9401 72.2858C68.9401 71.9131 68.6379 71.611 68.2652 71.611H59.728C59.3553 71.611 59.0531 71.9131 59.0531 72.2858C59.0531 72.6585 59.3553 72.9607 59.728 72.9607Z" fill="#004AAF"></path><path d="M75.2881 72.9607H78.1584C78.5311 72.9607 78.8333 72.6585 78.8333 72.2858C78.8333 71.9131 78.5311 71.611 78.1584 71.611H75.2881C74.9154 71.611 74.6133 71.9131 74.6133 72.2858C74.6133 72.6585 74.9154 72.9607 75.2881 72.9607Z" fill="#004AAF"></path><path d="M59.728 76.7295H68.2652C68.6379 76.7295 68.9401 76.4273 68.9401 76.0546C68.9401 75.6819 68.6379 75.3798 68.2652 75.3798H59.728C59.3553 75.3798 59.0531 75.6819 59.0531 76.0546C59.0531 76.4273 59.3553 76.7295 59.728 76.7295Z" fill="#004AAF"></path><path d="M75.2881 76.7295H78.1584C78.5311 76.7295 78.8333 76.4273 78.8333 76.0546C78.8333 75.6819 78.5311 75.3798 78.1584 75.3798H75.2881C74.9154 75.3798 74.6133 75.6819 74.6133 76.0546C74.6133 76.4273 74.9154 76.7295 75.2881 76.7295Z" fill="#004AAF"></path><path d="M59.728 88.1144H75.288C75.6607 88.1144 75.9629 87.8122 75.9629 87.4395C75.9629 87.0668 75.6607 86.7646 75.288 86.7646H59.728C59.3553 86.7646 59.0531 87.0668 59.0531 87.4395C59.0531 87.8122 59.3553 88.1144 59.728 88.1144Z" fill="#004AAF"></path><path d="M72.3474 81.5508C72.3474 81.9235 72.6496 82.2257 73.0223 82.2257H78.1585C78.5312 82.2257 78.8333 81.9235 78.8333 81.5508C78.8333 81.1781 78.5312 80.876 78.1585 80.876H73.0223C72.6496 80.876 72.3474 81.1781 72.3474 81.5508Z" fill="#004AAF"></path><path d="M59.0531 82.861C59.0531 83.6363 59.684 84.2672 60.4593 84.2672H67.8729C68.6483 84.2672 69.2791 83.6363 69.2791 82.861V80.6334C69.2791 79.858 68.6483 79.2272 67.8729 79.2272H60.4593C59.684 79.2272 59.0531 79.858 59.0531 80.6334V82.861ZM60.4028 80.6334C60.4028 80.6023 60.4282 80.5769 60.4593 80.5769H67.8729C67.904 80.5769 67.9294 80.6023 67.9294 80.6334V82.861C67.9294 82.8921 67.904 82.9175 67.8729 82.9175H60.4593C60.4282 82.9175 60.4028 82.8921 60.4028 82.861V80.6334Z" fill="#004AAF"></path><defs><filter id="filter0_d_106_54" x="0.17003" y="0.675239" width="146.424" height="146.424" color-interpolation-filters="sRGB"><feGaussianBlur stdDeviation="13.8136"></feGaussianBlur></filter></defs></svg>