<svg xmlns="http://www.w3.org/2000/svg" width="98" height="78" viewBox="0 0 98 78" fill="none"><path d="M86.8488 23.3186C83.597 23.3186 80.3462 23.3186 77.0962 23.3186C76.609 23.3186 76.0177 23.4637 75.7877 22.8369C75.5797 22.2703 76.0999 22.0157 76.4174 21.7091C78.4867 19.7931 80.5615 17.8771 82.6609 15.9829C82.9479 15.7438 83.1786 15.4446 83.3371 15.1064C83.4955 14.7682 83.5777 14.3993 83.5778 14.0258C83.6736 11.6308 83.8954 9.23846 84.0541 6.84341C84.1143 5.92645 84.5112 5.55693 85.3543 6.08521C91.3159 9.81054 95.7064 14.795 97.7401 21.6298C98.2054 23.1927 98.0658 23.3186 96.4755 23.3214H86.8488" fill="white"></path><path d="M97.9781 30.5914C97.9799 29.5794 97.5796 28.6081 96.8653 27.8913C96.151 27.1744 95.1812 26.7707 94.1693 26.7689C93.1573 26.7671 92.1859 27.1673 91.4691 27.8816C90.7522 28.5959 90.3485 29.5657 90.3467 30.5777C90.3489 35.5555 88.3735 40.3304 84.8552 43.8518C81.3368 47.3732 76.5639 49.3527 71.586 49.3549C66.6082 49.357 61.8334 47.3817 58.312 43.8634C54.7906 40.345 52.811 35.5719 52.8088 30.5941V30.5777C52.8088 29.5657 52.4068 28.5952 51.6912 27.8796C50.9757 27.164 50.0052 26.762 48.9932 26.762C47.9812 26.762 47.0106 27.164 46.295 27.8796C45.5794 28.5952 45.1774 29.5657 45.1774 30.5777V30.5941C45.1763 33.0589 44.6898 35.4993 43.7456 37.7761C42.8014 40.0528 41.418 42.1213 39.6744 43.8634C37.9308 45.6055 35.861 46.9871 33.5835 47.9293C31.3059 48.8715 28.8651 49.3559 26.4003 49.3549C23.9356 49.3538 21.4951 48.8672 19.2184 47.923C16.9417 46.9788 14.8731 45.5954 13.131 43.8518C9.61268 40.3304 7.63739 35.5555 7.63956 30.5777C7.63775 29.5657 7.23394 28.5959 6.51709 27.8816C5.80023 27.1673 4.82902 26.7671 3.81704 26.7689C2.80507 26.7707 1.83523 27.1744 1.12094 27.8913C0.406651 28.6081 0.00640523 29.5794 0.00821991 30.5914C0.00686289 30.6032 0.00686289 30.6151 0.00821991 30.627C0.031128 36.3848 1.93598 41.9772 5.43243 46.5518C8.92888 51.1265 13.8252 54.4325 19.375 55.966C24.9249 57.4995 30.824 57.1764 36.1731 55.0459C41.5223 52.9154 46.0283 49.0943 49.0041 44.1651C51.9787 49.0963 56.4845 52.9194 61.8342 55.0513C67.184 57.1832 73.0842 57.5069 78.6351 55.9732C84.186 54.4394 89.0829 51.1322 92.5792 46.5561C96.0755 41.9799 97.9792 36.3858 98 30.627V30.5804" fill="white"></path><path d="M3.81838 23.3351C4.32084 23.3351 4.81839 23.2359 5.2824 23.0431C5.74642 22.8503 6.16777 22.5678 6.5223 22.2117C6.87683 21.8557 7.15755 21.4331 7.34833 20.9683C7.53912 20.5034 7.63625 20.0055 7.63408 19.5031V4.10905C7.60745 3.11441 7.19359 2.16945 6.48066 1.47536C5.76774 0.78127 4.81204 0.392883 3.81704 0.392883C2.82204 0.392883 1.86634 0.78127 1.15342 1.47536C0.440493 2.16945 0.0266377 3.11441 0 4.10905V19.5031C-6.46655e-06 20.517 0.401837 21.4897 1.11753 22.2079C1.83323 22.9262 2.80442 23.3315 3.81838 23.3351Z" fill="white"></path><path d="M45.1884 19.8452C45.1884 19.889 45.1885 19.9328 45.2022 19.9766L45.2351 20.1901C45.2515 20.2722 45.2678 20.3543 45.2897 20.4337C45.3116 20.513 45.3089 20.5185 45.3198 20.5596C45.3308 20.6006 45.3636 20.6964 45.3882 20.7649C45.5581 21.2488 45.8234 21.6937 46.1684 22.0733C46.2543 22.1697 46.3457 22.2611 46.4421 22.347L46.4804 22.3798L46.6228 22.4975C46.6684 22.5355 46.7159 22.5711 46.7651 22.6043L46.9184 22.7083L47.0963 22.8178L47.1867 22.8698C47.2742 22.9163 47.3646 22.9574 47.4604 22.9984L47.5424 23.0313C47.6382 23.0723 47.7368 23.1079 47.8381 23.1408H47.8819C47.975 23.1709 48.0708 23.1928 48.1556 23.2147L48.2322 23.2311C48.3362 23.253 48.4402 23.2667 48.547 23.2804H48.6318C48.7386 23.2804 48.8509 23.2968 48.9604 23.2968H48.9795C49.0999 23.2968 49.2177 23.2968 49.3354 23.2776H49.4284C49.516 23.2776 49.6008 23.2557 49.6857 23.2393L49.8006 23.2147C49.8745 23.1982 49.9513 23.1791 50.0252 23.1572L50.1428 23.1243L50.3728 23.0395C50.4522 23.0066 50.5315 22.9738 50.6082 22.9355C50.6848 22.8972 50.6929 22.8972 50.7313 22.8753C50.7696 22.8534 50.86 22.8041 50.9229 22.7685L51.0023 22.7192C51.0707 22.6754 51.1392 22.6316 51.2021 22.5851L51.2405 22.555C51.5457 22.3305 51.8152 22.061 52.0397 21.7557L52.0616 21.7284C52.1109 21.6599 52.1574 21.5915 52.2012 21.5203C52.2201 21.4921 52.2374 21.4629 52.2531 21.4327C52.2887 21.3753 52.3216 21.3205 52.3545 21.2603C52.4574 21.0693 52.5435 20.8696 52.6117 20.6636C54.1013 16.2626 57.1692 12.5699 61.2227 10.299C65.2762 8.02805 70.0275 7.34012 74.5586 8.3681C75.543 8.60331 76.5805 8.43784 77.4429 7.90809C78.3052 7.37834 78.9219 6.5277 79.1571 5.54331C79.3923 4.55892 79.2268 3.52141 78.6971 2.65903C78.1673 1.79664 77.3167 1.18003 76.3323 0.94482C72.2094 -0.00714082 67.9179 0.0475509 63.8206 1.10428C59.7233 2.161 55.9407 4.18869 52.7924 7.01592V4.08712C52.8061 3.57726 52.7175 3.06983 52.5318 2.59479C52.3461 2.11975 52.0671 1.68672 51.7113 1.32127C51.3555 0.955818 50.9301 0.665356 50.4602 0.467021C49.9903 0.268687 49.4854 0.166504 48.9753 0.166504C48.4653 0.166504 47.9605 0.268687 47.4906 0.467021C47.0207 0.665356 46.5953 0.955818 46.2395 1.32127C45.8837 1.68672 45.6047 2.11975 45.419 2.59479C45.2333 3.06983 45.1447 3.57726 45.1584 4.08712V19.503C45.1584 19.5222 45.1584 19.5441 45.1584 19.566C45.1584 19.6563 45.1584 19.7439 45.1721 19.8397" fill="white"></path><path d="M2.6113 73.4751L0.407842 67.1302C0.338751 66.9299 0.299123 66.7206 0.290161 66.5089C0.292582 66.3513 0.326517 66.1959 0.389999 66.0517C0.453482 65.9075 0.545222 65.7775 0.659776 65.6693C0.774331 65.5611 0.909391 65.477 1.05699 65.4218C1.20459 65.3667 1.36174 65.3417 1.51916 65.3483C1.80799 65.348 2.08836 65.4459 2.31419 65.6259C2.54002 65.806 2.69788 66.0575 2.76186 66.3392L4.13046 70.913L5.54283 66.3556C5.61473 66.0626 5.78314 65.8022 6.02097 65.6165C6.2588 65.4308 6.55222 65.3306 6.85396 65.3319H7.00452C7.30648 65.3309 7.60005 65.4313 7.83824 65.6169C8.07643 65.8024 8.2455 66.0626 8.31839 66.3556L9.7472 70.9295L11.1596 66.3228C11.2216 66.0445 11.3772 65.796 11.6004 65.6186C11.8235 65.4413 12.1008 65.3459 12.3858 65.3483C12.5424 65.3439 12.6982 65.3711 12.8439 65.4285C12.9896 65.4859 13.1222 65.5721 13.2337 65.6821C13.3452 65.7921 13.4334 65.9235 13.4927 66.0684C13.5521 66.2133 13.5816 66.3687 13.5793 66.5253C13.5719 66.7012 13.5443 66.8757 13.4971 67.0454L11.2253 73.486C10.9515 74.2771 10.437 74.6302 9.81289 74.6302H9.73076C9.10667 74.6302 8.58661 74.2771 8.36216 73.5353L6.92239 68.9861L5.4744 73.5243C5.239 74.2661 4.71893 74.6192 4.1058 74.6192H4.02093C3.39959 74.6192 2.87681 74.2661 2.60856 73.4751" fill="white"></path><path d="M19.2723 74.651C16.5655 74.651 14.5648 72.7516 14.5648 69.9983V69.9655C14.5648 67.3928 16.3986 65.2744 19.0206 65.2744C22.0312 65.2744 23.3585 67.7376 23.3585 69.6124C23.3672 69.7731 23.3427 69.9338 23.2863 70.0845C23.2299 70.2352 23.1429 70.3725 23.0308 70.488C22.9187 70.6034 22.7839 70.6944 22.6349 70.7552C22.486 70.816 22.326 70.8453 22.1652 70.8413H17.1047C17.1848 71.3551 17.4535 71.8207 17.8583 72.1471C18.2632 72.4735 18.7751 72.6373 19.2943 72.6066C19.9508 72.6121 20.5903 72.3983 21.1115 71.999C21.2885 71.8611 21.5086 71.7903 21.7327 71.7992C21.865 71.7969 21.9964 71.8215 22.1188 71.8715C22.2413 71.9215 22.3524 71.9958 22.4453 72.09C22.5382 72.1841 22.611 72.2962 22.6593 72.4193C22.7076 72.5425 22.7304 72.6742 22.7263 72.8064C22.7268 72.9493 22.697 73.0907 22.6389 73.2214C22.5809 73.352 22.4959 73.4689 22.3896 73.5645C21.5151 74.2986 20.4027 74.6879 19.2614 74.6593M20.9035 69.2457C20.753 68.1016 20.0825 67.3298 19.0041 67.3298C17.9258 67.3298 17.2552 68.0852 17.0526 69.2457H20.9035Z" fill="white"></path><path d="M25.3083 63.3529C25.3083 63.0139 25.4429 62.6888 25.6826 62.449C25.9223 62.2093 26.2475 62.0746 26.5865 62.0746C26.9255 62.0746 27.2507 62.2093 27.4904 62.449C27.7301 62.6888 27.8648 63.0139 27.8648 63.3529V66.7333C28.1728 66.2736 28.5914 65.8985 29.0821 65.6427C29.5728 65.3868 30.1199 65.2583 30.6732 65.269C32.7754 65.269 34.779 66.9113 34.779 69.9222V69.955C34.779 72.966 32.8109 74.6083 30.6732 74.6083C30.1324 74.6187 29.5967 74.5024 29.1091 74.2685C28.6214 74.0346 28.1952 73.6898 27.8648 73.2616V73.278C27.8626 73.617 27.7259 73.9413 27.4846 74.1795C27.2434 74.4176 26.9174 74.5502 26.5784 74.548C26.2393 74.5459 25.915 74.4091 25.6769 74.1679C25.4387 73.9266 25.3061 73.6006 25.3083 73.2616V63.3529ZM32.2197 69.9605V69.9277C32.2197 68.4304 31.2097 67.4395 30.0163 67.4395C28.8229 67.4395 27.8265 68.4304 27.8265 69.9277V69.9605C27.8265 71.4578 28.8174 72.4486 30.0163 72.4486C31.2152 72.4486 32.2197 71.4742 32.2197 69.9605Z" fill="white"></path><path d="M36.2104 69.9929V69.96C36.2104 67.3709 38.2959 65.269 41.104 65.269C43.9121 65.269 45.962 67.3381 45.962 69.9217V69.9546C45.962 72.5437 43.8792 74.6456 41.0711 74.6456C38.2631 74.6456 36.2104 72.5765 36.2104 69.9929ZM43.4413 69.9929V69.96C43.4413 68.6326 42.4834 67.4722 41.0711 67.4722C39.6069 67.4722 38.7339 68.5971 38.7339 69.9354V69.9682C38.7339 71.2956 39.6918 72.4561 41.104 72.4561C42.5655 72.4561 43.4413 71.3312 43.4413 69.9929Z" fill="white"></path><path d="M47.3835 69.9929V69.96C47.3835 67.3709 49.4692 65.269 52.2772 65.269C55.0853 65.269 57.1352 67.3381 57.1352 69.9217V69.9546C57.1352 72.5437 55.0496 74.6456 52.2415 74.6456C49.4335 74.6456 47.3835 72.5765 47.3835 69.9929ZM54.6117 69.9929V69.96C54.6117 68.6326 53.6538 67.4722 52.2415 67.4722C50.78 67.4722 49.9042 68.5971 49.9042 69.9354V69.9682C49.9042 71.2956 50.8622 72.4561 52.2772 72.4561C53.7387 72.4561 54.6117 71.3312 54.6117 69.9929Z" fill="white"></path><path d="M58.984 63.3529C58.984 63.0139 59.1186 62.6888 59.3584 62.449C59.5981 62.2093 59.9232 62.0746 60.2623 62.0746C60.6013 62.0746 60.9264 62.2093 61.1661 62.449C61.4059 62.6888 61.5405 63.0139 61.5405 63.3529V68.9341L64.7348 65.9094C65.1043 65.5563 65.4081 65.3374 65.8598 65.3374C66.0094 65.3359 66.1579 65.3645 66.2963 65.4215C66.4347 65.4785 66.5602 65.5627 66.6654 65.6692C66.7706 65.7757 66.8533 65.9022 66.9087 66.0413C66.964 66.1804 66.9908 66.3291 66.9875 66.4788C66.9737 66.6951 66.9141 66.9061 66.8127 67.0977C66.7112 67.2893 66.5703 67.4571 66.399 67.5901L64.3817 69.3227L66.785 72.5663C66.9807 72.7965 67.0934 73.0856 67.1053 73.3875C67.1053 73.5427 67.0742 73.6963 67.0138 73.8393C66.9535 73.9823 66.865 74.1118 66.7538 74.22C66.6425 74.3282 66.5106 74.413 66.366 74.4693C66.2214 74.5257 66.0669 74.5524 65.9117 74.548C65.6905 74.5603 65.4702 74.512 65.2744 74.4083C65.0785 74.3046 64.9147 74.1495 64.8006 73.9596L62.567 70.8829L61.5405 71.8081V73.2698C61.5405 73.6088 61.4059 73.9339 61.1661 74.1737C60.9264 74.4134 60.6013 74.548 60.2623 74.548C59.9232 74.548 59.5981 74.4134 59.3584 74.1737C59.1186 73.9339 58.984 73.6088 58.984 73.2698V63.3529Z" fill="white"></path><path d="M69.2564 76.9569C69.0254 76.8912 68.8219 76.7525 68.6763 76.5616C68.5308 76.3706 68.4509 76.1377 68.4488 75.8976C68.4459 75.7626 68.47 75.6283 68.5193 75.5026C68.5686 75.377 68.6423 75.2623 68.7362 75.1653C68.8301 75.0683 68.9424 74.9909 69.0664 74.9376C69.1905 74.8843 69.324 74.8561 69.459 74.8547C69.6014 74.8517 69.7431 74.8739 69.8777 74.9204C70.0531 74.985 70.2382 75.0193 70.4252 75.0216C70.6169 75.0526 70.8134 75.0146 70.9798 74.9144C71.1462 74.8141 71.2716 74.6582 71.3339 74.4742L71.4161 74.2744L68.3394 67.1577C68.2634 66.97 68.2182 66.7713 68.2053 66.5692C68.2029 66.4045 68.2341 66.241 68.2971 66.0887C68.3602 65.9365 68.4537 65.7988 68.5718 65.684C68.6899 65.5692 68.8303 65.4797 68.9843 65.4211C69.1382 65.3624 69.3025 65.3358 69.4671 65.3429C70.1049 65.3429 70.4772 65.696 70.6934 66.3009L72.645 71.5481L74.531 66.3091C74.7335 65.7617 75.103 65.3347 75.7572 65.3347C75.9144 65.3314 76.0706 65.3594 76.2168 65.4169C76.3631 65.4745 76.4965 65.5605 76.6092 65.67C76.722 65.7794 76.812 65.9102 76.8739 66.0547C76.9358 66.1992 76.9684 66.3545 76.9698 66.5117C76.9625 66.7183 76.9228 66.9224 76.8521 67.1166L73.7098 74.6685C72.9543 76.5025 72.1961 77.1922 70.666 77.1922C70.1902 77.2003 69.7169 77.1205 69.27 76.9569" fill="white"></path><path d="M77.8977 69.9929V69.96C77.8977 67.3709 79.9833 65.269 82.7914 65.269C85.5994 65.269 87.6494 67.3381 87.6494 69.9217V69.9546C87.6494 72.5437 85.5666 74.6456 82.7585 74.6456C79.9505 74.6456 77.8977 72.5765 77.8977 69.9929ZM85.1287 69.9929V69.96C85.1287 68.6326 84.1708 67.4722 82.7585 67.4722C81.2943 67.4722 80.4212 68.5971 80.4212 69.9354V69.9682C80.4212 71.2956 81.3791 72.4561 82.7914 72.4561C84.2529 72.4561 85.1287 71.3312 85.1287 69.9929Z" fill="white"></path><path d="M97.6869 73.2718C97.6949 73.4444 97.6678 73.6169 97.6073 73.7787C97.5467 73.9406 97.4539 74.0885 97.3345 74.2135C97.2152 74.3385 97.0718 74.438 96.9129 74.506C96.754 74.574 96.583 74.609 96.4101 74.609C96.2373 74.609 96.0663 74.574 95.9074 74.506C95.7485 74.438 95.605 74.3385 95.4856 74.2135C95.3663 74.0885 95.2736 73.9406 95.213 73.7787C95.1525 73.6169 95.1254 73.4444 95.1334 73.2718V73.1705C94.5449 73.9286 93.7868 74.6183 92.4923 74.6183C90.56 74.6183 89.4324 73.3402 89.4324 71.2711V66.6184C89.4324 66.2794 89.567 65.9543 89.8067 65.7146C90.0464 65.4749 90.3715 65.3402 90.7105 65.3402C91.0495 65.3402 91.3746 65.4749 91.6143 65.7146C91.854 65.9543 91.9886 66.2794 91.9886 66.6184V70.4664C91.9886 71.6789 92.5607 72.3002 93.5351 72.3002C94.5094 72.3002 95.1334 71.6789 95.1334 70.4664V66.6156C95.1254 66.443 95.1525 66.2705 95.213 66.1086C95.2736 65.9468 95.3663 65.7989 95.4856 65.6739C95.605 65.5489 95.7485 65.4494 95.9074 65.3814C96.0663 65.3134 96.2373 65.2784 96.4101 65.2784C96.583 65.2784 96.754 65.3134 96.9129 65.3814C97.0718 65.4494 97.2152 65.5489 97.3345 65.6739C97.4539 65.7989 97.5467 65.9468 97.6073 66.1086C97.6678 66.2705 97.6949 66.443 97.6869 66.6156V73.2718Z" fill="white"></path></svg>