<svg xmlns="http://www.w3.org/2000/svg" width="87" height="70" viewBox="0 0 87 70" fill="none"><path d="M5.56355 0.113037H2.05503C1.10102 0.113037 0.327637 0.886417 0.327637 1.84043V19.0222C0.327637 19.9762 1.10102 20.7496 2.05503 20.7496H5.56355C6.51757 20.7496 7.29095 19.9762 7.29095 19.0222V1.84043C7.29095 0.886417 6.51757 0.113037 5.56355 0.113037Z" fill="white"></path><path d="M85.0236 20.7573H61.8381C60.7096 20.7573 60.3641 19.2449 61.3852 18.7689L68.8782 12.0052C69.3465 11.5062 69.4463 11.3142 69.4463 10.5465L69.6076 1.03432C69.6152 0.220526 70.5288 -0.270821 71.2275 0.159108C74.7514 2.33946 83.0966 8.48897 86.0447 19.4368C86.2212 20.097 85.7145 20.7496 85.0236 20.7496V20.7573Z" fill="#00B2E0"></path><path d="M60.4639 0.0746353C55.6886 0.412436 51.2511 2.56208 47.7119 5.99383V2.73098C47.7119 1.27997 46.5373 0.113022 45.0939 0.113022H43.3742C41.9232 0.113022 40.7563 1.28765 40.7563 2.73098V18.124C40.7563 19.575 41.9309 20.7419 43.3742 20.7419H45.0939C46.5449 20.7419 47.7119 19.5673 47.7119 18.124V17.9551C50.1226 12.0589 55.1205 8.01296 60.8094 7.60606C62.3832 7.4909 63.6653 6.08596 63.8496 4.25876C64.0799 1.93254 62.4677 -0.0712334 60.4639 0.0746353ZM82.8662 24.8032C81.1849 24.8032 79.7569 26.093 79.4729 27.8588C78.114 36.1503 71.3273 42.4456 63.1586 42.4456C54.99 42.4456 48.2032 36.1426 46.8444 27.8588C46.8213 27.7283 46.7829 27.6054 46.7522 27.4826C46.4221 25.9702 45.1554 24.8032 43.5969 24.8032H43.1976C41.6161 24.8032 40.2496 26.0162 39.9962 27.6822C38.7064 36.0581 31.8813 42.4456 23.6512 42.4456C15.4212 42.4456 8.59606 36.0581 7.30627 27.6822C7.05292 26.0162 5.68636 24.8032 4.10484 24.8032H3.70562C1.7172 24.8032 0.181742 26.6918 0.496511 28.7877C2.28532 40.6952 11.9741 49.7851 23.6512 49.7851C31.9581 49.7851 39.2438 45.1711 43.4049 38.2308C47.5737 45.1711 54.8518 49.7851 63.1586 49.7851C74.736 49.7851 84.3556 40.8488 86.2673 29.1025C86.6358 26.8607 85.0082 24.8032 82.8739 24.8032H82.8662Z" fill="white"></path><path d="M13.0796 57.9077C13.2869 57.9077 13.4788 57.9845 13.64 58.1381C13.8089 58.2916 13.8857 58.4759 13.8857 58.7062C13.8857 58.8213 13.8627 58.9288 13.8166 59.0209L11.0681 66.1608C10.999 66.3528 10.8916 66.4909 10.738 66.5908C10.5882 66.6915 10.4118 66.7452 10.2313 66.7452C10.0508 66.7452 9.87441 66.6915 9.72461 66.5908C9.57107 66.4909 9.45591 66.3451 9.39449 66.1608L7.24484 60.5027L5.14127 66.1608C5.07217 66.3528 4.96469 66.4909 4.81882 66.5908C4.67295 66.6906 4.50405 66.7443 4.31212 66.7443C4.13554 66.7443 3.96664 66.6906 3.80542 66.5908C3.6448 66.4888 3.52104 66.3382 3.45226 66.1608L0.719142 59.0209C0.672882 58.928 0.649209 58.8254 0.650046 58.7215C0.650046 58.4835 0.742173 58.2916 0.926429 58.1381C1.11068 57.9845 1.31029 57.9077 1.53294 57.9077C1.86306 57.9077 2.09338 58.0766 2.20854 58.4221L4.34283 64.4334L6.53086 58.4759C6.59995 58.2916 6.69976 58.1457 6.84562 58.0536C6.99149 57.9615 7.14504 57.9154 7.30626 57.9154C7.45981 57.9154 7.61335 57.9615 7.75155 58.0536C7.89741 58.1457 7.99722 58.2916 8.06632 58.4759L10.2543 64.4027L12.3886 58.4451C12.5115 58.092 12.7341 57.9154 13.0642 57.9154L13.0796 57.9077ZM22.039 64.6945C22.1388 64.825 22.1849 64.9862 22.1849 65.1858C22.1849 65.5236 21.9853 65.8153 21.586 66.0533C21.2022 66.2913 20.7799 66.4679 20.3193 66.5984C19.8586 66.7289 19.421 66.7904 19.0065 66.7904C17.7244 66.7904 16.7186 66.3911 15.9739 65.6004C15.2369 64.8096 14.8684 63.7194 14.8684 62.3452C14.8684 61.4623 15.0296 60.6792 15.3597 59.996C15.6822 59.3127 16.1428 58.7829 16.734 58.4068C17.3251 58.0306 17.9931 57.8386 18.7454 57.8386C19.8279 57.8386 20.6801 58.2071 21.3097 58.9518C21.9392 59.6889 22.254 60.6946 22.254 61.9537C22.254 62.422 22.0544 62.66 21.6551 62.66H16.5421C16.6495 64.4795 17.471 65.3931 19.0065 65.3931C19.4134 65.3931 19.7665 65.3317 20.0659 65.2165C20.3653 65.1014 20.6801 64.9478 21.0102 64.7559C21.0409 64.7328 21.1331 64.6791 21.2866 64.6023C21.4325 64.5256 21.563 64.4872 21.6628 64.4872C21.8164 64.4872 21.9469 64.5486 22.0467 64.6791L22.039 64.6945ZM17.2407 59.8117C16.8568 60.2493 16.6188 60.8558 16.5421 61.6466H20.8106C20.7799 60.8481 20.588 60.234 20.2425 59.804C19.897 59.3741 19.4057 59.1591 18.7761 59.1591C18.1466 59.1591 17.6246 59.3741 17.233 59.8117H17.2407ZM30.2998 58.3991C30.8372 58.7599 31.2594 59.282 31.5665 59.9499C31.8736 60.6178 32.0195 61.4009 32.0195 62.2991C32.0195 63.182 31.8659 63.9651 31.5665 64.6484C31.2594 65.3317 30.8372 65.8614 30.2921 66.2376C29.747 66.6138 29.1251 66.8057 28.4265 66.8057C27.82 66.8057 27.2826 66.6675 26.822 66.3911C26.3613 66.1148 26.0082 65.7155 25.7625 65.2012V65.9075C25.7625 66.1685 25.6857 66.3758 25.5398 66.537C25.394 66.6982 25.1867 66.775 24.9333 66.775C24.68 66.775 24.4727 66.6982 24.3192 66.537C24.1656 66.3758 24.0888 66.1685 24.0888 65.9075V55.0057C24.0888 54.7447 24.1656 54.5451 24.3268 54.3915C24.4881 54.238 24.6953 54.1612 24.9487 54.1612C25.202 54.1612 25.3863 54.238 25.5398 54.3838C25.6857 54.5297 25.7625 54.7293 25.7625 54.975V59.4893C26.0082 58.9749 26.3613 58.5757 26.822 58.2916C27.2826 58.0075 27.82 57.8693 28.4265 57.8693C29.1328 57.8693 29.7547 58.0536 30.2998 58.4144V58.3991ZM29.7086 64.5716C30.1078 64.0342 30.3151 63.2742 30.3151 62.2991C30.3151 61.3241 30.1155 60.5948 29.7163 60.0651C29.3171 59.543 28.7566 59.282 28.0273 59.282C27.2979 59.282 26.7375 59.543 26.346 60.0727C25.9544 60.6025 25.7548 61.3548 25.7548 62.3299C25.7548 63.3049 25.9544 64.0572 26.346 64.587C26.7375 65.1167 27.2979 65.3777 28.0273 65.3777C28.7566 65.3777 29.3017 65.109 29.7086 64.5639V64.5716ZM35.29 66.2453C34.6912 65.8844 34.2229 65.3624 33.9004 64.6868C33.578 64.0112 33.4091 63.2281 33.4091 62.3299C33.4091 61.4316 33.5703 60.6332 33.9004 59.9576C34.2229 59.282 34.6912 58.7599 35.29 58.3991C35.8888 58.0382 36.5875 57.854 37.3859 57.854C38.1844 57.854 38.8753 58.0382 39.4818 58.3991C40.0806 58.7599 40.549 59.282 40.8714 59.9576C41.1939 60.6332 41.3628 61.4239 41.3628 62.3299C41.3628 63.2204 41.2015 64.0112 40.8714 64.6868C40.549 65.3624 40.0806 65.8844 39.4818 66.2453C38.883 66.6061 38.1844 66.7904 37.3859 66.7904C36.5875 66.7904 35.8965 66.6061 35.29 66.2453ZM39.0826 64.6023C39.4741 64.088 39.6737 63.3279 39.6737 62.3299C39.6737 61.3318 39.4741 60.5871 39.0749 60.0651C38.6757 59.543 38.1153 59.282 37.3859 59.282C36.6566 59.282 36.0961 59.543 35.6969 60.0651C35.2977 60.5871 35.0981 61.3472 35.0981 62.3299C35.0981 63.3279 35.2977 64.088 35.6892 64.6023C36.0808 65.1167 36.6489 65.3777 37.3859 65.3777C38.1229 65.3777 38.6911 65.1167 39.0826 64.6023ZM44.6256 66.2453C44.0268 65.8844 43.5585 65.3624 43.236 64.6868C42.9136 64.0112 42.7447 63.2281 42.7447 62.3299C42.7447 61.4316 42.9059 60.6332 43.236 59.9576C43.5585 59.282 44.0268 58.7599 44.6256 58.3991C45.2244 58.0382 45.9231 57.854 46.7215 57.854C47.5199 57.854 48.2109 58.0382 48.8174 58.3991C49.4162 58.7599 49.8846 59.282 50.207 59.9576C50.5294 60.6332 50.6983 61.4239 50.6983 62.3299C50.6983 63.2358 50.5371 64.0112 50.207 64.6868C49.8846 65.3624 49.4162 65.8844 48.8174 66.2453C48.2186 66.6061 47.5199 66.7904 46.7215 66.7904C45.9231 66.7904 45.2321 66.6061 44.6256 66.2453ZM48.4182 64.6023C48.8097 64.088 49.0093 63.3279 49.0093 62.3299C49.0093 61.3395 48.8097 60.5871 48.4105 60.0651C48.0113 59.543 47.4509 59.282 46.7215 59.282C45.9922 59.282 45.4317 59.543 45.0325 60.0651C44.6333 60.5871 44.4337 61.3472 44.4337 62.3299C44.4337 63.3126 44.6333 64.088 45.0248 64.6023C45.4164 65.1167 45.9845 65.3777 46.7215 65.3777C47.4585 65.3777 48.0266 65.1167 48.4182 64.6023ZM59.6347 65.9305C59.6347 66.1531 59.5656 66.3451 59.4198 66.514C59.2739 66.6752 59.105 66.7597 58.9054 66.7597C58.6981 66.7597 58.5062 66.6752 58.3449 66.514L54.2222 62.6369V65.8998C54.2222 66.1839 54.1455 66.3988 53.9919 66.5447C53.8384 66.6906 53.6388 66.7673 53.3931 66.7673C53.1474 66.7673 52.9478 66.6906 52.7866 66.5447C52.6253 66.3988 52.5486 66.1839 52.5486 65.8998V55.0211C52.5486 54.737 52.6253 54.522 52.7866 54.3762C52.9478 54.2303 53.1474 54.1535 53.3931 54.1535C53.6388 54.1535 53.8307 54.2303 53.9919 54.3762C54.1455 54.522 54.2222 54.737 54.2222 55.0211V61.9306L57.9995 58.1764C58.1837 57.9999 58.368 57.9154 58.5445 57.9154C58.7518 57.9154 58.9361 57.9999 59.0896 58.1611C59.2432 58.3223 59.3199 58.5219 59.3199 58.7446C59.3199 58.9672 59.2278 59.1745 59.0359 59.3587L56.0878 62.23L59.3353 65.2779C59.5349 65.4545 59.6347 65.6695 59.6347 65.9305Z" fill="#00B2E0"></path><path d="M66.9742 58.0306C67.0945 57.9497 67.2362 57.9069 67.3811 57.9077C67.5884 57.9077 67.7727 57.9845 67.9339 58.1381C68.0951 58.2916 68.1719 58.4759 68.1719 58.6832C68.1719 58.7983 68.1489 58.9135 68.1028 59.021L63.5041 69.4237C63.435 69.5849 63.3429 69.7154 63.2124 69.7999C63.0818 69.8843 62.9513 69.9304 62.8055 69.9304C62.6058 69.9304 62.4293 69.8613 62.268 69.7154C62.1908 69.651 62.1292 69.5698 62.088 69.478C62.0468 69.3862 62.0269 69.2863 62.0301 69.1857C62.0301 69.0936 62.0608 68.9707 62.1145 68.8325L63.2584 66.2376L60.0647 59.0056C60.0175 58.9074 59.9939 58.7997 59.9956 58.6908C59.9956 58.4682 60.08 58.2763 60.2643 58.1227C60.4408 57.9692 60.6405 57.8924 60.8631 57.8924C61.1932 57.8924 61.4312 58.0536 61.5771 58.3837L64.1413 64.4488L66.6902 58.3991C66.7593 58.2225 66.8514 58.092 66.9819 58.0075L66.9742 58.0306ZM70.8513 66.2453C70.2524 65.8845 69.7841 65.3624 69.4617 64.6868C69.1392 64.0112 68.9703 63.2281 68.9703 62.3299C68.9703 61.4239 69.1316 60.6332 69.4617 59.9576C69.7841 59.282 70.2524 58.7599 70.8513 58.3991C71.4501 58.0383 72.1487 57.854 72.9472 57.854C73.7456 57.854 74.4366 58.0383 75.0431 58.3991C75.6419 58.7599 76.1102 59.282 76.4327 59.9576C76.7551 60.6332 76.924 61.4239 76.924 62.3299C76.924 63.2358 76.7628 64.0112 76.4327 64.6868C76.1102 65.3624 75.6419 65.8845 75.0431 66.2453C74.4442 66.6061 73.7456 66.7904 72.9472 66.7904C72.1487 66.7904 71.4578 66.6061 70.8513 66.2453ZM74.6439 64.6023C75.0354 64.088 75.235 63.3279 75.235 62.3299C75.235 61.3395 75.0354 60.5871 74.6362 60.0651C74.237 59.543 73.6765 59.282 72.9472 59.282C72.2178 59.282 71.6574 59.543 71.2582 60.0651C70.8589 60.5871 70.6593 61.3472 70.6593 62.3299C70.6593 63.3126 70.8589 64.088 71.2505 64.6023C71.642 65.1167 72.2101 65.3778 72.9472 65.3778C73.6842 65.3778 74.2523 65.1167 74.6439 64.6023ZM85.6377 58.115C85.7836 58.2686 85.8604 58.4759 85.8604 58.7522V65.9305C85.8604 66.1762 85.7836 66.3758 85.6301 66.5294C85.4765 66.6829 85.2692 66.7597 85.0159 66.7597C84.7856 66.7597 84.5936 66.6829 84.4554 66.537C84.3096 66.3912 84.2405 66.1915 84.2405 65.9459V65.2779C83.9871 65.7693 83.634 66.1455 83.1887 66.4065C82.7434 66.6675 82.2444 66.7981 81.6916 66.7981C79.7262 66.7981 78.7435 65.6465 78.7435 63.3433V58.7599C78.7435 58.4912 78.8203 58.2763 78.9662 58.1227C79.112 57.9692 79.3193 57.8924 79.588 57.8924C79.8567 57.8924 80.041 57.9692 80.1945 58.1227C80.3404 58.2763 80.4172 58.4835 80.4172 58.7599V63.3279C80.4172 64.0189 80.5477 64.5333 80.8164 64.8634C81.0774 65.1935 81.492 65.3547 82.0448 65.3547C82.6973 65.3547 83.2194 65.1321 83.6109 64.6868C84.0025 64.2415 84.2021 63.6427 84.2021 62.9057V58.7599C84.2021 58.4989 84.2789 58.2916 84.4324 58.1304C84.586 57.9692 84.7932 57.8924 85.0466 57.8924C85.2999 57.8924 85.4995 57.9692 85.6531 58.1227L85.6377 58.115Z" fill="white"></path></svg>