<svg xmlns="http://www.w3.org/2000/svg" width="64" height="57" viewBox="0 0 64 57" fill="none"><path d="M45.4895 4.77725C45.2155 3.52023 44.3615 2.5704 43.3048 2.36274C34.7833 0.686705 26.209 0.686705 17.6876 2.36274C16.6309 2.5704 15.7781 3.52023 15.5028 4.77725C14.6796 8.54095 14.2679 12.3145 14.2679 16.088H19.7077C19.7077 13.3724 19.9805 10.6569 20.5273 7.94745C20.7103 7.04186 21.278 6.35867 21.9809 6.20999C27.6467 5.00334 33.3469 5.00334 39.0115 6.20999C39.7144 6.35867 40.282 7.04186 40.4651 7.94745C41.0119 10.6569 41.2859 13.3724 41.2859 16.088H46.7244C46.7244 12.3145 46.3128 8.54095 45.4895 4.77725Z" fill="url(#paint0_linear_87_343)"></path><path d="M43.3049 2.36276C39.4859 1.61162 35.6565 1.19826 31.8258 1.12036V5.32788C34.224 5.40726 36.6209 5.70069 39.0116 6.21001C39.7144 6.35869 40.2821 7.04188 40.4652 7.94748C41.012 10.6569 41.286 13.3725 41.286 16.088H46.7245C46.7245 12.3145 46.3129 8.54097 45.4896 4.77728C45.2156 3.52025 44.3616 2.57042 43.3049 2.36276Z" fill="url(#paint1_linear_87_343)"></path><path d="M43.3049 2.36276C39.4859 1.61162 35.6565 1.19826 31.8258 1.12036V5.32788C34.224 5.40726 36.6209 5.70069 39.0116 6.21001C39.7144 6.35869 40.2821 7.04188 40.4652 7.94748C41.012 10.6569 41.286 13.3725 41.286 16.088H46.7245C46.7245 12.3145 46.3129 8.54097 45.4896 4.77728C45.2156 3.52025 44.3616 2.57042 43.3049 2.36276Z" fill="url(#paint2_linear_87_343)"></path><path d="M40.4652 7.94742C41.012 10.6568 41.286 13.3724 41.286 16.088H46.7245C46.7245 12.9923 46.447 9.89661 45.8929 6.8064H39.9423C40.1903 7.10757 40.3748 7.50016 40.4652 7.94742Z" fill="url(#paint3_linear_87_343)"></path><path d="M20.5273 7.94742C20.6177 7.50016 20.8021 7.10757 21.0502 6.8064H15.0996C14.5455 9.89661 14.2679 12.9923 14.2679 16.088H19.7077C19.7077 13.3724 19.9805 10.6568 20.5273 7.94742Z" fill="url(#paint4_linear_87_343)"></path><path d="M20.7343 16.5848C18.0106 16.9818 15.2703 16.9818 12.5466 16.5848C12.2088 16.5355 11.9359 16.3107 11.848 16.0129C11.3219 14.2297 11.3218 12.4369 11.848 10.6536C11.9359 10.3558 12.2088 10.1308 12.5466 10.0817C15.2703 9.68468 18.0106 9.68468 20.7343 10.0817C21.0721 10.131 21.345 10.3558 21.4329 10.6536C21.9591 12.4369 21.959 14.2297 21.4329 16.0129C21.345 16.3107 21.0721 16.5355 20.7343 16.5848Z" fill="url(#paint5_linear_87_343)"></path><path d="M20.7343 16.5848C18.0106 16.9818 15.2703 16.9818 12.5466 16.5848C12.2088 16.5355 11.9359 16.3107 11.848 16.0129C11.3219 14.2297 11.3218 12.4369 11.848 10.6536C11.9359 10.3558 12.2088 10.1308 12.5466 10.0817C15.2703 9.68468 18.0106 9.68468 20.7343 10.0817C21.0721 10.131 21.345 10.3558 21.4329 10.6536C21.9591 12.4369 21.959 14.2297 21.4329 16.0129C21.345 16.3107 21.0721 16.5355 20.7343 16.5848Z" fill="url(#paint6_linear_87_343)"></path><path d="M21.4329 10.6533C21.345 10.3556 21.0721 10.1306 20.7343 10.0814C19.1158 9.84551 17.4912 9.74979 15.8678 9.79428C16.9761 9.82463 18.084 9.92035 19.1891 10.0814C19.5269 10.1307 19.7998 10.3556 19.8877 10.6533C20.414 12.4366 20.4138 14.2295 19.8877 16.0127C19.7998 16.3104 19.5269 16.5354 19.1891 16.5845C18.0841 16.7456 16.9763 16.8413 15.8678 16.8717C17.4911 16.9162 19.1157 16.8205 20.7342 16.5845C21.072 16.5353 21.3449 16.3104 21.4327 16.0127C21.9591 14.2295 21.9591 12.4366 21.4329 10.6533Z" fill="url(#paint7_linear_87_343)"></path><path d="M20.7342 10.0815C20.161 9.99794 19.5871 9.93232 19.0127 9.88403V10.0566C19.0714 10.0648 19.1303 10.073 19.189 10.0816C19.5268 10.1309 19.7997 10.3558 19.8876 10.6535C20.4139 12.4368 20.4137 14.2297 19.8876 16.0128C19.7997 16.3106 19.5268 16.5356 19.189 16.5847C19.1303 16.5933 19.0714 16.6015 19.0127 16.6098V16.7823C19.587 16.7339 20.161 16.6684 20.7342 16.5848C21.072 16.5356 21.3449 16.3107 21.4327 16.013C21.9589 14.2298 21.959 12.4369 21.4327 10.6536C21.3449 10.3556 21.072 10.1308 20.7342 10.0815Z" fill="url(#paint8_linear_87_343)"></path><path d="M11.848 16.0127C11.9359 16.3104 12.2088 16.5354 12.5466 16.5846C15.2703 16.9816 18.0107 16.9816 20.7343 16.5846C21.0721 16.5353 21.345 16.3104 21.4329 16.0127C21.6959 15.1211 21.8275 14.2271 21.8275 13.333H11.4535C11.4535 14.2269 11.585 15.121 11.848 16.0127Z" fill="url(#paint9_linear_87_343)"></path><path d="M48.4463 16.5848C45.7227 16.9818 42.9823 16.9818 40.2586 16.5848C39.9208 16.5355 39.6479 16.3107 39.5601 16.0129C39.0339 14.2297 39.0338 12.4369 39.5601 10.6536C39.6479 10.3558 39.9208 10.1308 40.2586 10.0817C42.9823 9.68468 45.7227 9.68468 48.4463 10.0817C48.7841 10.131 49.057 10.3558 49.1449 10.6536C49.6712 12.4369 49.671 14.2297 49.1449 16.0129C49.0569 16.3107 48.784 16.5355 48.4463 16.5848Z" fill="url(#paint10_linear_87_343)"></path><path d="M48.4463 16.5848C45.7227 16.9818 42.9823 16.9818 40.2586 16.5848C39.9208 16.5355 39.6479 16.3107 39.5601 16.0129C39.0339 14.2297 39.0338 12.4369 39.5601 10.6536C39.6479 10.3558 39.9208 10.1308 40.2586 10.0817C42.9823 9.68468 45.7227 9.68468 48.4463 10.0817C48.7841 10.131 49.057 10.3558 49.1449 10.6536C49.6712 12.4369 49.671 14.2297 49.1449 16.0129C49.0569 16.3107 48.784 16.5355 48.4463 16.5848Z" fill="url(#paint11_linear_87_343)"></path><path d="M49.1449 10.6533C49.057 10.3556 48.7841 10.1306 48.4463 10.0814C46.8278 9.84551 45.2033 9.74979 43.5798 9.79428C44.6882 9.82463 45.796 9.92035 46.9012 10.0814C47.239 10.1307 47.5119 10.3556 47.5997 10.6533C48.126 12.4366 48.1259 14.2295 47.5997 16.0127C47.5119 16.3104 47.239 16.5354 46.9012 16.5845C45.7961 16.7456 44.6883 16.8413 43.5798 16.8717C45.2031 16.9162 46.8277 16.8205 48.4462 16.5845C48.784 16.5353 49.0569 16.3104 49.1448 16.0127C49.671 14.2295 49.671 12.4366 49.1449 10.6533Z" fill="url(#paint12_linear_87_343)"></path><path d="M48.4463 10.0815C47.8731 9.99794 47.2993 9.93232 46.7249 9.88403V10.0566C46.7836 10.0648 46.8424 10.073 46.9012 10.0816C47.239 10.1309 47.5119 10.3558 47.5997 10.6535C48.126 12.4368 48.1259 14.2297 47.5997 16.0128C47.5119 16.3106 47.239 16.5356 46.9012 16.5847C46.8424 16.5933 46.7836 16.6015 46.7249 16.6098V16.7823C47.2992 16.7339 47.8731 16.6684 48.4463 16.5848C48.7841 16.5356 49.057 16.3107 49.1449 16.013C49.6711 14.2298 49.6712 12.4369 49.1449 10.6536C49.0569 10.3556 48.784 10.1308 48.4463 10.0815Z" fill="url(#paint13_linear_87_343)"></path><path d="M39.5601 16.0127C39.6479 16.3104 39.9208 16.5354 40.2586 16.5846C42.9823 16.9816 45.7227 16.9816 48.4464 16.5846C48.7841 16.5353 49.0571 16.3104 49.1449 16.0127C49.408 15.1211 49.5396 14.2271 49.5396 13.333H39.1654C39.1654 14.2269 39.2969 15.121 39.5601 16.0127Z" fill="url(#paint14_linear_87_343)"></path><path d="M58.4442 56.062H51.8528V12.958H58.4442C61.3169 12.958 63.6458 15.2869 63.6458 18.1596V50.8602C63.6458 53.7331 61.3169 56.062 58.4442 56.062Z" fill="url(#paint15_linear_87_343)"></path><path d="M51.8528 30.4736V56.062H58.4442C61.3169 56.062 63.6458 53.7331 63.6458 50.8604V30.4736H51.8528Z" fill="url(#paint16_linear_87_343)"></path><path d="M58.4442 12.958H51.8528V56.0618H58.4442C61.3169 56.0618 63.6458 53.733 63.6458 50.8602V18.1597C63.6458 15.2869 61.3169 12.958 58.4442 12.958Z" fill="url(#paint17_linear_87_343)"></path><path d="M58.4442 12.958H51.8528V56.0618H58.4442C61.3169 56.0618 63.6458 53.733 63.6458 50.8602V18.1597C63.6458 15.2869 61.3169 12.958 58.4442 12.958Z" fill="url(#paint18_linear_87_343)"></path><path d="M53.9515 56.0621H7.04168C4.16896 56.0621 1.84009 53.7332 1.84009 50.8605V18.1598C1.84009 15.2871 4.16896 12.9583 7.04168 12.9583H53.9516C56.8243 12.9583 59.1532 15.2871 59.1532 18.1598V50.8605C59.1532 53.7332 56.8243 56.0621 53.9515 56.0621Z" fill="url(#paint19_linear_87_343)"></path><path d="M1.83984 30.4736V50.8602C1.83984 53.733 4.16871 56.0618 7.04143 56.0618H53.9513C56.8241 56.0618 59.1529 53.733 59.1529 50.8602V30.4736H1.83984Z" fill="url(#paint20_linear_87_343)"></path><path d="M1.83984 30.4736V50.8602C1.83984 53.733 4.16871 56.0618 7.04143 56.0618H53.9513C56.8241 56.0618 59.1529 53.733 59.1529 50.8602V30.4736H1.83984Z" fill="url(#paint21_linear_87_343)"></path><path d="M56.1282 39.107H4.73265C2.52383 39.107 0.733154 37.3165 0.733154 35.1077V16.9031C0.733154 13.9325 3.14128 11.5244 6.11181 11.5244H58.2672C61.2377 11.5244 63.6458 13.9325 63.6458 16.9031V19.5486C63.6458 19.1329 63.4986 18.7306 63.2303 18.4131C62.1722 17.1612 60.1278 17.9094 60.1278 19.5486V35.1075C60.1276 37.3165 58.337 39.107 56.1282 39.107Z" fill="url(#paint22_linear_87_343)"></path><path d="M58.2671 11.5247H48.1334V39.1071H56.1282C58.3371 39.1071 60.1277 37.3165 60.1277 35.1077V19.5487C60.1277 17.9095 62.1721 17.1614 63.2302 18.4132C63.4986 18.7307 63.6458 19.133 63.6458 19.5487V16.9032C63.6458 13.9327 61.2377 11.5247 58.2671 11.5247Z" fill="url(#paint23_linear_87_343)"></path><path d="M18.4493 35.9849L8.41016 41.9654L22.5067 56.062H38.5263L18.4493 35.9849Z" fill="url(#paint24_linear_87_343)"></path><path d="M59.1531 50.8602V46.4973L48.6407 35.9849L38.6145 41.9671L52.7094 56.0618H53.9516C56.8242 56.062 59.1531 53.7331 59.1531 50.8602Z" fill="url(#paint25_linear_87_343)"></path><path d="M17.8459 42.1848C14.8785 42.5818 11.893 42.5818 8.92567 42.1848C8.55766 42.1355 8.26042 41.9106 8.16458 41.6129C7.59136 39.8297 7.59124 38.0368 8.16458 36.2534C8.2603 35.9557 8.55766 35.7307 8.92567 35.6815C11.893 35.2845 14.8785 35.2845 17.8459 35.6815C18.2139 35.7308 18.5111 35.9557 18.607 36.2534C19.1803 38.0367 19.1802 39.8296 18.607 41.6128C18.5111 41.9106 18.2138 42.1355 17.8459 42.1848Z" fill="url(#paint26_linear_87_343)"></path><path d="M14.2236 37.2226L13.9929 37.27C12.8102 37.5135 11.5903 37.5135 10.4075 37.27L10.1767 37.2226C9.67328 37.119 9.32751 37.7158 9.66788 38.101L11.7992 40.5132C12.0121 40.7543 12.3881 40.7543 12.6012 40.5132L14.7325 38.101C15.0727 37.7157 14.7271 37.1189 14.2236 37.2226Z" fill="url(#paint27_linear_87_343)"></path><path d="M18.6069 36.2534C18.5112 35.9557 18.2138 35.7307 17.8458 35.6815C16.0824 35.4456 14.3126 35.3499 12.5439 35.3944C13.7514 35.4247 14.9585 35.5204 16.1624 35.6815C16.5304 35.7308 16.8277 35.9557 16.9235 36.2534C17.4968 38.0367 17.4967 39.8296 16.9235 41.6128C16.8278 41.9105 16.5304 42.1355 16.1624 42.1846C14.9585 42.3457 13.7516 42.4414 12.5441 42.4718C14.3126 42.5163 16.0825 42.4206 17.8458 42.1846C18.2138 42.1354 18.5111 41.9105 18.6069 41.6128C19.1802 39.8296 19.1802 38.0367 18.6069 36.2534Z" fill="url(#paint28_linear_87_343)"></path><path d="M17.8459 35.6816C17.2215 35.598 16.5961 35.5324 15.9705 35.4841V35.6566C16.0345 35.6649 16.0985 35.6731 16.1625 35.6817C16.5305 35.731 16.8278 35.9559 16.9236 36.2536C17.4969 38.0369 17.4968 39.8298 16.9236 41.6129C16.8279 41.9107 16.5305 42.1357 16.1625 42.1848C16.0985 42.1934 16.0345 42.2016 15.9705 42.2099V42.3824C16.5961 42.334 17.2215 42.2685 17.8459 42.1849C18.2139 42.1357 18.5112 41.9108 18.607 41.6131C19.1802 39.8299 19.1804 38.037 18.607 36.2537C18.5112 35.9557 18.2138 35.7309 17.8459 35.6816Z" fill="url(#paint29_linear_87_343)"></path><path d="M8.16456 41.613C8.26028 41.9108 8.55764 42.1357 8.92566 42.1849C11.893 42.5819 14.8785 42.5819 17.8458 42.1849C18.2139 42.1356 18.5111 41.9108 18.6069 41.613C18.8936 40.7214 19.0369 39.8274 19.0369 38.9333H7.73462C7.73462 39.8273 7.87802 40.7213 8.16456 41.613Z" fill="url(#paint30_linear_87_343)"></path><path d="M48.037 42.1848C45.0697 42.5818 42.0842 42.5818 39.1168 42.1848C38.7488 42.1355 38.4516 41.9106 38.3557 41.6129C37.7825 39.8297 37.7824 38.0368 38.3557 36.2534C38.4515 35.9557 38.7488 35.7307 39.1168 35.6815C42.084 35.2845 45.0697 35.2845 48.037 35.6815C48.405 35.7308 48.7023 35.9557 48.7981 36.2534C49.3715 38.0367 49.3713 39.8296 48.7981 41.6128C48.7023 41.9106 48.4049 42.1355 48.037 42.1848Z" fill="url(#paint31_linear_87_343)"></path><path d="M44.4147 37.2226L44.1839 37.27C43.0012 37.5135 41.7813 37.5135 40.5985 37.27L40.3677 37.2226C39.8643 37.119 39.5185 37.7158 39.8589 38.101L41.9902 40.5132C42.2031 40.7543 42.5791 40.7543 42.7922 40.5132L44.9235 38.101C45.2637 37.7157 44.9181 37.1189 44.4147 37.2226Z" fill="url(#paint32_linear_87_343)"></path><path d="M48.7981 36.2534C48.7023 35.9557 48.405 35.7307 48.037 35.6815C46.2736 35.4456 44.5038 35.3499 42.7351 35.3944C43.9426 35.4247 45.1496 35.5204 46.3536 35.6815C46.7216 35.7308 47.0188 35.9557 47.1147 36.2534C47.688 38.0367 47.6879 39.8296 47.1147 41.6128C47.0189 41.9105 46.7216 42.1355 46.3536 42.1846C45.1496 42.3457 43.9427 42.4414 42.7351 42.4718C44.5037 42.5163 46.2736 42.4206 48.0368 42.1846C48.4049 42.1354 48.7021 41.9105 48.7979 41.6128C49.3714 39.8296 49.3714 38.0367 48.7981 36.2534Z" fill="url(#paint33_linear_87_343)"></path><path d="M48.037 35.6816C47.4125 35.598 46.7872 35.5324 46.1615 35.4841V35.6566C46.2255 35.6649 46.2895 35.6731 46.3536 35.6817C46.7216 35.731 47.0188 35.9559 47.1146 36.2536C47.688 38.0369 47.6879 39.8298 47.1146 41.6129C47.0189 41.9107 46.7216 42.1357 46.3536 42.1848C46.2895 42.1934 46.2255 42.2016 46.1615 42.2099V42.3824C46.7872 42.334 47.4125 42.2685 48.037 42.1849C48.405 42.1357 48.7022 41.9108 48.7981 41.6131C49.3713 39.8299 49.3714 38.037 48.7981 36.2537C48.7022 35.9557 48.4048 35.7309 48.037 35.6816Z" fill="url(#paint34_linear_87_343)"></path><path d="M38.3556 41.613C38.4513 41.9108 38.7487 42.1357 39.1167 42.1849C42.084 42.5819 45.0696 42.5819 48.0369 42.1849C48.4049 42.1356 48.7021 41.9108 48.798 41.613C49.0847 40.7214 49.2279 39.8274 49.2279 38.9333H37.9258C37.9257 39.8273 38.0691 40.7213 38.3556 41.613Z" fill="url(#paint35_linear_87_343)"></path><path d="M22.0481 6.88214C27.6752 6.15385 33.3176 6.15385 38.9447 6.88214C39.5469 6.96004 40.0802 6.49151 40.0802 5.88438V1.57942C40.0802 1.0728 39.7035 0.646912 39.2013 0.579944C33.4036 -0.193315 27.5892 -0.193315 21.7914 0.579944C21.2892 0.646912 20.9126 1.07268 20.9126 1.57942V5.88438C20.9125 6.49151 21.4459 6.96004 22.0481 6.88214Z" fill="url(#paint36_linear_87_343)"></path><path d="M22.0481 6.88214C27.6752 6.15385 33.3176 6.15385 38.9447 6.88214C39.5469 6.96004 40.0802 6.49151 40.0802 5.88438V1.57942C40.0802 1.0728 39.7035 0.646912 39.2013 0.579944C33.4036 -0.193315 27.5892 -0.193315 21.7914 0.579944C21.2892 0.646912 20.9126 1.07268 20.9126 1.57942V5.88438C20.9125 6.49151 21.4459 6.96004 22.0481 6.88214Z" fill="url(#paint37_linear_87_343)"></path><path d="M39.2014 0.580018C36.9539 0.280323 34.7042 0.0982207 32.4537 0.0307617V6.36625C34.6184 6.43101 36.7827 6.6023 38.9447 6.88209C39.5469 6.95999 40.0802 6.49146 40.0802 5.88433V1.57949C40.0802 1.07287 39.7035 0.646985 39.2014 0.580018Z" fill="url(#paint38_linear_87_343)"></path><defs><linearGradient id="paint0_linear_87_343" x1="28.7668" y1="1.81053" x2="30.7815" y2="16.3513" gradientUnits="userSpaceOnUse"><stop stop-color="#EAF9FA"></stop><stop offset="1" stop-color="#B3DAFE"></stop></linearGradient><linearGradient id="paint1_linear_87_343" x1="42.234" y1="8.22481" x2="45.6502" y2="7.78688" gradientUnits="userSpaceOnUse"><stop stop-color="#7BACDF" stop-opacity="0"></stop><stop offset="1" stop-color="#7BACDF"></stop></linearGradient><linearGradient id="paint2_linear_87_343" x1="42.524" y1="9.29174" x2="37.5311" y2="7.62751" gradientUnits="userSpaceOnUse"><stop stop-color="#7BACDF" stop-opacity="0"></stop><stop offset="1" stop-color="#7BACDF"></stop></linearGradient><linearGradient id="paint3_linear_87_343" x1="43.3334" y1="7.80501" x2="43.3334" y2="10.2144" gradientUnits="userSpaceOnUse"><stop stop-color="#7BACDF" stop-opacity="0"></stop><stop offset="1" stop-color="#7BACDF"></stop></linearGradient><linearGradient id="paint4_linear_87_343" x1="17.6591" y1="7.80501" x2="17.6591" y2="10.2144" gradientUnits="userSpaceOnUse"><stop stop-color="#7BACDF" stop-opacity="0"></stop><stop offset="1" stop-color="#7BACDF"></stop></linearGradient><linearGradient id="paint5_linear_87_343" x1="14.837" y1="10.3311" x2="18.4358" y2="16.3216" gradientUnits="userSpaceOnUse"><stop stop-color="#FEF0AE"></stop><stop offset="1" stop-color="#FBC56D"></stop></linearGradient><linearGradient id="paint6_linear_87_343" x1="16.6404" y1="10.1703" x2="16.6404" y2="11.7494" gradientUnits="userSpaceOnUse"><stop stop-color="#DC8758" stop-opacity="0"></stop><stop offset="0.2153" stop-color="#DD8654" stop-opacity="0.215"></stop><stop offset="0.4291" stop-color="#E28448" stop-opacity="0.429"></stop><stop offset="0.6424" stop-color="#EA8034" stop-opacity="0.642"></stop><stop offset="0.8543" stop-color="#F47B18" stop-opacity="0.854"></stop><stop offset="1" stop-color="#FE7701"></stop></linearGradient><linearGradient id="paint7_linear_87_343" x1="12.509" y1="7.8709" x2="23.6011" y2="18.3856" gradientUnits="userSpaceOnUse"><stop stop-color="#DC8758" stop-opacity="0"></stop><stop offset="0.2153" stop-color="#DD8654" stop-opacity="0.215"></stop><stop offset="0.4291" stop-color="#E28448" stop-opacity="0.429"></stop><stop offset="0.6424" stop-color="#EA8034" stop-opacity="0.642"></stop><stop offset="0.8543" stop-color="#F47B18" stop-opacity="0.854"></stop><stop offset="1" stop-color="#FE7701"></stop></linearGradient><linearGradient id="paint8_linear_87_343" x1="20.4452" y1="13.333" x2="21.6367" y2="13.333" gradientUnits="userSpaceOnUse"><stop stop-color="#DC8758" stop-opacity="0"></stop><stop offset="0.2153" stop-color="#DD8654" stop-opacity="0.215"></stop><stop offset="0.4291" stop-color="#E28448" stop-opacity="0.429"></stop><stop offset="0.6424" stop-color="#EA8034" stop-opacity="0.642"></stop><stop offset="0.8543" stop-color="#F47B18" stop-opacity="0.854"></stop><stop offset="1" stop-color="#FE7701"></stop></linearGradient><linearGradient id="paint9_linear_87_343" x1="16.6405" y1="14.8561" x2="16.6405" y2="16.9286" gradientUnits="userSpaceOnUse"><stop stop-color="#DC8758" stop-opacity="0"></stop><stop offset="0.2153" stop-color="#DD8654" stop-opacity="0.215"></stop><stop offset="0.4291" stop-color="#E28448" stop-opacity="0.429"></stop><stop offset="0.6424" stop-color="#EA8034" stop-opacity="0.642"></stop><stop offset="0.8543" stop-color="#F47B18" stop-opacity="0.854"></stop><stop offset="1" stop-color="#FE7701"></stop></linearGradient><linearGradient id="paint10_linear_87_343" x1="42.5489" y1="10.3311" x2="46.1478" y2="16.3216" gradientUnits="userSpaceOnUse"><stop stop-color="#FEF0AE"></stop><stop offset="1" stop-color="#FBC56D"></stop></linearGradient><linearGradient id="paint11_linear_87_343" x1="44.3525" y1="10.1703" x2="44.3525" y2="11.7494" gradientUnits="userSpaceOnUse"><stop stop-color="#DC8758" stop-opacity="0"></stop><stop offset="0.2153" stop-color="#DD8654" stop-opacity="0.215"></stop><stop offset="0.4291" stop-color="#E28448" stop-opacity="0.429"></stop><stop offset="0.6424" stop-color="#EA8034" stop-opacity="0.642"></stop><stop offset="0.8543" stop-color="#F47B18" stop-opacity="0.854"></stop><stop offset="1" stop-color="#FE7701"></stop></linearGradient><linearGradient id="paint12_linear_87_343" x1="40.2209" y1="7.8709" x2="51.313" y2="18.3856" gradientUnits="userSpaceOnUse"><stop stop-color="#DC8758" stop-opacity="0"></stop><stop offset="0.2153" stop-color="#DD8654" stop-opacity="0.215"></stop><stop offset="0.4291" stop-color="#E28448" stop-opacity="0.429"></stop><stop offset="0.6424" stop-color="#EA8034" stop-opacity="0.642"></stop><stop offset="0.8543" stop-color="#F47B18" stop-opacity="0.854"></stop><stop offset="1" stop-color="#FE7701"></stop></linearGradient><linearGradient id="paint13_linear_87_343" x1="48.1572" y1="13.333" x2="49.3488" y2="13.333" gradientUnits="userSpaceOnUse"><stop stop-color="#DC8758" stop-opacity="0"></stop><stop offset="0.2153" stop-color="#DD8654" stop-opacity="0.215"></stop><stop offset="0.4291" stop-color="#E28448" stop-opacity="0.429"></stop><stop offset="0.6424" stop-color="#EA8034" stop-opacity="0.642"></stop><stop offset="0.8543" stop-color="#F47B18" stop-opacity="0.854"></stop><stop offset="1" stop-color="#FE7701"></stop></linearGradient><linearGradient id="paint14_linear_87_343" x1="44.3525" y1="14.8561" x2="44.3525" y2="16.9286" gradientUnits="userSpaceOnUse"><stop stop-color="#DC8758" stop-opacity="0"></stop><stop offset="0.2153" stop-color="#DD8654" stop-opacity="0.215"></stop><stop offset="0.4291" stop-color="#E28448" stop-opacity="0.429"></stop><stop offset="0.6424" stop-color="#EA8034" stop-opacity="0.642"></stop><stop offset="0.8543" stop-color="#F47B18" stop-opacity="0.854"></stop><stop offset="1" stop-color="#FE7701"></stop></linearGradient><linearGradient id="paint15_linear_87_343" x1="52.3882" y1="15.9701" x2="62.1011" y2="53.6699" gradientUnits="userSpaceOnUse"><stop stop-color="#C86D36"></stop><stop offset="0.201" stop-color="#C46B35"></stop><stop offset="0.4143" stop-color="#B76233"></stop><stop offset="0.6334" stop-color="#A2552F"></stop><stop offset="0.8549" stop-color="#85422A"></stop><stop offset="1" stop-color="#6D3326"></stop></linearGradient><linearGradient id="paint16_linear_87_343" x1="57.7494" y1="51.9433" x2="57.7494" y2="55.718" gradientUnits="userSpaceOnUse"><stop stop-color="#3A0F13" stop-opacity="0"></stop><stop offset="0.2722" stop-color="#3E1215" stop-opacity="0.272"></stop><stop offset="0.5611" stop-color="#4B1B19" stop-opacity="0.561"></stop><stop offset="0.8568" stop-color="#602A21" stop-opacity="0.857"></stop><stop offset="1" stop-color="#6D3326"></stop></linearGradient><linearGradient id="paint17_linear_87_343" x1="23.2075" y1="6.38659" x2="80.2344" y2="55.1323" gradientUnits="userSpaceOnUse"><stop stop-color="#3A0F13" stop-opacity="0"></stop><stop offset="0.2722" stop-color="#3E1215" stop-opacity="0.272"></stop><stop offset="0.5611" stop-color="#4B1B19" stop-opacity="0.561"></stop><stop offset="0.8568" stop-color="#602A21" stop-opacity="0.857"></stop><stop offset="1" stop-color="#6D3326"></stop></linearGradient><linearGradient id="paint18_linear_87_343" x1="50.8281" y1="33.6834" x2="64.0065" y2="36.0738" gradientUnits="userSpaceOnUse"><stop stop-color="#3A0F13" stop-opacity="0"></stop><stop offset="0.2722" stop-color="#3E1215" stop-opacity="0.272"></stop><stop offset="0.5611" stop-color="#4B1B19" stop-opacity="0.561"></stop><stop offset="0.8568" stop-color="#602A21" stop-opacity="0.857"></stop><stop offset="1" stop-color="#6D3326"></stop></linearGradient><linearGradient id="paint19_linear_87_343" x1="24.7278" y1="12.1199" x2="36.7214" y2="58.6709" gradientUnits="userSpaceOnUse"><stop stop-color="#C86D36"></stop><stop offset="0.201" stop-color="#C46B35"></stop><stop offset="0.4143" stop-color="#B76233"></stop><stop offset="0.6334" stop-color="#A2552F"></stop><stop offset="0.8549" stop-color="#85422A"></stop><stop offset="1" stop-color="#6D3326"></stop></linearGradient><linearGradient id="paint20_linear_87_343" x1="30.4964" y1="51.9433" x2="30.4964" y2="55.718" gradientUnits="userSpaceOnUse"><stop stop-color="#3A0F13" stop-opacity="0"></stop><stop offset="0.2722" stop-color="#3E1215" stop-opacity="0.272"></stop><stop offset="0.5611" stop-color="#4B1B19" stop-opacity="0.561"></stop><stop offset="0.8568" stop-color="#602A21" stop-opacity="0.857"></stop><stop offset="1" stop-color="#6D3326"></stop></linearGradient><linearGradient id="paint21_linear_87_343" x1="30.4964" y1="47.29" x2="30.4964" y2="36.9318" gradientUnits="userSpaceOnUse"><stop stop-color="#3A0F13" stop-opacity="0"></stop><stop offset="0.2722" stop-color="#3E1215" stop-opacity="0.272"></stop><stop offset="0.5611" stop-color="#4B1B19" stop-opacity="0.561"></stop><stop offset="0.8568" stop-color="#602A21" stop-opacity="0.857"></stop><stop offset="1" stop-color="#6D3326"></stop></linearGradient><linearGradient id="paint22_linear_87_343" x1="29.7021" y1="6.54535" x2="34.6669" y2="45.2989" gradientUnits="userSpaceOnUse"><stop stop-color="#C86D36"></stop><stop offset="0.201" stop-color="#C46B35"></stop><stop offset="0.4143" stop-color="#B76233"></stop><stop offset="0.6334" stop-color="#A2552F"></stop><stop offset="0.8549" stop-color="#85422A"></stop><stop offset="1" stop-color="#6D3326"></stop></linearGradient><linearGradient id="paint23_linear_87_343" x1="57.1856" y1="25.3159" x2="64.1829" y2="25.3159" gradientUnits="userSpaceOnUse"><stop stop-color="#3A0F13" stop-opacity="0"></stop><stop offset="0.2722" stop-color="#3E1215" stop-opacity="0.272"></stop><stop offset="0.5611" stop-color="#4B1B19" stop-opacity="0.561"></stop><stop offset="0.8568" stop-color="#602A21" stop-opacity="0.857"></stop><stop offset="1" stop-color="#6D3326"></stop></linearGradient><linearGradient id="paint24_linear_87_343" x1="19.9437" y1="43.5816" x2="14.98" y2="35.9317" gradientUnits="userSpaceOnUse"><stop stop-color="#3A0F13" stop-opacity="0"></stop><stop offset="0.2722" stop-color="#3E1215" stop-opacity="0.272"></stop><stop offset="0.5611" stop-color="#4B1B19" stop-opacity="0.561"></stop><stop offset="0.8568" stop-color="#602A21" stop-opacity="0.857"></stop><stop offset="1" stop-color="#6D3326"></stop></linearGradient><linearGradient id="paint25_linear_87_343" x1="49.9862" y1="46.0216" x2="43.9422" y2="36.2111" gradientUnits="userSpaceOnUse"><stop stop-color="#3A0F13" stop-opacity="0"></stop><stop offset="0.2722" stop-color="#3E1215" stop-opacity="0.272"></stop><stop offset="0.5611" stop-color="#4B1B19" stop-opacity="0.561"></stop><stop offset="0.8568" stop-color="#602A21" stop-opacity="0.857"></stop><stop offset="1" stop-color="#6D3326"></stop></linearGradient><linearGradient id="paint26_linear_87_343" x1="11.5079" y1="35.8073" x2="15.2551" y2="42.0449" gradientUnits="userSpaceOnUse"><stop stop-color="#FEF0AE"></stop><stop offset="1" stop-color="#FBC56D"></stop></linearGradient><linearGradient id="paint27_linear_87_343" x1="12.2002" y1="39.8001" x2="12.2002" y2="36.9526" gradientUnits="userSpaceOnUse"><stop stop-color="#FEF0AE"></stop><stop offset="1" stop-color="#FBC56D"></stop></linearGradient><linearGradient id="paint28_linear_87_343" x1="9.18488" y1="33.2432" x2="20.7398" y2="44.1966" gradientUnits="userSpaceOnUse"><stop stop-color="#DC8758" stop-opacity="0"></stop><stop offset="0.2153" stop-color="#DD8654" stop-opacity="0.215"></stop><stop offset="0.4291" stop-color="#E28448" stop-opacity="0.429"></stop><stop offset="0.6424" stop-color="#EA8034" stop-opacity="0.642"></stop><stop offset="0.8543" stop-color="#F47B18" stop-opacity="0.854"></stop><stop offset="1" stop-color="#FE7701"></stop></linearGradient><linearGradient id="paint29_linear_87_343" x1="17.531" y1="38.9331" x2="18.829" y2="38.9331" gradientUnits="userSpaceOnUse"><stop stop-color="#DC8758" stop-opacity="0"></stop><stop offset="0.2153" stop-color="#DD8654" stop-opacity="0.215"></stop><stop offset="0.4291" stop-color="#E28448" stop-opacity="0.429"></stop><stop offset="0.6424" stop-color="#EA8034" stop-opacity="0.642"></stop><stop offset="0.8543" stop-color="#F47B18" stop-opacity="0.854"></stop><stop offset="1" stop-color="#FE7701"></stop></linearGradient><linearGradient id="paint30_linear_87_343" x1="13.3857" y1="40.4564" x2="13.3857" y2="42.529" gradientUnits="userSpaceOnUse"><stop stop-color="#DC8758" stop-opacity="0"></stop><stop offset="0.2153" stop-color="#DD8654" stop-opacity="0.215"></stop><stop offset="0.4291" stop-color="#E28448" stop-opacity="0.429"></stop><stop offset="0.6424" stop-color="#EA8034" stop-opacity="0.642"></stop><stop offset="0.8543" stop-color="#F47B18" stop-opacity="0.854"></stop><stop offset="1" stop-color="#FE7701"></stop></linearGradient><linearGradient id="paint31_linear_87_343" x1="41.6991" y1="35.8073" x2="45.4463" y2="42.0449" gradientUnits="userSpaceOnUse"><stop stop-color="#FEF0AE"></stop><stop offset="1" stop-color="#FBC56D"></stop></linearGradient><linearGradient id="paint32_linear_87_343" x1="42.3913" y1="39.8001" x2="42.3913" y2="36.9526" gradientUnits="userSpaceOnUse"><stop stop-color="#FEF0AE"></stop><stop offset="1" stop-color="#FBC56D"></stop></linearGradient><linearGradient id="paint33_linear_87_343" x1="39.376" y1="33.2432" x2="50.9309" y2="44.1966" gradientUnits="userSpaceOnUse"><stop stop-color="#DC8758" stop-opacity="0"></stop><stop offset="0.2153" stop-color="#DD8654" stop-opacity="0.215"></stop><stop offset="0.4291" stop-color="#E28448" stop-opacity="0.429"></stop><stop offset="0.6424" stop-color="#EA8034" stop-opacity="0.642"></stop><stop offset="0.8543" stop-color="#F47B18" stop-opacity="0.854"></stop><stop offset="1" stop-color="#FE7701"></stop></linearGradient><linearGradient id="paint34_linear_87_343" x1="47.722" y1="38.9331" x2="49.0201" y2="38.9331" gradientUnits="userSpaceOnUse"><stop stop-color="#DC8758" stop-opacity="0"></stop><stop offset="0.2153" stop-color="#DD8654" stop-opacity="0.215"></stop><stop offset="0.4291" stop-color="#E28448" stop-opacity="0.429"></stop><stop offset="0.6424" stop-color="#EA8034" stop-opacity="0.642"></stop><stop offset="0.8543" stop-color="#F47B18" stop-opacity="0.854"></stop><stop offset="1" stop-color="#FE7701"></stop></linearGradient><linearGradient id="paint35_linear_87_343" x1="43.5767" y1="40.4564" x2="43.5767" y2="42.529" gradientUnits="userSpaceOnUse"><stop stop-color="#DC8758" stop-opacity="0"></stop><stop offset="0.2153" stop-color="#DD8654" stop-opacity="0.215"></stop><stop offset="0.4291" stop-color="#E28448" stop-opacity="0.429"></stop><stop offset="0.6424" stop-color="#EA8034" stop-opacity="0.642"></stop><stop offset="0.8543" stop-color="#F47B18" stop-opacity="0.854"></stop><stop offset="1" stop-color="#FE7701"></stop></linearGradient><linearGradient id="paint36_linear_87_343" x1="30.4963" y1="1.96869" x2="30.4963" y2="5.2974" gradientUnits="userSpaceOnUse"><stop stop-color="#5A5A5A"></stop><stop offset="1" stop-color="#444444"></stop></linearGradient><linearGradient id="paint37_linear_87_343" x1="30.4963" y1="2.75706" x2="30.4963" y2="6.34959" gradientUnits="userSpaceOnUse"><stop stop-color="#433F43" stop-opacity="0"></stop><stop offset="1" stop-color="#1A1A1A"></stop></linearGradient><linearGradient id="paint38_linear_87_343" x1="35.5521" y1="3.39609" x2="38.5303" y2="4.18447" gradientUnits="userSpaceOnUse"><stop stop-color="#433F43" stop-opacity="0"></stop><stop offset="1" stop-color="#1A1A1A"></stop></linearGradient></defs></svg>