<svg xmlns="http://www.w3.org/2000/svg" width="147" height="147" viewBox="0 0 147 147" fill="none"><g filter="url(#filter0_d_106_53)"><rect x="23.1926" y="23.8192" width="91.1695" height="91.1695" rx="45.5847" fill="white"></rect></g><path d="M49.8988 66.0784V80.4484C49.8988 82.5056 51.5723 84.1791 53.6295 84.1791H55.9331C56.4297 84.1791 56.8325 83.7764 56.8325 83.2798C56.8325 82.7832 56.4297 82.3805 55.9331 82.3805H53.6295C52.5641 82.3805 51.6974 81.5137 51.6974 80.4484V66.0784C51.6974 65.013 52.5642 64.1463 53.6295 64.1463H84.7415C85.8069 64.1463 86.6736 65.0131 86.6736 66.0784V80.4484C86.6736 81.5138 85.8068 82.3805 84.7415 82.3805H80.8862L78.4499 79.9442L83.2138 77.695C83.5755 77.5244 83.7809 77.1354 83.718 76.7406C83.6551 76.3458 83.3393 76.0398 82.9426 75.9896L68.7947 74.2009C68.5189 74.1662 68.2425 74.2606 68.046 74.4572C67.8741 74.6292 67.7801 74.8624 67.7827 75.1028C67.7831 75.1371 67.7854 75.1716 67.7897 75.206L68.6968 82.3804H63.8123C63.3157 82.3804 62.913 82.7831 62.913 83.2797C62.913 83.7763 63.3157 84.179 63.8123 84.179H68.9242L69.5785 89.3534C69.6286 89.7498 69.9342 90.0656 70.3286 90.1287C70.723 90.1919 71.112 89.9872 71.2831 89.6262L73.5585 84.8313L79.5087 90.7816C79.6844 90.9571 79.9145 91.045 80.1446 91.045C80.3748 91.045 80.6049 90.9571 80.7806 90.7816L84.3979 87.1642C84.7491 86.813 84.7491 86.2436 84.3979 85.8923L82.6845 84.179H84.7415C86.7987 84.179 88.4722 82.5054 88.4722 80.4482V66.0784C88.4722 64.0212 86.7987 62.3477 84.7415 62.3477H84.4187C84.9828 61.2527 85.2845 60.0307 85.2845 58.782C85.2845 58.0861 85.1907 57.3915 85.0056 56.7176C84.8741 56.2386 84.3794 55.9568 83.9003 56.0884C83.4213 56.22 83.1396 56.7149 83.2711 57.1938C83.4137 57.7127 83.4859 58.2469 83.4859 58.782C83.4859 60.0698 83.0702 61.3212 82.3082 62.3477H72.6924C72.6143 62.2428 72.5398 62.1355 72.469 62.0261C74.1794 59.668 74.8091 56.5999 74.2576 53.7491C75.2213 53.1243 76.3315 52.7965 77.4997 52.7965C77.7685 52.7965 78.0473 52.8162 78.328 52.855C78.8205 52.9234 79.2742 52.5794 79.342 52.0874C79.4101 51.5954 79.0665 51.1413 78.5744 51.0735C78.2123 51.0233 77.8506 50.9979 77.4997 50.9979C76.166 50.9979 74.8904 51.3272 73.7501 51.9577C72.1702 47.7953 68.1209 45 63.6664 45C62.3973 45 61.1544 45.2186 59.9723 45.6496C57.9039 46.4037 56.1313 47.7734 54.8462 49.6107C53.5616 51.4475 52.8826 53.5821 52.8826 55.784C52.8826 58.1803 53.6779 60.4818 55.111 62.3477H53.6295C51.5723 62.3476 49.8988 64.0212 49.8988 66.0784ZM80.1446 88.8738L73.9287 82.6578C73.7585 82.4877 73.5292 82.3944 73.2927 82.3944C73.2419 82.3944 73.1906 82.3988 73.1396 82.4076C72.8515 82.4574 72.6056 82.6441 72.4803 82.9081L70.977 86.076L70.61 83.1732C70.6097 83.1711 70.6098 83.169 70.6095 83.1669L69.7198 76.1309L79.6534 77.3869L76.5262 78.8632C76.2617 78.9882 76.0743 79.2341 76.0242 79.5224C75.974 79.8107 76.0673 80.1053 76.2743 80.3123L82.4902 86.5283L80.1446 88.8738ZM54.6812 55.7839C54.6812 50.8992 58.7894 46.7986 63.6664 46.7986C68.5487 46.7986 72.6507 50.9101 72.6507 55.7839C72.6507 58.2451 71.5904 60.674 69.8 62.3476H57.5323C55.7415 60.6714 54.6812 58.2425 54.6812 55.7839Z" fill="#004AAF"></path><path d="M69.6034 71.2889C70.1 71.2889 70.5027 70.8862 70.5027 70.3896V67.7868C70.5027 67.2902 70.1 66.8875 69.6034 66.8875C69.1068 66.8875 68.7041 67.2902 68.7041 67.7868V70.3896C68.7041 70.8863 69.1068 71.2889 69.6034 71.2889Z" fill="#004AAF"></path><path d="M61.1276 77.1338C61.1276 77.6304 61.5303 78.0331 62.0269 78.0331H64.7415C65.2381 78.0331 65.6408 77.6304 65.6408 77.1338C65.6408 76.6372 65.2381 76.2345 64.7415 76.2345H62.0269C61.5303 76.2345 61.1276 76.6372 61.1276 77.1338Z" fill="#004AAF"></path><path d="M65.0371 73.0202C65.2064 73.1644 65.4137 73.235 65.6199 73.235C65.8743 73.235 66.1271 73.1277 66.3049 72.919C66.627 72.5409 66.5817 71.9733 66.2037 71.6512L64.0348 69.803C63.6566 69.4807 63.089 69.5262 62.767 69.9041C62.4448 70.2822 62.4901 70.8499 62.8681 71.172L65.0371 73.0202Z" fill="#004AAF"></path><path d="M60.6969 82.7803C60.4876 82.4603 60.0761 82.3115 59.7097 82.4138C59.3325 82.5191 59.0599 82.8648 59.0508 83.2574C59.0322 84.0567 60.043 84.4857 60.5991 83.9018C60.8863 83.6003 60.9287 83.1276 60.6969 82.7803Z" fill="#004AAF"></path><path d="M81.3614 54.1668C81.5713 54.487 81.9821 54.6358 82.3491 54.5336C82.7263 54.4287 82.9984 54.0815 83.0076 53.6896C83.0259 52.9206 82.0929 52.4873 81.5163 52.9917C81.1809 53.2849 81.115 53.7966 81.3614 54.1668Z" fill="#004AAF"></path><path d="M64.9176 53.932C64.7598 53.8762 64.5989 53.8182 64.4379 53.7582V50.9427C64.6344 51.01 64.832 51.1061 64.9924 51.2399C65.1632 51.3824 65.34 51.4819 65.5711 51.4819C66.0182 51.4819 66.3807 51.1194 66.3807 50.6722C66.3807 50.4203 66.2657 50.1954 66.0859 50.0463C66.0482 50.0116 65.4386 49.4626 64.4379 49.274V49.0833C64.4379 48.6363 64.0756 48.2739 63.6286 48.2739C63.1815 48.2739 62.8192 48.6363 62.8192 49.0833V49.3296C62.7548 49.3457 62.6898 49.3635 62.6239 49.3833C61.6266 49.6837 60.8818 50.5355 60.6801 51.6063C60.4951 52.5874 60.8128 53.5361 61.509 54.0822C61.8472 54.3475 62.2613 54.5906 62.8192 54.8442V58.5352C62.3996 58.484 62.0932 58.3526 61.6071 58.0345C61.233 57.7897 60.7314 57.8947 60.4866 58.2688C60.2419 58.6429 60.3469 59.1444 60.7209 59.3892C61.5412 59.9257 62.1155 60.1068 62.8191 60.162V60.4084C62.8191 60.8555 63.1814 61.2178 63.6285 61.2178C64.0755 61.2178 64.4379 60.8555 64.4379 60.4084V60.0855C65.8577 59.7397 66.7683 58.5333 66.9683 57.3438C67.2274 55.8031 66.4224 54.4638 64.9176 53.932ZM62.8192 53.0213C62.7057 52.952 62.6005 52.8811 62.5079 52.8086C62.2924 52.6396 62.1993 52.2853 62.2708 51.9062C62.3267 51.6094 62.4991 51.2628 62.8192 51.0585V53.0213ZM65.372 57.0755C65.2885 57.5721 64.9715 58.0957 64.4379 58.3705V55.481C65.4834 55.8853 65.4182 56.8004 65.372 57.0755Z" fill="#004AAF"></path><defs><filter id="filter0_d_106_53" x="0.17003" y="0.0368116" width="146.424" height="146.424" color-interpolation-filters="sRGB"><feGaussianBlur stdDeviation="13.8136"></feGaussianBlur></filter></defs></svg>