<svg xmlns="http://www.w3.org/2000/svg" width="61" height="64" viewBox="0 0 61 64" fill="none"><path d="M40.721 64H1.21225C0.54275 64 0 63.4572 0 62.7878V12.1634L12.1634 0H40.7209C41.3904 0 41.9331 0.54275 41.9331 1.21225V62.7878C41.9333 63.4572 41.3905 64 40.721 64Z" fill="url(#paint0_linear_87_178)"></path><path d="M0 39.6795L39.6795 0H12.1634L0 12.1634V39.6795Z" fill="url(#paint1_linear_87_178)"></path><path d="M11.6729 0.120375C5.97138 1.51925 1.51962 5.97075 0.1205 11.6724L0 12.1634V13.8156C0 12.9031 0.73975 12.1634 1.65225 12.1634H10.9511C11.6206 12.1634 12.1634 11.6206 12.1634 10.9511V1.65225C12.1634 0.73975 12.9031 0 13.8156 0H12.1634L11.6729 0.120375Z" fill="url(#paint2_linear_87_178)"></path><path d="M0 50.071V62.7879C0 63.4574 0.54275 64.0002 1.21225 64.0002H40.7209C41.3904 64.0002 41.9331 63.4574 41.9331 62.7879V50.071H0Z" fill="url(#paint3_linear_87_178)"></path><path d="M40.7211 0H27.364V64H40.721C41.3905 64 41.9333 63.4572 41.9333 62.7878V1.21225C41.9334 0.54275 41.3906 0 40.7211 0Z" fill="url(#paint4_linear_87_178)"></path><path d="M35.0492 36.5991H6.88415C6.44128 36.5991 6.08215 36.2401 6.08215 35.7971C6.08215 35.3542 6.44115 34.9951 6.88415 34.9951H35.049C35.4919 34.9951 35.851 35.3541 35.851 35.7971C35.851 36.2401 35.492 36.5991 35.0492 36.5991Z" fill="url(#paint5_linear_87_178)"></path><path d="M35.0492 42.1133H6.88415C6.44128 42.1133 6.08215 41.7543 6.08215 41.3113C6.08215 40.8684 6.44115 40.5093 6.88415 40.5093H35.049C35.4919 40.5093 35.851 40.8683 35.851 41.3113C35.851 41.7543 35.492 42.1133 35.0492 42.1133Z" fill="url(#paint6_linear_87_178)"></path><path d="M35.0492 47.6272H6.88415C6.44128 47.6272 6.08215 47.2682 6.08215 46.8252C6.08215 46.3823 6.44115 46.0232 6.88415 46.0232H35.049C35.4919 46.0232 35.851 46.3822 35.851 46.8252C35.851 47.2682 35.492 47.6272 35.0492 47.6272Z" fill="url(#paint7_linear_87_178)"></path><path d="M35.0492 53.1414H6.88415C6.44128 53.1414 6.08215 52.7824 6.08215 52.3394C6.08215 51.8965 6.44115 51.5374 6.88415 51.5374H35.049C35.4919 51.5374 35.851 51.8964 35.851 52.3394C35.851 52.7822 35.492 53.1414 35.0492 53.1414Z" fill="url(#paint8_linear_87_178)"></path><path d="M20.9666 28.3807C26.5769 28.3807 31.125 23.8327 31.125 18.2223C31.125 12.612 26.5769 8.06396 20.9666 8.06396C15.3563 8.06396 10.8082 12.612 10.8082 18.2223C10.8082 23.8327 15.3563 28.3807 20.9666 28.3807Z" fill="white"></path><path d="M29.9035 27.6718C29.9035 27.8675 29.8242 28.0449 29.6959 28.1733C29.5677 28.3016 29.3902 28.3809 29.1944 28.3809H26.6753H15.2582H12.7389C12.3474 28.3809 12.0297 28.0636 12.0297 27.6716C12.0297 25.7803 12.7964 24.068 14.0358 22.8284C15.2755 21.5891 16.9878 20.8223 18.879 20.8223H23.054C26.8369 20.8224 29.9035 23.889 29.9035 27.6718Z" fill="url(#paint9_linear_87_178)"></path><path d="M23.0542 20.8223H20.9667V28.3808H26.6753H29.1944C29.3902 28.3808 29.5675 28.3014 29.6959 28.1731C29.8243 28.0448 29.9036 27.8674 29.9036 27.6716C29.9036 23.8889 26.8369 20.8223 23.0542 20.8223Z" fill="url(#paint10_linear_87_178)"></path><path d="M23.0542 20.8223H20.9667V28.3808H26.6753H29.1944C29.3902 28.3808 29.5675 28.3014 29.6959 28.1731C29.8243 28.0448 29.9036 27.8674 29.9036 27.6716C29.9036 23.8889 26.8369 20.8223 23.0542 20.8223Z" fill="url(#paint11_linear_87_178)"></path><path d="M20.9666 20.4338H18.6261L18.7122 21.595L20.9666 22.7743L23.2208 21.595L23.3071 20.4338H20.9666Z" fill="url(#paint12_linear_87_178)"></path><path d="M20.9666 20.4338H18.6261L18.7122 21.595L20.9666 22.7743L23.2208 21.595L23.3071 20.4338H20.9666Z" fill="url(#paint13_linear_87_178)"></path><path d="M20.9666 20.4338H18.6261L18.7122 21.595L20.9666 22.7743L23.2208 21.595L23.3071 20.4338H20.9666Z" fill="url(#paint14_linear_87_178)"></path><path d="M20.9667 22.7743L18.6262 20.4338L17.9652 20.727C17.8435 20.781 17.7834 20.9188 17.8265 21.0447L18.6645 23.4877C18.7292 23.676 18.9442 23.765 19.1229 23.6775L20.9667 22.7743Z" fill="url(#paint15_linear_87_178)"></path><path d="M20.9667 22.7743L18.6262 20.4338L17.9652 20.727C17.8435 20.781 17.7834 20.9188 17.8265 21.0447L18.6645 23.4877C18.7292 23.676 18.9442 23.765 19.1229 23.6775L20.9667 22.7743Z" fill="url(#paint16_linear_87_178)"></path><path d="M20.9667 22.7743L23.3072 20.4338L23.9682 20.7271C24.0898 20.7811 24.1499 20.919 24.1068 21.0448L23.2688 23.4878C23.2042 23.6761 22.9892 23.7651 22.8104 23.6776L20.9667 22.7743Z" fill="url(#paint17_linear_87_178)"></path><path d="M20.9667 22.7743L23.3072 20.4338L23.9682 20.7271C24.0898 20.7811 24.1499 20.919 24.1068 21.0448L23.2688 23.4878C23.2042 23.6761 22.9892 23.7651 22.8104 23.6776L20.9667 22.7743Z" fill="url(#paint18_linear_87_178)"></path><path d="M14.3994 15.5573C14.3994 14.6424 15.0345 13.8758 15.8879 13.6743C16.116 13.6204 16.334 13.7968 16.334 14.0312V17.0832C16.334 17.3176 16.116 17.4939 15.8879 17.4402C15.0345 17.2388 14.3994 16.4722 14.3994 15.5573Z" fill="url(#paint19_linear_87_178)"></path><path d="M27.5339 15.5573C27.5339 14.6424 26.8987 13.8758 26.0454 13.6743C25.8172 13.6204 25.5992 13.7968 25.5992 14.0312V17.0832C25.5992 17.3176 25.8172 17.4939 26.0454 17.4402C26.8987 17.2388 27.5339 16.4722 27.5339 15.5573Z" fill="url(#paint20_linear_87_178)"></path><path d="M20.9666 8.43726C18.1174 8.43726 15.8075 10.7471 15.8075 13.5964V16.2421C15.8075 19.0914 18.1174 21.4013 20.9666 21.4013C23.8159 21.4013 26.1257 19.0914 26.1257 16.2421V13.5964C26.1257 10.7471 23.8159 8.43726 20.9666 8.43726Z" fill="url(#paint21_linear_87_178)"></path><path d="M20.9667 8.43726V21.4013C23.8159 21.4013 26.1258 19.0914 26.1258 16.2421V13.5964C26.1258 10.7471 23.8159 8.43726 20.9667 8.43726Z" fill="url(#paint22_linear_87_178)"></path><path d="M15.9089 17.2637C16.3831 19.6235 18.4672 21.401 20.9667 21.401C23.4662 21.401 25.5503 19.6235 26.0244 17.2637H15.9089Z" fill="url(#paint23_linear_87_178)"></path><path d="M18.5715 16.3379C18.1574 16.3379 17.8218 16.0022 17.8218 15.5881V15.2036C17.8218 14.7895 18.1574 14.4539 18.5715 14.4539C18.9857 14.4539 19.3213 14.7895 19.3213 15.2036V15.5881C19.3213 16.0022 18.9857 16.3379 18.5715 16.3379Z" fill="url(#paint24_linear_87_178)"></path><path d="M23.3616 16.3379C22.9474 16.3379 22.6118 16.0022 22.6118 15.5881V15.2036C22.6118 14.7895 22.9474 14.4539 23.3616 14.4539C23.7757 14.4539 24.1113 14.7895 24.1113 15.2036V15.5881C24.1113 16.0022 23.7757 16.3379 23.3616 16.3379Z" fill="url(#paint25_linear_87_178)"></path><path d="M21.2516 17.9368H20.6816C20.2066 17.9368 19.8469 17.5075 19.9301 17.0398L20.1979 15.5343C20.232 15.3425 20.3987 15.2029 20.5935 15.2029H21.3397C21.5345 15.2029 21.7012 15.3425 21.7354 15.5343L22.0031 17.0398C22.0864 17.5075 21.7266 17.9368 21.2516 17.9368Z" fill="url(#paint26_linear_87_178)"></path><path d="M21.2516 17.9368H20.6816C20.2066 17.9368 19.8469 17.5075 19.9301 17.0398L20.1979 15.5343C20.232 15.3425 20.3987 15.2029 20.5935 15.2029H21.3397C21.5345 15.2029 21.7012 15.3425 21.7354 15.5343L22.0031 17.0398C22.0864 17.5075 21.7266 17.9368 21.2516 17.9368Z" fill="url(#paint27_linear_87_178)"></path><path d="M20.6816 17.9368H21.2516C21.7266 17.9368 22.0864 17.5075 22.0031 17.0398L21.7354 15.5343C21.7012 15.3425 21.5345 15.2029 21.3397 15.2029H20.5935C20.3987 15.2029 20.232 15.3425 20.1979 15.5343L19.9301 17.0398C19.8469 17.5075 20.2065 17.9368 20.6816 17.9368Z" fill="url(#paint28_linear_87_178)"></path><path d="M12.0298 27.6718C12.0298 28.0637 12.3475 28.381 12.739 28.381H15.2582H26.6753H29.1944C29.3902 28.381 29.5675 28.3017 29.6959 28.1734C29.8243 28.045 29.9035 27.8676 29.9035 27.6719C29.9035 26.6833 29.6937 25.7437 29.3167 24.8948H12.6167C12.2397 25.7435 12.0298 26.6832 12.0298 27.6718Z" fill="url(#paint29_linear_87_178)"></path><path d="M28.0381 11.4408C28.4122 12.997 27.8286 14.4718 26.7343 14.7349C25.6402 14.9979 24.4498 13.9497 24.0757 12.3934C23.7016 10.8372 24.2852 9.3624 25.3795 9.09928C26.4737 8.83615 27.664 9.88465 28.0381 11.4408Z" fill="url(#paint30_linear_87_178)"></path><path d="M28.0381 11.4408C28.4122 12.997 27.8286 14.4718 26.7343 14.7349C25.6402 14.9979 24.4498 13.9497 24.0757 12.3934C23.7016 10.8372 24.2852 9.3624 25.3795 9.09928C26.4737 8.83615 27.664 9.88465 28.0381 11.4408Z" fill="url(#paint31_linear_87_178)"></path><path d="M16.4361 14.7386C17.6683 14.5065 18.7786 13.8453 19.5694 12.8723C20.1448 12.1645 21.0083 11.7536 21.9204 11.7536H23.4187C23.9787 11.7536 24.5158 11.5311 24.9118 11.1351C25.7364 10.3105 25.7364 8.97352 24.9118 8.14877C23.0152 6.25214 20.1109 5.79689 17.7248 7.02214L16.2497 7.77977C14.2056 8.82952 13.2674 11.2406 14.0644 13.3959C14.4219 14.3619 15.4239 14.9293 16.4361 14.7386Z" fill="url(#paint32_linear_87_178)"></path><path d="M14.3341 9.6521C13.7281 10.7686 13.5951 12.1266 14.0646 13.3961C14.4218 14.3621 15.4238 14.9295 16.4359 14.7388C17.6682 14.5067 18.7783 13.8455 19.5693 12.8726C20.1447 12.1648 21.0082 11.754 21.9203 11.754H23.4186C23.9786 11.754 24.5157 11.5315 24.9117 11.1355C25.3214 10.7257 25.5274 10.1893 25.5299 9.65222L14.3341 9.6521Z" fill="url(#paint33_linear_87_178)"></path><path d="M24.9119 8.14896C23.4658 6.70283 21.4341 6.09583 19.4927 6.43158V12.9627C19.5183 12.9326 19.5446 12.9031 19.5694 12.8723C20.1448 12.1646 21.0083 11.7537 21.9204 11.7537H23.4187C23.9787 11.7537 24.5158 11.5312 24.9118 11.1352C25.7366 10.3107 25.7366 8.97371 24.9119 8.14896Z" fill="url(#paint34_linear_87_178)"></path><path d="M41.9332 62.7876V26.1052L22.1307 45.9077L40.2227 63.9998H40.7209C41.3905 63.9998 41.9332 63.4571 41.9332 62.7876Z" fill="url(#paint35_linear_87_178)"></path><path d="M30.5756 40.0235C34.5338 36.0653 37.1676 32.2814 36.4583 31.5721C35.7489 30.8628 31.9651 33.4965 28.0069 37.4548C24.0486 41.413 21.4149 45.1969 22.1242 45.9062C22.8335 46.6155 26.6173 43.9817 30.5756 40.0235Z" fill="white"></path><path d="M30.5834 40.0243C26.6245 43.9832 22.8402 46.6173 22.1308 45.908C21.4214 45.1986 24.0555 41.4142 28.0144 37.4553C31.9733 33.4965 35.7577 30.8623 36.467 31.5717C37.1764 32.2812 34.5422 36.0656 30.5834 40.0243Z" fill="url(#paint36_linear_87_178)"></path><path d="M44.4789 29.8265C34.6277 39.6777 25.2107 46.2326 23.4453 44.4672C21.6799 42.7019 28.2349 33.2849 38.0861 23.4336C47.9372 13.5824 57.3544 7.02748 59.1197 8.79285C60.8851 10.5582 54.3302 19.9752 44.4789 29.8265Z" fill="url(#paint37_linear_87_178)"></path><path d="M59.1199 8.7931C58.5754 8.2486 57.3026 8.49647 55.5142 9.38747L24.0399 40.8618C23.1489 42.6501 22.9011 43.9231 23.4456 44.4676C25.2109 46.233 34.6279 39.678 44.4792 29.8268C54.3304 19.9757 60.8853 10.5585 59.1199 8.7931Z" fill="url(#paint38_linear_87_178)"></path><path d="M59.1196 8.79272L45.7286 22.1838V28.5606C54.8771 19.1807 60.8093 10.4823 59.1196 8.79272Z" fill="url(#paint39_linear_87_178)"></path><path d="M47.3312 15.025L52.8874 20.5813C55.042 17.9359 56.7509 15.5424 57.8776 13.5965L54.3161 10.0349C52.3702 11.1617 49.9767 12.8704 47.3312 15.025Z" fill="url(#paint40_linear_87_178)"></path><path d="M32.5261 29.3306L38.5821 35.3866C40.4892 33.6978 42.4751 31.8305 44.4789 29.8267L38.086 23.4338C36.0822 25.4376 34.2149 27.4233 32.5261 29.3306Z" fill="url(#paint41_linear_87_178)"></path><path d="M43.1306 31.0375L36.875 24.7819C36.6965 24.6034 36.6965 24.3139 36.875 24.1352L38.7875 22.2227C38.966 22.0442 39.2555 22.0442 39.4341 22.2227L45.6897 28.4784C45.8682 28.6569 45.8682 28.9464 45.6897 29.125L43.7772 31.0375C43.5987 31.216 43.3092 31.216 43.1306 31.0375Z" fill="url(#paint42_linear_87_178)"></path><path d="M45.6897 28.4782L42.264 25.0525L39.7048 27.6116L43.1306 31.0374C43.3091 31.2159 43.5986 31.216 43.7772 31.0374L45.6898 29.1247C45.8683 28.9464 45.8683 28.6569 45.6897 28.4782Z" fill="url(#paint43_linear_87_178)"></path><path d="M53.3717 10.8085L57.1039 14.5408C57.3189 14.7558 57.6793 14.7137 57.8378 14.4543C59.725 11.3645 60.4515 9.11641 59.6238 8.28866C58.796 7.46091 56.5479 8.18741 53.4582 10.0747C53.1988 10.233 53.1567 10.5935 53.3717 10.8085Z" fill="url(#paint44_linear_87_178)"></path><path d="M53.4582 10.0749C53.1988 10.2333 53.1567 10.5938 53.3717 10.8088L57.1039 14.5411C57.3189 14.7561 57.6793 14.7139 57.8378 14.4546C58.3959 13.5409 58.8515 12.7016 59.1964 11.9501L55.9627 8.71631C55.2112 9.06118 54.3718 9.51681 53.4582 10.0749Z" fill="url(#paint45_linear_87_178)"></path><path d="M59.6238 8.28882L55.2378 12.6748L57.1039 14.5409C57.3189 14.7559 57.6793 14.7138 57.8378 14.4544C59.725 11.3647 60.4514 9.11644 59.6238 8.28882Z" fill="url(#paint46_linear_87_178)"></path><path d="M59.6238 8.28882L55.2378 12.6748L57.1039 14.5409C57.3189 14.7559 57.6793 14.7138 57.8378 14.4544C59.725 11.3647 60.4514 9.11644 59.6238 8.28882Z" fill="url(#paint47_linear_87_178)"></path><path d="M54.1813 16.3005C50.2224 20.2593 46.4381 22.8935 45.7287 22.1841C45.0193 21.4747 47.6534 17.6903 51.6123 13.7315C55.5712 9.77258 59.3556 7.13846 60.0649 7.84783C60.7743 8.55721 58.1401 12.3416 54.1813 16.3005Z" fill="url(#paint48_linear_87_178)"></path><path d="M60.0648 7.84795C59.8461 7.6292 59.3344 7.72882 58.6158 8.08682L45.9674 20.7352C45.6094 21.4538 45.5098 21.9654 45.7286 22.1842C46.4379 22.8936 50.2223 20.2594 54.1812 16.3006C58.1401 12.3417 60.7743 8.55732 60.0648 7.84795Z" fill="url(#paint49_linear_87_178)"></path><defs><linearGradient id="paint0_linear_87_178" x1="2.09287" y1="13.1262" x2="46.9374" y2="57.9707" gradientUnits="userSpaceOnUse"><stop stop-color="#F5FBFF"></stop><stop offset="1" stop-color="#91DCFA"></stop></linearGradient><linearGradient id="paint1_linear_87_178" x1="12.8893" y1="12.8893" x2="5.56763" y2="5.56763" gradientUnits="userSpaceOnUse"><stop stop-color="#60B7FF" stop-opacity="0"></stop><stop offset="1" stop-color="#60B7FF"></stop></linearGradient><linearGradient id="paint2_linear_87_178" x1="4.40162" y1="4.40162" x2="12.8726" y2="12.8726" gradientUnits="userSpaceOnUse"><stop stop-color="#F5FBFF"></stop><stop offset="1" stop-color="#91DCFA"></stop></linearGradient><linearGradient id="paint3_linear_87_178" x1="20.9666" y1="59.7663" x2="20.9666" y2="64.3108" gradientUnits="userSpaceOnUse"><stop stop-color="#60B7FF" stop-opacity="0"></stop><stop offset="1" stop-color="#60B7FF"></stop></linearGradient><linearGradient id="paint4_linear_87_178" x1="35.5175" y1="32" x2="42.8116" y2="32" gradientUnits="userSpaceOnUse"><stop stop-color="#60B7FF" stop-opacity="0"></stop><stop offset="1" stop-color="#60B7FF"></stop></linearGradient><linearGradient id="paint5_linear_87_178" x1="20.8213" y1="14.3545" x2="21.0048" y2="41.4251" gradientUnits="userSpaceOnUse"><stop stop-color="#60B7FF" stop-opacity="0"></stop><stop offset="1" stop-color="#60B7FF"></stop></linearGradient><linearGradient id="paint6_linear_87_178" x1="20.8213" y1="19.8687" x2="21.0048" y2="46.9393" gradientUnits="userSpaceOnUse"><stop stop-color="#60B7FF" stop-opacity="0"></stop><stop offset="1" stop-color="#60B7FF"></stop></linearGradient><linearGradient id="paint7_linear_87_178" x1="20.8213" y1="25.3826" x2="21.0048" y2="52.4531" gradientUnits="userSpaceOnUse"><stop stop-color="#60B7FF" stop-opacity="0"></stop><stop offset="1" stop-color="#60B7FF"></stop></linearGradient><linearGradient id="paint8_linear_87_178" x1="20.8213" y1="30.8967" x2="21.0048" y2="57.9672" gradientUnits="userSpaceOnUse"><stop stop-color="#60B7FF" stop-opacity="0"></stop><stop offset="1" stop-color="#60B7FF"></stop></linearGradient><linearGradient id="paint9_linear_87_178" x1="19.3479" y1="21.5231" x2="21.5629" y2="29.3498" gradientUnits="userSpaceOnUse"><stop stop-color="#8AC9FE"></stop><stop offset="1" stop-color="#0172FB"></stop></linearGradient><linearGradient id="paint10_linear_87_178" x1="27.1078" y1="24.1703" x2="30.1721" y2="23.5056" gradientUnits="userSpaceOnUse"><stop stop-color="#2740B0" stop-opacity="0"></stop><stop offset="1" stop-color="#2740B0"></stop></linearGradient><linearGradient id="paint11_linear_87_178" x1="23.6663" y1="25.0211" x2="18.4977" y2="22.5476" gradientUnits="userSpaceOnUse"><stop stop-color="#2740B0" stop-opacity="0"></stop><stop offset="1" stop-color="#2740B0"></stop></linearGradient><linearGradient id="paint12_linear_87_178" x1="20.7661" y1="20.3256" x2="21.5691" y2="22.596" gradientUnits="userSpaceOnUse"><stop stop-color="#FFDFCF"></stop><stop offset="1" stop-color="#FFA78F"></stop></linearGradient><linearGradient id="paint13_linear_87_178" x1="20.9666" y1="22.135" x2="20.9666" y2="21.1936" gradientUnits="userSpaceOnUse"><stop stop-color="#F89580" stop-opacity="0"></stop><stop offset="0.2699" stop-color="#F08F7A" stop-opacity="0.271"></stop><stop offset="0.6945" stop-color="#D97F69" stop-opacity="0.696"></stop><stop offset="0.9972" stop-color="#C5715A"></stop></linearGradient><linearGradient id="paint14_linear_87_178" x1="20.7293" y1="21.205" x2="19.9956" y2="21.9248" gradientUnits="userSpaceOnUse"><stop stop-color="#F89580" stop-opacity="0"></stop><stop offset="0.2699" stop-color="#F08F7A" stop-opacity="0.271"></stop><stop offset="0.6945" stop-color="#D97F69" stop-opacity="0.696"></stop><stop offset="0.9972" stop-color="#C5715A"></stop></linearGradient><linearGradient id="paint15_linear_87_178" x1="19.6019" y1="21.6466" x2="17.9129" y2="22.8926" gradientUnits="userSpaceOnUse"><stop stop-color="#8AC9FE"></stop><stop offset="1" stop-color="#0172FB"></stop></linearGradient><linearGradient id="paint16_linear_87_178" x1="19.6634" y1="22.8438" x2="19.9864" y2="23.4622" gradientUnits="userSpaceOnUse"><stop stop-color="#2740B0" stop-opacity="0"></stop><stop offset="1" stop-color="#2740B0"></stop></linearGradient><linearGradient id="paint17_linear_87_178" x1="22.2544" y1="21.58" x2="23.8188" y2="22.7982" gradientUnits="userSpaceOnUse"><stop stop-color="#8AC9FE"></stop><stop offset="1" stop-color="#0172FB"></stop></linearGradient><linearGradient id="paint18_linear_87_178" x1="22.2479" y1="22.8445" x2="21.9896" y2="23.4167" gradientUnits="userSpaceOnUse"><stop stop-color="#2740B0" stop-opacity="0"></stop><stop offset="1" stop-color="#2740B0"></stop></linearGradient><linearGradient id="paint19_linear_87_178" x1="14.9687" y1="14.7208" x2="16.5248" y2="16.2769" gradientUnits="userSpaceOnUse"><stop stop-color="#FFDFCF"></stop><stop offset="1" stop-color="#FFA78F"></stop></linearGradient><linearGradient id="paint20_linear_87_178" x1="24.9961" y1="14.4253" x2="27.1736" y2="16.6027" gradientUnits="userSpaceOnUse"><stop stop-color="#FFDFCF"></stop><stop offset="1" stop-color="#FFA78F"></stop></linearGradient><linearGradient id="paint21_linear_87_178" x1="20.5992" y1="14.5519" x2="25.4217" y2="19.3744" gradientUnits="userSpaceOnUse"><stop stop-color="#FFDFCF"></stop><stop offset="1" stop-color="#FFA78F"></stop></linearGradient><linearGradient id="paint22_linear_87_178" x1="23.2863" y1="14.9193" x2="26.3584" y2="14.9193" gradientUnits="userSpaceOnUse"><stop stop-color="#F89580" stop-opacity="0"></stop><stop offset="0.2699" stop-color="#F08F7A" stop-opacity="0.271"></stop><stop offset="0.6945" stop-color="#D97F69" stop-opacity="0.696"></stop><stop offset="0.9972" stop-color="#C5715A"></stop></linearGradient><linearGradient id="paint23_linear_87_178" x1="20.9667" y1="19.3699" x2="20.9667" y2="22.0805" gradientUnits="userSpaceOnUse"><stop stop-color="#F89580" stop-opacity="0"></stop><stop offset="0.2699" stop-color="#F08F7A" stop-opacity="0.271"></stop><stop offset="0.6945" stop-color="#D97F69" stop-opacity="0.696"></stop><stop offset="0.9972" stop-color="#C5715A"></stop></linearGradient><linearGradient id="paint24_linear_87_178" x1="16.029" y1="13.6356" x2="19.7249" y2="16.1944" gradientUnits="userSpaceOnUse"><stop stop-color="#5A5A5A"></stop><stop offset="1" stop-color="#444444"></stop></linearGradient><linearGradient id="paint25_linear_87_178" x1="20.8191" y1="13.6356" x2="24.5149" y2="16.1944" gradientUnits="userSpaceOnUse"><stop stop-color="#5A5A5A"></stop><stop offset="1" stop-color="#444444"></stop></linearGradient><linearGradient id="paint26_linear_87_178" x1="20.9666" y1="16.4256" x2="20.9666" y2="18.2186" gradientUnits="userSpaceOnUse"><stop stop-color="#C4573A" stop-opacity="0"></stop><stop offset="0.2342" stop-color="#BE5539" stop-opacity="0.234"></stop><stop offset="0.5454" stop-color="#AD4E35" stop-opacity="0.545"></stop><stop offset="0.8984" stop-color="#914330" stop-opacity="0.898"></stop><stop offset="1" stop-color="#883F2E"></stop></linearGradient><linearGradient id="paint27_linear_87_178" x1="21.276" y1="16.6399" x2="22.334" y2="16.8971" gradientUnits="userSpaceOnUse"><stop stop-color="#C4573A" stop-opacity="0"></stop><stop offset="0.2342" stop-color="#BE5539" stop-opacity="0.234"></stop><stop offset="0.5454" stop-color="#AD4E35" stop-opacity="0.545"></stop><stop offset="0.8984" stop-color="#914330" stop-opacity="0.898"></stop><stop offset="1" stop-color="#883F2E"></stop></linearGradient><linearGradient id="paint28_linear_87_178" x1="20.6572" y1="16.6399" x2="19.5992" y2="16.8971" gradientUnits="userSpaceOnUse"><stop stop-color="#FFDDCD" stop-opacity="0"></stop><stop offset="0.9972" stop-color="#FFDDCD"></stop></linearGradient><linearGradient id="paint29_linear_87_178" x1="20.9667" y1="27.2944" x2="20.9667" y2="28.5127" gradientUnits="userSpaceOnUse"><stop stop-color="#2740B0" stop-opacity="0"></stop><stop offset="1" stop-color="#2740B0"></stop></linearGradient><linearGradient id="paint30_linear_87_178" x1="24.9471" y1="11.9172" x2="27.4588" y2="11.9172" gradientUnits="userSpaceOnUse"><stop stop-color="#5A5A5A"></stop><stop offset="1" stop-color="#444444"></stop></linearGradient><linearGradient id="paint31_linear_87_178" x1="27.0172" y1="11.1035" x2="24.3591" y2="13.3555" gradientUnits="userSpaceOnUse"><stop stop-color="#433F43" stop-opacity="0"></stop><stop offset="0.3444" stop-color="#403C40" stop-opacity="0.344"></stop><stop offset="0.6223" stop-color="#363336" stop-opacity="0.622"></stop><stop offset="0.8763" stop-color="#252425" stop-opacity="0.876"></stop><stop offset="1" stop-color="#1A1A1A"></stop></linearGradient><linearGradient id="paint32_linear_87_178" x1="18.0399" y1="7.81039" x2="20.2551" y2="12.1851" gradientUnits="userSpaceOnUse"><stop stop-color="#5A5A5A"></stop><stop offset="1" stop-color="#444444"></stop></linearGradient><linearGradient id="paint33_linear_87_178" x1="19.6561" y1="11.3456" x2="19.6561" y2="14.6346" gradientUnits="userSpaceOnUse"><stop stop-color="#433F43" stop-opacity="0"></stop><stop offset="0.3444" stop-color="#403C40" stop-opacity="0.344"></stop><stop offset="0.6223" stop-color="#363336" stop-opacity="0.622"></stop><stop offset="0.8763" stop-color="#252425" stop-opacity="0.876"></stop><stop offset="1" stop-color="#1A1A1A"></stop></linearGradient><linearGradient id="paint34_linear_87_178" x1="21.4739" y1="9.76346" x2="23.6152" y2="12.0893" gradientUnits="userSpaceOnUse"><stop stop-color="#433F43" stop-opacity="0"></stop><stop offset="0.3444" stop-color="#403C40" stop-opacity="0.344"></stop><stop offset="0.6223" stop-color="#363336" stop-opacity="0.622"></stop><stop offset="0.8763" stop-color="#252425" stop-opacity="0.876"></stop><stop offset="1" stop-color="#1A1A1A"></stop></linearGradient><linearGradient id="paint35_linear_87_178" x1="41.4604" y1="49.6972" x2="31.703" y2="35.5288" gradientUnits="userSpaceOnUse"><stop stop-color="#60B7FF" stop-opacity="0"></stop><stop offset="1" stop-color="#60B7FF"></stop></linearGradient><linearGradient id="paint36_linear_87_178" x1="28.6365" y1="38.0775" x2="30.3793" y2="39.8202" gradientUnits="userSpaceOnUse"><stop stop-color="#60B7FF" stop-opacity="0"></stop><stop offset="1" stop-color="#60B7FF"></stop></linearGradient><linearGradient id="paint37_linear_87_178" x1="39.2726" y1="24.6112" x2="41.8688" y2="27.2074" gradientUnits="userSpaceOnUse"><stop stop-color="#5A5A5A"></stop><stop offset="1" stop-color="#444444"></stop></linearGradient><linearGradient id="paint38_linear_87_178" x1="40.1128" y1="25.4515" x2="43.9943" y2="29.333" gradientUnits="userSpaceOnUse"><stop stop-color="#433F43" stop-opacity="0"></stop><stop offset="0.3444" stop-color="#403C40" stop-opacity="0.344"></stop><stop offset="0.6223" stop-color="#363336" stop-opacity="0.622"></stop><stop offset="0.8763" stop-color="#252425" stop-opacity="0.876"></stop><stop offset="1" stop-color="#1A1A1A"></stop></linearGradient><linearGradient id="paint39_linear_87_178" x1="55.8195" y1="24.1574" x2="52.071" y2="18.0779" gradientUnits="userSpaceOnUse"><stop stop-color="#433F43" stop-opacity="0"></stop><stop offset="0.3444" stop-color="#403C40" stop-opacity="0.344"></stop><stop offset="0.6223" stop-color="#363336" stop-opacity="0.622"></stop><stop offset="0.8763" stop-color="#252425" stop-opacity="0.876"></stop><stop offset="1" stop-color="#1A1A1A"></stop></linearGradient><linearGradient id="paint40_linear_87_178" x1="53.0999" y1="14.8026" x2="55.2743" y2="12.6281" gradientUnits="userSpaceOnUse"><stop stop-color="#433F43" stop-opacity="0"></stop><stop offset="0.3444" stop-color="#403C40" stop-opacity="0.344"></stop><stop offset="0.6223" stop-color="#363336" stop-opacity="0.622"></stop><stop offset="0.8763" stop-color="#252425" stop-opacity="0.876"></stop><stop offset="1" stop-color="#1A1A1A"></stop></linearGradient><linearGradient id="paint41_linear_87_178" x1="37.7279" y1="30.1747" x2="39.8393" y2="28.0633" gradientUnits="userSpaceOnUse"><stop stop-color="#433F43" stop-opacity="0"></stop><stop offset="0.3444" stop-color="#403C40" stop-opacity="0.344"></stop><stop offset="0.6223" stop-color="#363336" stop-opacity="0.622"></stop><stop offset="0.8763" stop-color="#252425" stop-opacity="0.876"></stop><stop offset="1" stop-color="#1A1A1A"></stop></linearGradient><linearGradient id="paint42_linear_87_178" x1="38.7474" y1="24.0862" x2="43.2735" y2="28.6122" gradientUnits="userSpaceOnUse"><stop stop-color="#FEF0AE"></stop><stop offset="1" stop-color="#FAC600"></stop></linearGradient><linearGradient id="paint43_linear_87_178" x1="43.4095" y1="28.7482" x2="44.5474" y2="29.8862" gradientUnits="userSpaceOnUse"><stop stop-color="#FE9738" stop-opacity="0"></stop><stop offset="1" stop-color="#FE9738"></stop></linearGradient><linearGradient id="paint44_linear_87_178" x1="55.7439" y1="8.79066" x2="58.9309" y2="11.9777" gradientUnits="userSpaceOnUse"><stop stop-color="#FEF0AE"></stop><stop offset="1" stop-color="#FAC600"></stop></linearGradient><linearGradient id="paint45_linear_87_178" x1="56.0609" y1="11.8417" x2="55.2578" y2="12.6448" gradientUnits="userSpaceOnUse"><stop stop-color="#FE9738" stop-opacity="0"></stop><stop offset="1" stop-color="#FE9738"></stop></linearGradient><linearGradient id="paint46_linear_87_178" x1="57.2734" y1="10.4333" x2="59.1004" y2="12.0713" gradientUnits="userSpaceOnUse"><stop stop-color="#FE9738" stop-opacity="0"></stop><stop offset="1" stop-color="#FE9738"></stop></linearGradient><linearGradient id="paint47_linear_87_178" x1="60.0914" y1="12.4741" x2="56.847" y2="10.4896" gradientUnits="userSpaceOnUse"><stop stop-color="#FE9738" stop-opacity="0"></stop><stop offset="1" stop-color="#FE9738"></stop></linearGradient><linearGradient id="paint48_linear_87_178" x1="52.0869" y1="14.2008" x2="53.1302" y2="15.244" gradientUnits="userSpaceOnUse"><stop stop-color="#FEF0AE"></stop><stop offset="1" stop-color="#FAC600"></stop></linearGradient><linearGradient id="paint49_linear_87_178" x1="52.4245" y1="14.5385" x2="53.9843" y2="16.0983" gradientUnits="userSpaceOnUse"><stop stop-color="#FE9738" stop-opacity="0"></stop><stop offset="1" stop-color="#FE9738"></stop></linearGradient></defs></svg>