<svg xmlns="http://www.w3.org/2000/svg" xmlns:xlink="http://www.w3.org/1999/xlink" id="Capa_1" x="0px" y="0px" viewBox="0 0 147 147" style="enable-background:new 0 0 147 147;" xml:space="preserve"><style type="text/css">	.st0{fill:#FFFFFF;}	.st1{fill:#004AAF;}</style><g>			<image style="overflow:visible;opacity:0.2;" width="182" height="182" transform="matrix(1 0 0 1 -18 -17)">	</image>	<g>		<g>			<path class="st0" d="M68.8,24.2L68.8,24.2c25.2,0,45.6,20.4,45.6,45.6v0c0,25.2-20.4,45.6-45.6,45.6h0     c-25.2,0-45.6-20.4-45.6-45.6v0C23.2,44.6,43.6,24.2,68.8,24.2z"></path>		</g>	</g></g><path class="st1" d="M81.9,64.4c-0.4,0-0.7,0.3-0.7,0.7v22.2c0,1.6-1.3,2.9-2.9,2.9H54.2c-1.6,0-2.9-1.3-2.9-2.9V69.7  c0-0.4-0.3-0.7-0.7-0.7c-0.4,0-0.7,0.3-0.7,0.7v17.6c0,2.4,1.9,4.3,4.3,4.3h24.1c2.4,0,4.3-1.9,4.3-4.3V65.1  C82.6,64.7,82.3,64.4,81.9,64.4z"></path><path class="st1" d="M61.1,82.3V63.1c0-1.2-0.9-2.1-2.1-2.1c-1.2,0-2.1,0.9-2.1,2.1v19.2c0,1.2,0.9,2.1,2.1,2.1  C60.1,84.4,61.1,83.5,61.1,82.3z M58.3,82.3V63.1c0-0.4,0.3-0.7,0.7-0.7c0.4,0,0.7,0.3,0.7,0.7v19.2c0,0.4-0.3,0.7-0.7,0.7  C58.6,83.1,58.3,82.7,58.3,82.3z"></path><path class="st1" d="M68.3,82.3V63.1c0-1.2-0.9-2.1-2.1-2.1s-2.1,0.9-2.1,2.1v19.2c0,1.2,0.9,2.1,2.1,2.1S68.3,83.5,68.3,82.3z   M65.5,82.3V63.1c0-0.4,0.3-0.7,0.7-0.7c0.4,0,0.7,0.3,0.7,0.7v19.2c0,0.4-0.3,0.7-0.7,0.7C65.8,83.1,65.5,82.7,65.5,82.3z"></path><path class="st1" d="M75.6,82.3V63.1c0-1.2-0.9-2.1-2.1-2.1s-2.1,0.9-2.1,2.1v19.2c0,1.2,0.9,2.1,2.1,2.1S75.6,83.5,75.6,82.3z   M72.7,82.3V63.1c0-0.4,0.3-0.7,0.7-0.7c0.4,0,0.7,0.3,0.7,0.7v19.2c0,0.4-0.3,0.7-0.7,0.7C73.1,83.1,72.7,82.7,72.7,82.3z"></path><path class="st1" d="M88.3,47.3c-0.3-0.2-0.7-0.2-1,0.1c-0.2,0.3-0.2,0.7,0.1,1c1.7,1.4,2.6,3.4,2.6,5.6c0,4-3.3,7.3-7.3,7.3  c-4,0-7.3-3.3-7.3-7.3s3.3-7.3,7.3-7.3c0.7,0,1.4,0.1,2,0.3c0.4,0.1,0.7-0.1,0.8-0.5c0.1-0.4-0.1-0.7-0.5-0.8  c-0.8-0.2-1.6-0.3-2.4-0.3c-4.8,0-8.6,3.9-8.6,8.6c0,0.2,0,0.4,0,0.6h-1.5v-5.9c0-1.9-1.5-3.4-3.4-3.4h-6.3c-1.9,0-3.4,1.5-3.4,3.4  v5.9h-5.5c-2.4,0-4.3,1.9-4.3,4.3v7.5c0,0.4,0.3,0.7,0.7,0.7c0.4,0,0.7-0.3,0.7-0.7v-7.5c0-1.6,1.3-2.9,2.9-2.9h20.2  c0.9,3.8,4.3,6.7,8.4,6.7c4.8,0,8.6-3.9,8.6-8.6C91.5,51.4,90.3,49,88.3,47.3z M63.9,49.4h4.7v5.2h-4.7V49.4z M69.9,51.6h1.5v3h-1.5  V51.6z M61,48.7c0-1.1,0.9-2,2-2h6.3c1.1,0,2,0.9,2,2v1.5h-1.5v-1c0-0.6-0.5-1.1-1.1-1.1h-5.1c-0.6,0-1.1,0.5-1.1,1.1v1H61V48.7z   M61,51.6h1.5v3H61V51.6z"></path><path class="st1" d="M84.6,49.7l-0.3-0.8c-0.1-0.4-0.5-0.6-0.9-0.6h-1.1c-0.4,0-0.8,0.2-0.9,0.6l-0.3,0.8l-0.8-0.4  c-0.4-0.2-0.8-0.1-1.1,0.2l-0.8,0.8c-0.3,0.3-0.4,0.7-0.2,1.1l0.4,0.8l-0.8,0.3c-0.4,0.1-0.6,0.5-0.6,0.9v1.1c0,0.4,0.2,0.8,0.6,0.9  l0.8,0.3l-0.4,0.8c-0.2,0.4-0.1,0.8,0.2,1.1l0.8,0.8c0.3,0.3,0.7,0.4,1.1,0.2l0.8-0.4l0.3,0.8c0.1,0.4,0.5,0.6,0.9,0.6h1.1  c0.4,0,0.8-0.2,0.9-0.6l0.3-0.8l0.8,0.4c0.4,0.2,0.8,0.1,1.1-0.2l0.8-0.8c0.3-0.3,0.4-0.7,0.2-1.1l-0.4-0.8l0.8-0.3  c0.4-0.1,0.6-0.5,0.6-0.9v-1.1c0-0.4-0.2-0.8-0.6-0.9l-0.8-0.3l0.4-0.8c0.2-0.4,0.1-0.8-0.2-1.1l-0.8-0.8c-0.3-0.3-0.7-0.4-1.1-0.2  L84.6,49.7z M86.1,51.1l-0.3,0.7c-0.1,0.3-0.1,0.7,0,1c0.1,0.3,0.4,0.6,0.7,0.7l0.7,0.3v0.6l-0.7,0.3c-0.3,0.1-0.6,0.4-0.7,0.7  c-0.1,0.3-0.1,0.7,0,1l0.3,0.7l-0.4,0.4L85,56.9c-0.3-0.1-0.6-0.1-1,0l0,0c-0.3,0.1-0.6,0.4-0.7,0.7l-0.3,0.7h-0.6l-0.3-0.7  c-0.1-0.3-0.4-0.6-0.7-0.7l0,0c-0.3-0.1-0.7-0.1-1,0L80,57.2l-0.4-0.4l0.3-0.7c0.1-0.3,0.1-0.7,0-1c0,0,0,0,0,0  c-0.1-0.3-0.4-0.6-0.7-0.7l-0.7-0.3v-0.6l0.7-0.3c0.3-0.1,0.6-0.4,0.7-0.7c0,0,0,0,0,0c0.1-0.3,0.1-0.7,0-1l-0.3-0.7l0.4-0.4  l0.7,0.3c0.3,0.1,0.7,0.1,1,0c0,0,0,0,0,0c0.3-0.1,0.6-0.4,0.7-0.7l0.3-0.7h0.6l0.3,0.7c0.1,0.3,0.4,0.6,0.7,0.7  c0.3,0.1,0.7,0.1,1,0l0.7-0.3L86.1,51.1z"></path><path class="st1" d="M82.8,51.7c-1.3,0-2.3,1-2.3,2.3c0,1.3,1,2.3,2.3,2.3c1.3,0,2.3-1,2.3-2.3C85.2,52.7,84.1,51.7,82.8,51.7z   M82.8,55c-0.5,0-1-0.4-1-1c0-0.5,0.4-1,1-1c0.5,0,1,0.4,1,1C83.8,54.5,83.4,55,82.8,55z"></path></svg>