<svg xmlns="http://www.w3.org/2000/svg" width="147" height="147" viewBox="0 0 147 147" fill="none"><g filter="url(#filter0_d_106_52)"><rect x="23.1926" y="24.1808" width="91.1695" height="91.1695" rx="45.5847" fill="white"></rect></g><path d="M81.8825 64.4355C81.5085 64.4355 81.2056 64.7386 81.2056 65.1124V87.2839C81.2056 88.9012 79.8898 90.2171 78.2724 90.2171H54.1858C52.5684 90.2171 51.2526 88.9012 51.2526 87.2839V69.6612C51.2526 69.2873 50.9496 68.9843 50.5757 68.9843C50.2018 68.9843 49.8988 69.2873 49.8988 69.6612V87.2839C49.8988 89.6477 51.822 91.5708 54.1858 91.5708H78.2724C80.6362 91.5708 82.5594 89.6477 82.5594 87.2839V65.1124C82.5594 64.7386 82.2564 64.4355 81.8825 64.4355Z" fill="#004AAF"></path><path d="M61.0901 82.3216V63.1241C61.0901 61.9685 60.1499 61.0284 58.9943 61.0284C57.8388 61.0284 56.8987 61.9686 56.8987 63.1241V82.3215C56.8987 83.4771 57.8388 84.4172 58.9943 84.4172C60.1499 84.4172 61.0901 83.4771 61.0901 82.3216ZM58.2526 82.3216V63.1241C58.2526 62.715 58.5854 62.3822 58.9944 62.3822C59.4035 62.3822 59.7364 62.7151 59.7364 63.1241V82.3215C59.7364 82.7306 59.4035 83.0634 58.9944 83.0634C58.5854 83.0635 58.2526 82.7306 58.2526 82.3216Z" fill="#004AAF"></path><path d="M68.3249 82.3216V63.1241C68.3249 61.9685 67.3848 61.0284 66.2292 61.0284C65.0736 61.0284 64.1335 61.9686 64.1335 63.1241V82.3215C64.1335 83.4771 65.0736 84.4172 66.2292 84.4172C67.3848 84.4172 68.3249 83.4771 68.3249 82.3216ZM65.4873 82.3216V63.1241C65.4873 62.715 65.8202 62.3822 66.2292 62.3822C66.6382 62.3822 66.9711 62.7151 66.9711 63.1241V82.3215C66.9711 82.7306 66.6382 83.0634 66.2292 83.0634C65.8202 83.0634 65.4873 82.7306 65.4873 82.3216Z" fill="#004AAF"></path><path d="M75.5594 82.3216V63.1241C75.5594 61.9685 74.6193 61.0284 73.4637 61.0284C72.3081 61.0284 71.368 61.9686 71.368 63.1241V82.3215C71.368 83.4771 72.3081 84.4172 73.4637 84.4172C74.6193 84.4172 75.5594 83.4771 75.5594 82.3216ZM72.7218 82.3216V63.1241C72.7218 62.715 73.0547 62.3822 73.4637 62.3822C73.8727 62.3822 74.2056 62.7151 74.2056 63.1241V82.3215C74.2056 82.7306 73.8727 83.0634 73.4637 83.0634C73.0547 83.0634 72.7218 82.7306 72.7218 82.3216Z" fill="#004AAF"></path><path d="M88.3237 47.3322C88.0355 47.0944 87.6087 47.1349 87.3708 47.4235C87.1328 47.7118 87.1736 48.1385 87.4621 48.3765C89.1447 49.7652 90.1098 51.8115 90.1098 53.9906C90.1098 58.0022 86.8462 61.2659 82.8346 61.2659C78.8231 61.2659 75.5594 58.0021 75.5594 53.9906C75.5594 49.9791 78.8231 46.7154 82.8346 46.7154C83.5213 46.7154 84.2005 46.8108 84.8533 46.9989C85.2127 47.1026 85.5877 46.8951 85.6912 46.5359C85.7946 46.1767 85.5874 45.8016 85.2282 45.6981C84.4535 45.4747 83.6482 45.3616 82.8346 45.3616C78.0765 45.3616 74.2056 49.2326 74.2056 53.9906C74.2056 54.1944 74.2132 54.3965 74.2272 54.5968H72.7643V48.746C72.7643 46.8798 71.246 45.3616 69.3798 45.3616H63.0784C61.2121 45.3616 59.6939 46.8798 59.6939 48.746V54.5968H54.1858C51.822 54.5968 49.8988 56.52 49.8988 58.8838V66.3687C49.8988 66.7426 50.2018 67.0456 50.5757 67.0456C50.9496 67.0456 51.2526 66.7426 51.2526 66.3687V58.8838C51.2526 57.2665 52.5684 55.9506 54.1858 55.9506H74.4302C75.3201 59.7676 78.7505 62.6197 82.8346 62.6197C87.5926 62.6197 91.4636 58.7487 91.4636 53.9907C91.4637 51.406 90.3192 48.9791 88.3237 47.3322ZM63.8852 49.4323H68.5728V54.5968H63.8852V49.4323ZM69.9267 51.5709H71.4105V54.5968H69.9267V51.5709ZM61.0477 48.746C61.0477 47.6263 61.9587 46.7154 63.0784 46.7154H69.3798C70.4995 46.7154 71.4105 47.6263 71.4105 48.746V50.2172H69.9267V49.2067C69.9267 48.5846 69.4207 48.0785 68.7986 48.0785H63.6596C63.0375 48.0785 62.5314 48.5846 62.5314 49.2067V50.2172H61.0477V48.746ZM61.0477 51.5709H62.5314V54.5968H61.0477V51.5709Z" fill="#004AAF"></path><path d="M84.5951 49.7405L84.2941 48.9405C84.1543 48.5694 83.7941 48.3201 83.3976 48.3201H82.2714C81.8747 48.3201 81.5144 48.5695 81.3749 48.9406L81.0739 49.7405L80.2957 49.3877C79.9343 49.224 79.5036 49.3025 79.2229 49.5828L78.4265 50.3793C78.1462 50.6596 78.0678 51.0906 78.2315 51.4518L78.5842 52.2302L77.7843 52.5312C77.4133 52.6708 77.1639 53.0311 77.1639 53.4276V54.5538C77.1639 54.9504 77.4133 55.3106 77.7844 55.4503L78.5842 55.7512L78.2315 56.5295C78.0679 56.8906 78.1462 57.3217 78.4267 57.6023L79.2229 58.3986C79.5033 58.679 79.9345 58.7574 80.2956 58.5937L81.0739 58.241L81.3748 59.0405C81.5144 59.4118 81.8747 59.6613 82.2714 59.6613H83.3976C83.7941 59.6613 84.1544 59.412 84.2942 59.0408L84.5951 58.241L85.3734 58.5937C85.7348 58.7574 86.1658 58.679 86.4462 58.3986L87.2423 57.6024C87.5228 57.322 87.6014 56.8909 87.4376 56.5296L87.0848 55.7513L87.8848 55.4503C88.2558 55.3107 88.5052 54.9504 88.5052 54.5538V53.4275C88.5052 53.031 88.2558 52.6708 87.8846 52.5311L87.0848 52.2302L87.4376 51.4517C87.6013 51.0905 87.5228 50.6593 87.2424 50.3791L86.446 49.5826C86.1656 49.3023 85.7346 49.224 85.3734 49.3876L84.5951 49.7405ZM86.0913 51.1426L85.7936 51.7997C85.6552 52.1047 85.6489 52.4573 85.7784 52.7718C85.9067 53.0827 86.1608 53.329 86.4756 53.4474L87.1514 53.7016V54.2796L86.4757 54.5339C86.1609 54.6523 85.9068 54.8986 85.7766 55.2141C85.649 55.5239 85.6552 55.8765 85.7935 56.1813L86.0914 56.8387L85.6828 57.2474L85.0178 56.946C84.7176 56.8099 84.3705 56.8041 84.0645 56.9301L84.0537 56.9345C83.7426 57.0627 83.4963 57.3169 83.378 57.6317L83.1238 58.3074H82.5458L82.2887 57.6241C82.172 57.314 81.9294 57.0638 81.6234 56.9377L81.6114 56.9328C81.3019 56.8051 80.9493 56.8111 80.6441 56.9495L79.9867 57.2474L79.578 56.8387L79.8759 56.1812C80.0143 55.876 80.0203 55.5234 79.8945 55.2185C79.8933 55.2155 79.8922 55.2126 79.8909 55.2095C79.7626 54.8985 79.5085 54.6522 79.1937 54.5339L78.518 54.2796V53.7016L79.1937 53.4474C79.5085 53.3289 79.7627 53.0826 79.8909 52.7718C79.8919 52.7694 79.8934 52.7655 79.8949 52.7618C80.0203 52.4535 80.0134 52.1035 79.8759 51.7999L79.578 51.1425L79.9867 50.7339L80.6442 51.0319C80.9492 51.1701 81.3017 51.1762 81.6037 51.0516C81.6063 51.0507 81.6131 51.0479 81.6157 51.0469C81.9267 50.9186 82.1731 50.6645 82.2915 50.3497L82.5457 49.6739H83.1237L83.3779 50.3497C83.4963 50.6645 83.7426 50.9186 84.058 51.0487C84.3679 51.1763 84.7202 51.1701 85.0254 51.0319L85.6827 50.734L86.0913 51.1426Z" fill="#004AAF"></path><path d="M82.8346 51.674C81.5572 51.674 80.5178 52.7132 80.5178 53.9906C80.5178 55.2681 81.5572 56.3073 82.8346 56.3073C84.112 56.3073 85.1513 55.2681 85.1513 53.9906C85.1513 52.7132 84.112 51.674 82.8346 51.674ZM82.8346 54.9536C82.3036 54.9536 81.8716 54.5217 81.8716 53.9907C81.8716 53.4598 82.3036 53.0278 82.8346 53.0278C83.3656 53.0278 83.7975 53.4598 83.7975 53.9907C83.7975 54.5217 83.3656 54.9536 82.8346 54.9536Z" fill="#004AAF"></path><defs><filter id="filter0_d_106_52" x="0.17003" y="0.398384" width="146.424" height="146.424" color-interpolation-filters="sRGB"><feGaussianBlur stdDeviation="13.8136"></feGaussianBlur></filter></defs></svg>