<svg xmlns="http://www.w3.org/2000/svg" width="273" height="272" viewBox="0 0 273 272" fill="none"><path d="M136.32 272C211.43 272 272.32 211.111 272.32 136C272.32 60.8893 211.43 0 136.32 0C61.2089 0 0.31958 60.8893 0.31958 136C0.31958 211.111 61.2089 272 136.32 272Z" fill="#E1177D" fill-opacity="0.1"></path><path d="M136.32 229.884C188.17 229.884 230.204 187.851 230.204 136C230.204 84.1494 188.17 42.1161 136.32 42.1161C84.469 42.1161 42.4358 84.1494 42.4358 136C42.4358 187.851 84.469 229.884 136.32 229.884Z" fill="#E1177D" fill-opacity="0.1"></path><path d="M136.32 192.155C167.333 192.155 192.474 167.013 192.474 136C192.474 104.987 167.333 79.8452 136.32 79.8452C105.306 79.8452 80.1648 104.987 80.1648 136C80.1648 167.013 105.306 192.155 136.32 192.155Z" fill="#E1177D"></path><path d="M119.868 162.323V109.677C119.868 107.05 122.797 105.482 124.983 106.94L164.467 133.262C166.421 134.565 166.421 137.435 164.467 138.738L124.983 165.06C122.797 166.518 119.868 164.951 119.868 162.323Z" fill="white"></path></svg>