<svg xmlns="http://www.w3.org/2000/svg" width="98" height="77" viewBox="0 0 98 77" fill="none"><path d="M86.819 23.1442C83.5683 23.1442 80.3186 23.1442 77.0697 23.1442C76.5827 23.1442 75.9916 23.2892 75.7617 22.6626C75.5538 22.0962 76.0737 21.8417 76.3911 21.5353C78.4598 19.6199 80.5339 17.7045 82.6326 15.811C82.9194 15.572 83.1501 15.2729 83.3085 14.9348C83.4669 14.5967 83.549 14.2279 83.5491 13.8546C83.6449 11.4603 83.8666 9.06885 84.0253 6.67462C84.0855 5.75797 84.4822 5.38858 85.325 5.91667C91.2846 9.64073 95.6736 14.6235 97.7066 21.4559C98.1718 23.0183 98.0322 23.1442 96.4424 23.1469H86.819" fill="#FF4B91"></path><path d="M97.9447 30.4145C97.9465 29.4028 97.5463 28.4319 96.8322 27.7153C96.1182 26.9987 95.1488 26.5951 94.1371 26.5933C93.1255 26.5915 92.1545 26.9916 91.4379 27.7056C90.7213 28.4197 90.3177 29.3892 90.3158 30.4008C90.318 35.3769 88.3433 40.1501 84.8262 43.6703C81.3091 47.1905 76.5378 49.1694 71.5616 49.1716C66.5855 49.1737 61.8123 47.1991 58.2921 43.6819C54.7719 40.1648 52.793 35.3933 52.7908 30.4172V30.4008C52.7908 29.3892 52.3889 28.419 51.6736 27.7036C50.9583 26.9883 49.9881 26.5864 48.9765 26.5864C47.9648 26.5864 46.9945 26.9883 46.2792 27.7036C45.5639 28.419 45.162 29.3892 45.162 30.4008V30.4172C45.1609 32.8811 44.6746 35.3207 43.7307 37.5967C42.7868 39.8727 41.4039 41.9404 39.6609 43.6819C37.9179 45.4234 35.8488 46.8046 33.572 47.7465C31.2952 48.6884 28.8553 49.1726 26.3913 49.1716C23.9274 49.1705 21.4878 48.6841 19.2118 47.7402C16.9359 46.7963 14.868 45.4134 13.1265 43.6703C9.6094 40.1501 7.63478 35.3769 7.63696 30.4008C7.63515 29.3892 7.23148 28.4197 6.51486 27.7056C5.79825 26.9916 4.82737 26.5915 3.81574 26.5933C2.80411 26.5951 1.83461 26.9987 1.12056 27.7153C0.406515 28.4319 0.0064055 29.4028 0.00821957 30.4145C0.00686301 30.4263 0.00686301 30.4382 0.00821957 30.45C0.0311198 36.2059 1.93533 41.7964 5.43058 46.3695C8.92583 50.9426 13.8204 54.2475 19.3684 55.7805C24.9164 57.3134 30.8134 56.9904 36.1608 54.8606C41.5081 52.7308 46.0126 48.9111 48.9874 43.9836C51.961 48.9131 56.4652 52.7349 61.8131 54.8661C67.1611 56.9972 73.0593 57.3209 78.6083 55.7876C84.1573 54.2543 89.0526 50.9483 92.5476 46.3737C96.0427 41.7991 97.9458 36.207 97.9666 30.45V30.4035" fill="#0048FF"></path><path d="M3.81708 23.161C4.31937 23.161 4.81675 23.0618 5.2806 22.8691C5.74446 22.6764 6.16566 22.3939 6.52007 22.038C6.87448 21.6821 7.15511 21.2596 7.34583 20.7949C7.53655 20.3303 7.63364 19.8325 7.63148 19.3302V3.94146C7.60485 2.94716 7.19114 2.00252 6.47845 1.30867C5.76577 0.614816 4.8104 0.226562 3.81574 0.226562C2.82108 0.226562 1.86571 0.614816 1.15303 1.30867C0.440343 2.00252 0.0266286 2.94716 0 3.94146V19.3302C-6.46434e-06 20.3438 0.4017 21.3161 1.11715 22.0342C1.8326 22.7522 2.80346 23.1574 3.81708 23.161Z" fill="#0048FF"></path><path d="M45.173 19.672C45.173 19.7157 45.1731 19.7595 45.1868 19.8033L45.2197 20.0167C45.2361 20.0988 45.2524 20.1809 45.2743 20.2603C45.2962 20.3396 45.2934 20.3451 45.3044 20.3861C45.3153 20.4272 45.3481 20.5229 45.3728 20.5913C45.5426 21.0751 45.8078 21.5199 46.1526 21.8993C46.2385 21.9957 46.3299 22.087 46.4263 22.1729L46.4646 22.2057L46.6069 22.3234C46.6525 22.3614 46.7 22.397 46.7492 22.4301L46.9024 22.5341L47.0803 22.6435L47.1706 22.6955C47.2581 22.742 47.3484 22.7831 47.4442 22.8241L47.5262 22.857C47.622 22.898 47.7205 22.9336 47.8218 22.9664H47.8656C47.9586 22.9965 48.0544 23.0184 48.1392 23.0403L48.2158 23.0567C48.3198 23.0786 48.4237 23.0923 48.5304 23.106H48.6153C48.722 23.106 48.8342 23.1224 48.9437 23.1224H48.9628C49.0832 23.1224 49.2009 23.1224 49.3186 23.1032H49.4116C49.4991 23.1032 49.5839 23.0813 49.6688 23.0649L49.7837 23.0403C49.8575 23.0239 49.9342 23.0047 50.0081 22.9828L50.1257 22.95L50.3556 22.8652C50.435 22.8323 50.5143 22.7995 50.5909 22.7612C50.6675 22.7229 50.6757 22.7229 50.714 22.701C50.7523 22.6791 50.8426 22.6299 50.9056 22.5943L50.9849 22.545C51.0533 22.5013 51.1217 22.4575 51.1847 22.411L51.223 22.3809C51.5282 22.1564 51.7975 21.887 52.022 21.5819L52.0439 21.5545C52.0931 21.4861 52.1396 21.4177 52.1834 21.3466C52.2023 21.3183 52.2196 21.2891 52.2353 21.259C52.2709 21.2015 52.3038 21.1468 52.3366 21.0866C52.4395 20.8956 52.5256 20.696 52.5938 20.4901C54.0829 16.0906 57.1497 12.3991 61.2018 10.129C65.2539 7.85887 70.0037 7.17117 74.5332 8.1988C75.5173 8.43393 76.5544 8.26851 77.4165 7.73894C78.2786 7.20937 78.895 6.35902 79.1301 5.37497C79.3652 4.39092 79.1998 3.35376 78.6702 2.49167C78.1407 1.62958 77.2904 1.01318 76.3063 0.77805C72.1848 -0.173585 67.8948 -0.118912 63.7989 0.937451C59.703 1.99382 55.9216 4.02081 52.7745 6.84708V3.91928C52.7881 3.40959 52.6995 2.90234 52.5139 2.42746C52.3283 1.95258 52.0494 1.5197 51.6937 1.15437C51.338 0.789045 50.9128 0.498681 50.443 0.300415C49.9733 0.102148 49.4685 0 48.9586 0C48.4488 0 47.9441 0.102148 47.4744 0.300415C47.0047 0.498681 46.5794 0.789045 46.2237 1.15437C45.868 1.5197 45.5891 1.95258 45.4035 2.42746C45.2179 2.90234 45.1293 3.40959 45.143 3.91928V19.3299C45.143 19.3491 45.143 19.371 45.143 19.3929C45.143 19.4832 45.1431 19.5707 45.1567 19.6665" fill="#0048FF"></path><path d="M2.61039 73.2835L0.40768 66.9408C0.338612 66.7405 0.298998 66.5313 0.290039 66.3197C0.292459 66.1622 0.326383 66.0068 0.389843 65.8626C0.453304 65.7185 0.545013 65.5885 0.659528 65.4804C0.774043 65.3722 0.909057 65.2881 1.05661 65.233C1.20416 65.1779 1.36125 65.1529 1.51862 65.1595C1.80735 65.1592 2.08763 65.257 2.31338 65.437C2.53913 65.617 2.69694 65.8685 2.76089 66.15L4.12903 70.7223L5.54092 66.1664C5.61279 65.8735 5.78114 65.6133 6.01889 65.4276C6.25664 65.242 6.54996 65.1418 6.8516 65.1431H7.0021C7.30396 65.1421 7.59743 65.2424 7.83554 65.4279C8.07366 65.6135 8.24266 65.8735 8.31552 66.1664L9.74385 70.7387L11.1557 66.1336C11.2177 65.8555 11.3733 65.607 11.5964 65.4297C11.8195 65.2524 12.0966 65.1571 12.3816 65.1595C12.5381 65.155 12.6938 65.1823 12.8395 65.2397C12.9852 65.297 13.1177 65.3832 13.2292 65.4932C13.3406 65.6031 13.4287 65.7345 13.4881 65.8793C13.5475 66.0242 13.5769 66.1796 13.5746 66.3361C13.5672 66.512 13.5397 66.6864 13.4925 66.856L11.2214 73.2944C10.9478 74.0852 10.4334 74.4382 9.80951 74.4382H9.72741C9.10355 74.4382 8.58365 74.0852 8.35928 73.3437L6.92 68.796L5.47251 73.3327C5.23719 74.0742 4.7173 74.4272 4.10438 74.4272H4.01954C3.3984 74.4272 2.8758 74.0742 2.60765 73.2835" fill="#000E3D"></path><path d="M19.2661 74.4604C16.56 74.4604 14.5597 72.5614 14.5597 69.8087V69.7759C14.5597 67.2038 16.3931 65.0859 19.0144 65.0859C22.0243 65.0859 23.3513 67.5486 23.3513 69.4229C23.36 69.5835 23.3355 69.7442 23.2791 69.8949C23.2227 70.0455 23.1357 70.1829 23.0237 70.2983C22.9116 70.4137 22.7769 70.5046 22.6279 70.5654C22.479 70.6262 22.3191 70.6555 22.1583 70.6515H17.099C17.1791 71.1652 17.4477 71.6307 17.8524 71.957C18.2572 72.2833 18.769 72.4471 19.288 72.4164C19.9444 72.4219 20.5837 72.2081 21.1048 71.8089C21.2818 71.6711 21.5018 71.6003 21.726 71.6092C21.8582 71.6069 21.9895 71.6315 22.1119 71.6815C22.2344 71.7314 22.3455 71.8058 22.4383 71.8999C22.5312 71.9941 22.604 72.1061 22.6522 72.2292C22.7005 72.3523 22.7234 72.484 22.7193 72.6161C22.7197 72.7591 22.6899 72.9004 22.6319 73.0311C22.5739 73.1617 22.4889 73.2786 22.3826 73.3741C21.5084 74.108 20.3962 74.4972 19.2552 74.4686M20.8969 69.0563C20.7464 67.9125 20.0761 67.1409 18.998 67.1409C17.9199 67.1409 17.2494 67.8961 17.0469 69.0563H20.8969Z" fill="#000E3D"></path><path d="M25.2995 63.165C25.2995 62.8261 25.4341 62.5011 25.6737 62.2615C25.9133 62.0218 26.2384 61.8872 26.5773 61.8872C26.9162 61.8872 27.2412 62.0218 27.4809 62.2615C27.7205 62.5011 27.8551 62.8261 27.8551 63.165V66.5443C28.163 66.0847 28.5815 65.7098 29.072 65.454C29.5625 65.1982 30.1095 65.0698 30.6626 65.0804C32.764 65.0804 34.767 66.7222 34.767 69.7321V69.7649C34.767 72.7748 32.7996 74.4166 30.6626 74.4166C30.122 74.427 29.5865 74.3107 29.099 74.0769C28.6114 73.8431 28.1854 73.4984 27.8551 73.0703V73.0867C27.8529 73.4256 27.7163 73.7498 27.4751 73.9879C27.2339 74.226 26.908 74.3585 26.5691 74.3564C26.2302 74.3542 25.9061 74.2175 25.668 73.9763C25.4299 73.7351 25.2973 73.4092 25.2995 73.0703V63.165ZM32.2085 69.7704V69.7375C32.2085 68.2408 31.1989 67.2503 30.0059 67.2503C28.8129 67.2503 27.8169 68.2408 27.8169 69.7375V69.7704C27.8169 71.2671 28.8074 72.2576 30.0059 72.2576C31.2044 72.2576 32.2085 71.2835 32.2085 69.7704Z" fill="#0048FF"></path><path d="M36.198 69.8029V69.77C36.198 67.1815 38.283 65.0801 41.0904 65.0801C43.8978 65.0801 45.9473 67.1487 45.9473 69.7317V69.7646C45.9473 72.3531 43.8649 74.4545 41.0575 74.4545C38.2501 74.4545 36.198 72.3859 36.198 69.8029ZM43.4272 69.8029V69.77C43.4272 68.443 42.4695 67.2828 41.0575 67.2828C39.5936 67.2828 38.7209 68.4074 38.7209 69.7454V69.7782C38.7209 71.1053 39.6785 72.2655 41.0904 72.2655C42.5516 72.2655 43.4272 71.1409 43.4272 69.8029Z" fill="#0048FF"></path><path d="M47.3674 69.8029V69.77C47.3674 67.1815 49.4526 65.0801 52.26 65.0801C55.0674 65.0801 57.1168 67.1487 57.1168 69.7317V69.7646C57.1168 72.3531 55.0317 74.4545 52.2243 74.4545C49.4169 74.4545 47.3674 72.3859 47.3674 69.8029ZM54.594 69.8029V69.77C54.594 68.443 53.6362 67.2828 52.2243 67.2828C50.7631 67.2828 49.8875 68.4074 49.8875 69.7454V69.7782C49.8875 71.1053 50.8453 72.2655 52.26 72.2655C53.7211 72.2655 54.594 71.1409 54.594 69.8029Z" fill="#0048FF"></path><path d="M58.9639 63.165C58.9639 62.8261 59.0985 62.5011 59.3381 62.2615C59.5777 62.0218 59.9028 61.8872 60.2417 61.8872C60.5806 61.8872 60.9056 62.0218 61.1453 62.2615C61.3849 62.5011 61.5195 62.8261 61.5195 63.165V68.7443L64.7127 65.7207C65.0821 65.3677 65.3858 65.1488 65.8373 65.1488C65.9869 65.1473 66.1353 65.1759 66.2736 65.2329C66.412 65.2899 66.5375 65.3741 66.6426 65.4805C66.7478 65.587 66.8305 65.7135 66.8858 65.8525C66.9411 65.9915 66.9679 66.1403 66.9646 66.2898C66.9509 66.5061 66.8913 66.717 66.7899 66.9085C66.6885 67.1001 66.5475 67.2678 66.3764 67.4008L64.3597 69.1328L66.7622 72.3753C66.9578 72.6054 67.0705 72.8944 67.0823 73.1962C67.0824 73.3513 67.0513 73.5049 66.991 73.6479C66.9306 73.7908 66.8422 73.9202 66.731 74.0284C66.6197 74.1366 66.4879 74.2213 66.3434 74.2777C66.1988 74.334 66.0443 74.3607 65.8892 74.3564C65.6681 74.3686 65.4478 74.3203 65.2521 74.2166C65.0563 74.113 64.8926 73.9579 64.7784 73.7681L62.5456 70.6925L61.5195 71.6174V73.0785C61.5195 73.4174 61.3849 73.7424 61.1453 73.9821C60.9056 74.2217 60.5806 74.3564 60.2417 74.3564C59.9028 74.3564 59.5777 74.2217 59.3381 73.9821C59.0985 73.7424 58.9639 73.4174 58.9639 73.0785V63.165Z" fill="#0048FF"></path><path d="M69.2329 76.764C69.0021 76.6983 68.7986 76.5597 68.6531 76.3688C68.5076 76.1779 68.4278 75.945 68.4257 75.705C68.4228 75.5701 68.4468 75.4359 68.4961 75.3102C68.5454 75.1846 68.619 75.07 68.7129 74.973C68.8068 74.876 68.9191 74.7987 69.0431 74.7454C69.1671 74.6921 69.3005 74.6639 69.4355 74.6625C69.5778 74.6595 69.7195 74.6818 69.8541 74.7282C70.0294 74.7928 70.2145 74.8271 70.4013 74.8294C70.593 74.8604 70.7895 74.8224 70.9558 74.7222C71.1221 74.622 71.2475 74.4661 71.3097 74.2822L71.3919 74.0824L68.3163 66.9681C68.2403 66.7805 68.1951 66.5818 68.1823 66.3798C68.1799 66.2152 68.211 66.0517 68.274 65.8996C68.3371 65.7474 68.4305 65.6097 68.5486 65.4949C68.6667 65.3802 68.807 65.2907 68.9609 65.2321C69.1148 65.1735 69.2791 65.1469 69.4436 65.154C70.0812 65.154 70.4533 65.5069 70.6695 66.1117L72.6204 71.3571L74.5057 66.1199C74.7082 65.5726 75.0776 65.1458 75.7316 65.1458C75.8887 65.1425 76.0448 65.1704 76.191 65.228C76.3373 65.2855 76.4706 65.3715 76.5833 65.4809C76.6961 65.5904 76.786 65.7211 76.8479 65.8655C76.9097 66.01 76.9424 66.1652 76.9438 66.3224C76.9365 66.5288 76.8967 66.7329 76.8261 66.9271L73.6848 74.4764C72.9296 76.3097 72.1717 76.9993 70.6421 76.9993C70.1664 77.0074 69.6933 76.9276 69.2466 76.764" fill="#FF4B91"></path><path d="M77.8713 69.8029V69.77C77.8713 67.1815 79.9565 65.0801 82.7639 65.0801C85.5713 65.0801 87.6208 67.1487 87.6208 69.7317V69.7646C87.6208 72.3531 85.5384 74.4545 82.731 74.4545C79.9236 74.4545 77.8713 72.3859 77.8713 69.8029ZM85.1007 69.8029V69.77C85.1007 68.443 84.1429 67.2828 82.731 67.2828C81.2671 67.2828 80.3942 68.4074 80.3942 69.7454V69.7782C80.3942 71.1053 81.352 72.2655 82.7639 72.2655C84.225 72.2655 85.1007 71.1409 85.1007 69.8029Z" fill="#FF4B91"></path><path d="M97.6546 73.0809C97.6626 73.2535 97.6355 73.4259 97.575 73.5878C97.5144 73.7496 97.4216 73.8975 97.3023 74.0224C97.183 74.1474 97.0396 74.2469 96.8807 74.3148C96.7219 74.3828 96.5509 74.4179 96.3781 74.4179C96.2053 74.4179 96.0343 74.3828 95.8755 74.3148C95.7166 74.2469 95.5731 74.1474 95.4538 74.0224C95.3345 73.8975 95.2418 73.7496 95.1813 73.5878C95.1207 73.4259 95.0936 73.2535 95.1016 73.0809V72.9797C94.5133 73.7376 93.7554 74.4271 92.4612 74.4271C90.5294 74.4271 89.402 73.1493 89.402 71.0807V66.429C89.402 66.0901 89.5366 65.7651 89.7762 65.5255C90.0159 65.2858 90.3409 65.1512 90.6798 65.1512C91.0187 65.1512 91.3437 65.2858 91.5834 65.5255C91.823 65.7651 91.9576 66.0901 91.9576 66.429V70.2762C91.9576 71.4884 92.5296 72.1095 93.5037 72.1095C94.4778 72.1095 95.1016 71.4884 95.1016 70.2762V66.4263C95.0936 66.2537 95.1207 66.0813 95.1813 65.9195C95.2418 65.7576 95.3345 65.6098 95.4538 65.4848C95.5731 65.3598 95.7166 65.2603 95.8755 65.1924C96.0343 65.1244 96.2053 65.0894 96.3781 65.0894C96.5509 65.0894 96.7219 65.1244 96.8807 65.1924C97.0396 65.2603 97.183 65.3598 97.3023 65.4848C97.4216 65.6098 97.5144 65.7576 97.575 65.9195C97.6355 66.0813 97.6626 66.2537 97.6546 66.4263V73.0809Z" fill="#FF4B91"></path></svg>