<svg xmlns="http://www.w3.org/2000/svg" width="108" height="28" viewBox="0 0 108 28" fill="none"><rect x="0.367676" y="1.12744" width="107" height="26" rx="13" fill="#F6E6EE"></rect><path d="M21.0282 17.1178C21.0282 17.9388 20.8161 18.6299 20.3919 19.1909C19.9677 19.7383 19.393 20.1556 18.6677 20.443C17.9562 20.7303 17.1762 20.874 16.3278 20.874H9.28749V6.30078H17.0873C17.7714 6.30078 18.3599 6.48551 18.8525 6.85498C19.3588 7.21075 19.7419 7.676 20.0019 8.25072C20.2756 8.81176 20.4124 9.40016 20.4124 10.0159C20.4124 10.7138 20.2345 11.3775 19.8788 12.0069C19.523 12.6364 19.003 13.1016 18.3188 13.4027C19.1535 13.649 19.8103 14.0937 20.2893 14.7368C20.7819 15.38 21.0282 16.1736 21.0282 17.1178ZM18.1751 16.5842C18.1751 16.2147 18.0999 15.8863 17.9493 15.5989C17.7988 15.2979 17.5936 15.0653 17.3336 14.901C17.0873 14.7232 16.7999 14.6342 16.4715 14.6342H12.12V18.4725H16.3278C16.6699 18.4725 16.9778 18.3904 17.2515 18.2262C17.5388 18.0483 17.7646 17.8157 17.9288 17.5283C18.093 17.241 18.1751 16.9262 18.1751 16.5842ZM12.12 8.72281V12.3969H15.8968C16.2115 12.3969 16.4989 12.3217 16.7588 12.1711C17.0188 12.0206 17.2241 11.8085 17.3746 11.5348C17.5388 11.2612 17.6209 10.9327 17.6209 10.5496C17.6209 10.1801 17.5457 9.85857 17.3951 9.58489C17.2583 9.31122 17.0667 9.09912 16.8204 8.9486C16.5878 8.79807 16.321 8.72281 16.0199 8.72281H12.12ZM22.829 16.851V10.1186H25.5794V16.2557C25.5794 17.0768 25.73 17.6994 26.031 18.1236C26.3321 18.5341 26.7768 18.7394 27.3652 18.7394C27.721 18.7394 28.0699 18.6709 28.412 18.5341C28.7678 18.3836 29.0893 18.1646 29.3767 17.8773C29.6777 17.5899 29.9309 17.2273 30.1361 16.7894V10.1186H32.8866V17.7952C32.8866 18.0825 32.9345 18.2878 33.0303 18.4109C33.1397 18.5341 33.3108 18.6094 33.5434 18.6367V20.874C33.2697 20.9151 33.0371 20.9424 32.8455 20.9561C32.6676 20.9835 32.5034 20.9972 32.3529 20.9972C31.8603 20.9972 31.4566 20.8877 31.1419 20.6688C30.8409 20.4361 30.663 20.1214 30.6082 19.7246L30.5467 18.8625C30.0677 19.5877 29.452 20.1419 28.6993 20.5251C27.9467 20.8945 27.1189 21.0793 26.2157 21.0793C25.1074 21.0793 24.2658 20.7235 23.6911 20.0119C23.1164 19.2867 22.829 18.2331 22.829 16.851ZM39.5813 21.0793C38.6645 21.0793 37.7888 20.9288 36.954 20.6277C36.1193 20.3267 35.4009 19.8819 34.7988 19.2935L35.7841 17.5078C36.4272 18.0278 37.0567 18.4109 37.6724 18.6572C38.3019 18.9036 38.904 19.0267 39.4787 19.0267C40.0124 19.0267 40.4366 18.9309 40.7513 18.7394C41.0797 18.5478 41.2439 18.2604 41.2439 17.8773C41.2439 17.6173 41.155 17.4189 40.9771 17.282C40.7992 17.1315 40.5392 17.0015 40.1971 16.892C39.8687 16.7826 39.465 16.6594 38.9861 16.5226C38.1924 16.2626 37.5288 16.0094 36.9951 15.7631C36.4614 15.5168 36.0578 15.2089 35.7841 14.8395C35.5241 14.4563 35.3941 13.9705 35.3941 13.3821C35.3941 12.6706 35.572 12.0617 35.9278 11.5554C36.2972 11.0354 36.8035 10.6317 37.4467 10.3443C38.1035 10.057 38.8698 9.9133 39.7455 9.9133C40.5118 9.9133 41.2371 10.0365 41.9213 10.2828C42.6055 10.5154 43.2281 10.8985 43.7891 11.4322L42.6807 13.1769C42.1334 12.7527 41.6134 12.4448 41.1208 12.2532C40.6281 12.048 40.1287 11.9453 39.6224 11.9453C39.335 11.9453 39.0613 11.9796 38.8014 12.048C38.555 12.1164 38.3498 12.2327 38.1856 12.3969C38.0351 12.5474 37.9598 12.7664 37.9598 13.0537C37.9598 13.3137 38.0282 13.519 38.1651 13.6695C38.3156 13.8063 38.5345 13.9295 38.8219 14.039C39.1229 14.1484 39.4855 14.2716 39.9097 14.4084C40.7718 14.6547 41.4971 14.9079 42.0855 15.1679C42.6876 15.4279 43.1391 15.7494 43.4402 16.1326C43.7412 16.5021 43.8917 17.0152 43.8917 17.672C43.8917 18.7394 43.5017 19.5741 42.7218 20.1761C41.9418 20.7782 40.895 21.0793 39.5813 21.0793ZM45.7625 20.874V10.1186H48.5129V20.874H45.7625ZM45.7625 8.62019V5.89027H48.5129V8.62019H45.7625ZM60.9901 20.874H58.2397V14.8395C58.2397 13.9774 58.0891 13.3479 57.7881 12.9511C57.4871 12.5543 57.0697 12.3559 56.536 12.3559C56.1666 12.3559 55.7903 12.4516 55.4071 12.6432C55.0377 12.8348 54.7024 13.1016 54.4014 13.4437C54.1003 13.7721 53.8814 14.1553 53.7445 14.5932V20.874H50.9941V10.1186H53.4777V12.1096C53.7514 11.6443 54.1003 11.2543 54.5245 10.9396C54.9487 10.6112 55.4345 10.3649 55.9818 10.2007C56.5429 10.0228 57.1313 9.93383 57.747 9.93383C58.4176 9.93383 58.9649 10.057 59.3891 10.3033C59.827 10.5359 60.1554 10.8575 60.3743 11.268C60.607 11.6648 60.7643 12.1164 60.8464 12.6227C60.9422 13.129 60.9901 13.6421 60.9901 14.1621V20.874ZM68.3694 21.0793C67.5073 21.0793 66.7274 20.9356 66.0295 20.6482C65.3316 20.3472 64.7364 19.9435 64.2438 19.4372C63.7511 18.9172 63.368 18.3288 63.0943 17.672C62.8343 17.0015 62.7043 16.2968 62.7043 15.5579C62.7043 14.5316 62.9301 13.5942 63.3817 12.7458C63.8469 11.8975 64.5037 11.2201 65.3521 10.7138C66.2142 10.1938 67.2268 9.93383 68.3899 9.93383C69.5667 9.93383 70.5725 10.1938 71.4072 10.7138C72.2419 11.2201 72.8782 11.8975 73.3161 12.7458C73.7677 13.5806 73.9935 14.4837 73.9935 15.4552C73.9935 15.6194 73.9866 15.7905 73.9729 15.9684C73.9592 16.1326 73.9456 16.2694 73.9319 16.3789H65.619C65.6737 16.9262 65.8311 17.4052 66.0911 17.8157C66.3647 18.2262 66.7068 18.5409 67.1173 18.7599C67.5415 18.9651 67.9931 19.0678 68.472 19.0678C69.0194 19.0678 69.5325 18.9378 70.0115 18.6778C70.5041 18.4041 70.8393 18.0483 71.0172 17.6104L73.3777 18.2673C73.1177 18.8146 72.7414 19.3004 72.2488 19.7246C71.7698 20.1488 71.202 20.484 70.5451 20.7303C69.8883 20.963 69.1631 21.0793 68.3694 21.0793ZM65.5574 14.6342H71.1814C71.1267 14.0869 70.9693 13.6148 70.7093 13.2179C70.463 12.8074 70.1346 12.4927 69.7241 12.2738C69.3136 12.0411 68.8552 11.9248 68.3489 11.9248C67.8563 11.9248 67.4047 12.0411 66.9942 12.2738C66.5974 12.4927 66.269 12.8074 66.009 13.2179C65.7627 13.6148 65.6121 14.0869 65.5574 14.6342ZM79.6305 21.0793C78.7137 21.0793 77.8379 20.9288 77.0032 20.6277C76.1685 20.3267 75.4501 19.8819 74.848 19.2935L75.8332 17.5078C76.4764 18.0278 77.1058 18.4109 77.7216 18.6572C78.351 18.9036 78.9531 19.0267 79.5279 19.0267C80.0615 19.0267 80.4857 18.9309 80.8004 18.7394C81.1289 18.5478 81.2931 18.2604 81.2931 17.8773C81.2931 17.6173 81.2041 17.4189 81.0262 17.282C80.8483 17.1315 80.5883 17.0015 80.2463 16.892C79.9178 16.7826 79.5142 16.6594 79.0352 16.5226C78.2416 16.2626 77.5779 16.0094 77.0442 15.7631C76.5106 15.5168 76.1069 15.2089 75.8332 14.8395C75.5732 14.4563 75.4432 13.9705 75.4432 13.3821C75.4432 12.6706 75.6211 12.0617 75.9769 11.5554C76.3464 11.0354 76.8527 10.6317 77.4958 10.3443C78.1526 10.057 78.9189 9.9133 79.7947 9.9133C80.561 9.9133 81.2862 10.0365 81.9704 10.2828C82.6546 10.5154 83.2772 10.8985 83.8382 11.4322L82.7299 13.1769C82.1825 12.7527 81.6625 12.4448 81.1699 12.2532C80.6773 12.048 80.1778 11.9453 79.6715 11.9453C79.3842 11.9453 79.1105 11.9796 78.8505 12.048C78.6042 12.1164 78.3989 12.2327 78.2347 12.3969C78.0842 12.5474 78.009 12.7664 78.009 13.0537C78.009 13.3137 78.0774 13.519 78.2142 13.6695C78.3647 13.8063 78.5837 13.9295 78.871 14.039C79.1721 14.1484 79.5347 14.2716 79.9589 14.4084C80.821 14.6547 81.5462 14.9079 82.1346 15.1679C82.7367 15.4279 83.1883 15.7494 83.4893 16.1326C83.7904 16.5021 83.9409 17.0152 83.9409 17.672C83.9409 18.7394 83.5509 19.5741 82.7709 20.1761C81.9909 20.7782 80.9441 21.0793 79.6305 21.0793ZM89.7731 21.0793C88.8562 21.0793 87.9805 20.9288 87.1458 20.6277C86.3111 20.3267 85.5927 19.8819 84.9906 19.2935L85.9758 17.5078C86.6189 18.0278 87.2484 18.4109 87.8642 18.6572C88.4936 18.9036 89.0957 19.0267 89.6704 19.0267C90.2041 19.0267 90.6283 18.9309 90.943 18.7394C91.2714 18.5478 91.4356 18.2604 91.4356 17.8773C91.4356 17.6173 91.3467 17.4189 91.1688 17.282C90.9909 17.1315 90.7309 17.0015 90.3888 16.892C90.0604 16.7826 89.6567 16.6594 89.1778 16.5226C88.3842 16.2626 87.7205 16.0094 87.1868 15.7631C86.6532 15.5168 86.2495 15.2089 85.9758 14.8395C85.7158 14.4563 85.5858 13.9705 85.5858 13.3821C85.5858 12.6706 85.7637 12.0617 86.1195 11.5554C86.4889 11.0354 86.9952 10.6317 87.6384 10.3443C88.2952 10.057 89.0615 9.9133 89.9373 9.9133C90.7036 9.9133 91.4288 10.0365 92.113 10.2828C92.7972 10.5154 93.4198 10.8985 93.9808 11.4322L92.8724 13.1769C92.3251 12.7527 91.8051 12.4448 91.3125 12.2532C90.8199 12.048 90.3204 11.9453 89.8141 11.9453C89.5267 11.9453 89.2531 11.9796 88.9931 12.048C88.7468 12.1164 88.5415 12.2327 88.3773 12.3969C88.2268 12.5474 88.1515 12.7664 88.1515 13.0537C88.1515 13.3137 88.2199 13.519 88.3568 13.6695C88.5073 13.8063 88.7262 13.9295 89.0136 14.039C89.3147 14.1484 89.6773 14.2716 90.1015 14.4084C90.9635 14.6547 91.6888 14.9079 92.2772 15.1679C92.8793 15.4279 93.3308 15.7494 93.6319 16.1326C93.9329 16.5021 94.0835 17.0152 94.0835 17.672C94.0835 18.7394 93.6935 19.5741 92.9135 20.1761C92.1335 20.7782 91.0867 21.0793 89.7731 21.0793Z" fill="#1E293B"></path></svg>