<svg xmlns="http://www.w3.org/2000/svg" width="92" height="92" viewBox="0 0 92 92" fill="none"><circle cx="46.0672" cy="45.868" r="45.5847" fill="#F8FAFC"></circle><path d="M62.3558 77.3965H22.847C22.1775 77.3965 21.6348 76.8537 21.6348 76.1842V25.5599L33.7981 13.3965H62.3556C63.0251 13.3965 63.5679 13.9392 63.5679 14.6087V76.1842C63.568 76.8537 63.0253 77.3965 62.3558 77.3965Z" fill="url(#paint0_linear_170_224)"></path><path d="M21.6348 53.076L61.3143 13.3965H33.7981L21.6348 25.5599V53.076Z" fill="url(#paint1_linear_170_224)"></path><path d="M33.3076 13.5169C27.6061 14.9157 23.1544 19.3672 21.7553 25.0689L21.6348 25.5599V27.2121C21.6348 26.2996 22.3745 25.5599 23.287 25.5599H32.5859C33.2554 25.5599 33.7981 25.0171 33.7981 24.3476V15.0487C33.7981 14.1362 34.5379 13.3965 35.4504 13.3965H33.7981L33.3076 13.5169Z" fill="url(#paint2_linear_170_224)"></path><path d="M21.6348 63.4678V76.1846C21.6348 76.8541 22.1775 77.3969 22.847 77.3969H62.3556C63.0251 77.3969 63.5679 76.8541 63.5679 76.1846V63.4678H21.6348Z" fill="url(#paint3_linear_170_224)"></path><path d="M62.3561 13.3965H48.999V77.3965H62.356C63.0255 77.3965 63.5683 76.8537 63.5683 76.1842V14.6087C63.5684 13.9392 63.0256 13.3965 62.3561 13.3965Z" fill="url(#paint4_linear_170_224)"></path><path d="M56.6838 49.9956H28.5188C28.0759 49.9956 27.7168 49.6366 27.7168 49.1936C27.7168 48.7507 28.0758 48.3916 28.5188 48.3916H56.6837C57.1265 48.3916 57.4857 48.7506 57.4857 49.1936C57.4857 49.6366 57.1267 49.9956 56.6838 49.9956Z" fill="url(#paint5_linear_170_224)"></path><path d="M56.6838 55.5093H28.5188C28.0759 55.5093 27.7168 55.1503 27.7168 54.7073C27.7168 54.2644 28.0758 53.9053 28.5188 53.9053H56.6837C57.1265 53.9053 57.4857 54.2643 57.4857 54.7073C57.4857 55.1503 57.1267 55.5093 56.6838 55.5093Z" fill="url(#paint6_linear_170_224)"></path><path d="M56.6838 61.0239H28.5188C28.0759 61.0239 27.7168 60.6649 27.7168 60.2219C27.7168 59.779 28.0758 59.4199 28.5188 59.4199H56.6837C57.1265 59.4199 57.4857 59.7789 57.4857 60.2219C57.4857 60.6649 57.1267 61.0239 56.6838 61.0239Z" fill="url(#paint7_linear_170_224)"></path><path d="M56.6838 66.5376H28.5188C28.0759 66.5376 27.7168 66.1786 27.7168 65.7356C27.7168 65.2927 28.0758 64.9336 28.5188 64.9336H56.6837C57.1265 64.9336 57.4857 65.2926 57.4857 65.7356C57.4857 66.1785 57.1267 66.5376 56.6838 66.5376Z" fill="url(#paint8_linear_170_224)"></path><path d="M42.6017 41.7777C48.212 41.7777 52.7601 37.2296 52.7601 31.6193C52.7601 26.009 48.212 21.4609 42.6017 21.4609C36.9914 21.4609 32.4434 26.009 32.4434 31.6193C32.4434 37.2296 36.9914 41.7777 42.6017 41.7777Z" fill="white"></path><path d="M51.5379 41.0683C51.5379 41.264 51.4586 41.4414 51.3303 41.5697C51.2021 41.6981 51.0246 41.7774 50.8288 41.7774H48.3097H36.8926H34.3733C33.9818 41.7774 33.6641 41.4601 33.6641 41.0681C33.6641 39.1767 34.4308 37.4645 35.6702 36.2249C36.9099 34.9856 38.6222 34.2188 40.5134 34.2188H44.6884C48.4713 34.2189 51.5379 37.2855 51.5379 41.0683Z" fill="url(#paint9_linear_170_224)"></path><path d="M44.6881 34.2188H42.6006V41.7773H48.3092H50.8283C51.0241 41.7773 51.2015 41.6979 51.3298 41.5696C51.4582 41.4412 51.5375 41.2639 51.5375 41.0681C51.5375 37.2854 48.4708 34.2188 44.6881 34.2188Z" fill="url(#paint10_linear_170_224)"></path><path d="M44.6881 34.2188H42.6006V41.7773H48.3092H50.8283C51.0241 41.7773 51.2015 41.6979 51.3298 41.5696C51.4582 41.4412 51.5375 41.2639 51.5375 41.0681C51.5375 37.2854 48.4708 34.2188 44.6881 34.2188Z" fill="url(#paint11_linear_170_224)"></path><path d="M42.6012 33.8301H40.2607L40.3469 34.9912L42.6012 36.1706L44.8555 34.9912L44.9417 33.8301H42.6012Z" fill="url(#paint12_linear_170_224)"></path><path d="M42.6012 33.8301H40.2607L40.3469 34.9912L42.6012 36.1706L44.8555 34.9912L44.9417 33.8301H42.6012Z" fill="url(#paint13_linear_170_224)"></path><path d="M42.6012 33.8301H40.2607L40.3469 34.9912L42.6012 36.1706L44.8555 34.9912L44.9417 33.8301H42.6012Z" fill="url(#paint14_linear_170_224)"></path><path d="M42.6013 36.1706L40.2608 33.8301L39.5998 34.1232C39.4782 34.1772 39.4181 34.3151 39.4612 34.441L40.2992 36.884C40.3638 37.0722 40.5788 37.1612 40.7576 37.0737L42.6013 36.1706Z" fill="url(#paint15_linear_170_224)"></path><path d="M42.6013 36.1706L40.2608 33.8301L39.5998 34.1232C39.4782 34.1772 39.4181 34.3151 39.4612 34.441L40.2992 36.884C40.3638 37.0722 40.5788 37.1612 40.7576 37.0737L42.6013 36.1706Z" fill="url(#paint16_linear_170_224)"></path><path d="M42.6016 36.1706L44.9421 33.8301L45.6031 34.1233C45.7247 34.1773 45.7848 34.3152 45.7417 34.4411L44.9037 36.8841C44.8391 37.0723 44.6241 37.1613 44.4453 37.0738L42.6016 36.1706Z" fill="url(#paint17_linear_170_224)"></path><path d="M42.6016 36.1706L44.9421 33.8301L45.6031 34.1233C45.7247 34.1773 45.7848 34.3152 45.7417 34.4411L44.9037 36.8841C44.8391 37.0723 44.6241 37.1613 44.4453 37.0738L42.6016 36.1706Z" fill="url(#paint18_linear_170_224)"></path><path d="M36.0342 28.9533C36.0342 28.0384 36.6693 27.2718 37.5227 27.0703C37.7508 27.0164 37.9688 27.1928 37.9688 27.4272V30.4792C37.9688 30.7135 37.7508 30.8899 37.5227 30.8362C36.6693 30.6348 36.0342 29.8682 36.0342 28.9533Z" fill="url(#paint19_linear_170_224)"></path><path d="M49.169 28.9533C49.169 28.0384 48.5339 27.2718 47.6805 27.0703C47.4524 27.0164 47.2344 27.1928 47.2344 27.4272V30.4792C47.2344 30.7135 47.4524 30.8899 47.6805 30.8362C48.5339 30.6348 49.169 29.8682 49.169 28.9533Z" fill="url(#paint20_linear_170_224)"></path><path d="M42.6005 21.833C39.7513 21.833 37.4414 24.1429 37.4414 26.9921V29.6379C37.4414 32.4871 39.7513 34.797 42.6005 34.797C45.4498 34.797 47.7597 32.4871 47.7597 29.6379V26.9921C47.7597 24.1429 45.4498 21.833 42.6005 21.833Z" fill="url(#paint21_linear_170_224)"></path><path d="M42.6006 21.833V34.797C45.4498 34.797 47.7597 32.4871 47.7597 29.6379V26.9921C47.7597 24.1429 45.4498 21.833 42.6006 21.833Z" fill="url(#paint22_linear_170_224)"></path><path d="M37.543 30.6592C38.0171 33.0191 40.1012 34.7966 42.6007 34.7966C45.1002 34.7966 47.1843 33.0191 47.6585 30.6592H37.543Z" fill="url(#paint23_linear_170_224)"></path><path d="M40.2058 29.7336C39.7917 29.7336 39.4561 29.398 39.4561 28.9839V28.5994C39.4561 28.1852 39.7917 27.8496 40.2058 27.8496C40.6199 27.8496 40.9556 28.1852 40.9556 28.5994V28.9839C40.9556 29.398 40.6199 29.7336 40.2058 29.7336Z" fill="url(#paint24_linear_170_224)"></path><path d="M44.9958 29.7336C44.5817 29.7336 44.2461 29.398 44.2461 28.9839V28.5994C44.2461 28.1852 44.5817 27.8496 44.9958 27.8496C45.41 27.8496 45.7456 28.1852 45.7456 28.5994V28.9839C45.7456 29.398 45.41 29.7336 44.9958 29.7336Z" fill="url(#paint25_linear_170_224)"></path><path d="M42.8853 31.3325H42.3153C41.8403 31.3325 41.4805 30.9033 41.5638 30.4355L41.8315 28.93C41.8657 28.7383 42.0324 28.5986 42.2272 28.5986H42.9734C43.1682 28.5986 43.3349 28.7383 43.369 28.93L43.6368 30.4355C43.72 30.9033 43.3603 31.3325 42.8853 31.3325Z" fill="url(#paint26_linear_170_224)"></path><path d="M42.8853 31.3325H42.3153C41.8403 31.3325 41.4805 30.9033 41.5638 30.4355L41.8315 28.93C41.8657 28.7383 42.0324 28.5986 42.2272 28.5986H42.9734C43.1682 28.5986 43.3349 28.7383 43.369 28.93L43.6368 30.4355C43.72 30.9033 43.3603 31.3325 42.8853 31.3325Z" fill="url(#paint27_linear_170_224)"></path><path d="M42.3153 31.3325H42.8853C43.3603 31.3325 43.72 30.9033 43.6368 30.4355L43.369 28.93C43.3349 28.7383 43.1682 28.5986 42.9734 28.5986H42.2272C42.0324 28.5986 41.8657 28.7383 41.8315 28.93L41.5638 30.4355C41.4805 30.9033 41.8402 31.3325 42.3153 31.3325Z" fill="url(#paint28_linear_170_224)"></path><path d="M33.6641 41.068C33.6641 41.4599 33.9818 41.7773 34.3733 41.7773H36.8924H48.3096H50.8287C51.0244 41.7773 51.2018 41.6979 51.3302 41.5696C51.4586 41.4413 51.5378 41.2639 51.5378 41.0681C51.5378 40.0795 51.3279 39.1399 50.9509 38.291H34.2509C33.8739 39.1398 33.6641 40.0794 33.6641 41.068Z" fill="url(#paint29_linear_170_224)"></path><path d="M49.6722 24.837C50.0464 26.3933 49.4627 27.868 48.3685 28.1311C47.2744 28.3941 46.084 27.3459 45.7099 25.7896C45.3357 24.2334 45.9194 22.7586 47.0136 22.4955C48.1079 22.2324 49.2981 23.2809 49.6722 24.837Z" fill="url(#paint30_linear_170_224)"></path><path d="M49.6722 24.837C50.0464 26.3933 49.4627 27.868 48.3685 28.1311C47.2744 28.3941 46.084 27.3459 45.7099 25.7896C45.3357 24.2334 45.9194 22.7586 47.0136 22.4955C48.1079 22.2324 49.2981 23.2809 49.6722 24.837Z" fill="url(#paint31_linear_170_224)"></path><path d="M38.0703 28.1349C39.3026 27.9028 40.4128 27.2415 41.2037 26.2685C41.7791 25.5608 42.6426 25.1499 43.5547 25.1499H45.053C45.613 25.1499 46.1501 24.9274 46.5461 24.5314C47.3707 23.7068 47.3707 22.3698 46.5461 21.545C44.6495 19.6484 41.7452 19.1931 39.3591 20.4184L37.884 21.176C35.8398 22.2258 34.9017 24.6369 35.6987 26.7921C36.0562 27.7581 37.0582 28.3255 38.0703 28.1349Z" fill="url(#paint32_linear_170_224)"></path><path d="M35.9681 23.0479C35.3621 24.1644 35.2291 25.5224 35.6986 26.7919C36.0558 27.7579 37.0578 28.3252 38.07 28.1346C39.3022 27.9025 40.4123 27.2412 41.2033 26.2684C41.7787 25.5606 42.6422 25.1497 43.5543 25.1497H45.0526C45.6126 25.1497 46.1497 24.9272 46.5457 24.5312C46.9555 24.1215 47.1615 23.5851 47.164 23.048L35.9681 23.0479Z" fill="url(#paint33_linear_170_224)"></path><path d="M46.5462 21.545C45.1001 20.0988 43.0683 19.4918 41.127 19.8276V26.3587C41.1526 26.3286 41.1788 26.2991 41.2037 26.2683C41.7791 25.5606 42.6426 25.1497 43.5547 25.1497H45.053C45.613 25.1497 46.1501 24.9272 46.5461 24.5312C47.3708 23.7067 47.3708 22.3697 46.5462 21.545Z" fill="url(#paint34_linear_170_224)"></path><path d="M63.5681 76.1843V39.502L43.7656 59.3045L61.8576 77.3966H62.3557C63.0254 77.3966 63.5681 76.8538 63.5681 76.1843Z" fill="url(#paint35_linear_170_224)"></path><path d="M52.2104 53.4192C56.1686 49.461 58.8024 45.6772 58.093 44.9679C57.3837 44.2585 53.5999 46.8923 49.6416 50.8505C45.6834 54.8088 43.0496 58.5926 43.759 59.3019C44.4683 60.0113 48.2521 57.3775 52.2104 53.4192Z" fill="white"></path><path d="M52.2184 53.4206C48.2596 57.3795 44.4752 60.0136 43.7658 59.3042C43.0564 58.5948 45.6906 54.8105 49.6494 50.8516C53.6083 46.8927 57.3927 44.2586 58.1021 44.968C58.8114 45.6775 56.1772 49.4618 52.2184 53.4206Z" fill="url(#paint36_linear_170_224)"></path><path d="M66.1138 43.2232C56.2626 53.0745 46.8456 59.6293 45.0802 57.864C43.3148 56.0986 49.8698 46.6816 59.721 36.8303C69.5721 26.9791 78.9893 20.4242 80.7546 22.1896C82.5199 23.955 75.9651 33.372 66.1138 43.2232Z" fill="url(#paint37_linear_170_224)"></path><path d="M80.7543 22.1893C80.2098 21.6448 78.937 21.8927 77.1486 22.7837L45.6743 54.2581C44.7833 56.0463 44.5355 57.3193 45.08 57.8638C46.8453 59.6292 56.2623 53.0742 66.1136 43.2231C75.9648 33.372 82.5197 23.9547 80.7543 22.1893Z" fill="url(#paint38_linear_170_224)"></path><path d="M80.7543 22.1895L67.3633 35.5806V41.9573C76.5118 32.5775 82.4439 23.8791 80.7543 22.1895Z" fill="url(#paint39_linear_170_224)"></path><path d="M68.9658 28.4218L74.5221 33.978C76.6767 31.3326 78.3856 28.9391 79.5122 26.9933L75.9507 23.4316C74.0048 24.5584 71.6113 26.2671 68.9658 28.4218Z" fill="url(#paint40_linear_170_224)"></path><path d="M54.1611 42.7268L60.2171 48.7828C62.1243 47.0941 64.1101 45.2267 66.1139 43.223L59.721 36.8301C57.7173 38.8338 55.8499 40.8196 54.1611 42.7268Z" fill="url(#paint41_linear_170_224)"></path><path d="M64.7655 44.434L58.5099 38.1784C58.3314 37.9999 58.3314 37.7104 58.5099 37.5317L60.4224 35.6192C60.6009 35.4407 60.8904 35.4407 61.069 35.6192L67.3246 41.8749C67.5031 42.0534 67.5031 42.3429 67.3246 42.5215L65.4121 44.434C65.2336 44.6125 64.9441 44.6125 64.7655 44.434Z" fill="url(#paint42_linear_170_224)"></path><path d="M67.3247 41.875L63.899 38.4492L61.3398 41.0083L64.7656 44.4341C64.9441 44.6126 65.2336 44.6127 65.4122 44.4341L67.3248 42.5215C67.5033 42.3431 67.5033 42.0536 67.3247 41.875Z" fill="url(#paint43_linear_170_224)"></path><path d="M75.0061 24.205L78.7383 27.9373C78.9533 28.1523 79.3137 28.1101 79.4722 27.8508C81.3594 24.761 82.0859 22.5129 81.2582 21.6851C80.4304 20.8574 78.1823 21.5839 75.0926 23.4711C74.8332 23.6295 74.7911 23.99 75.0061 24.205Z" fill="url(#paint44_linear_170_224)"></path><path d="M75.0926 23.4709C74.8332 23.6293 74.7911 23.9898 75.0061 24.2048L78.7383 27.9371C78.9533 28.1521 79.3137 28.1099 79.4722 27.8506C80.0303 26.9369 80.4859 26.0976 80.8308 25.3461L77.5971 22.1123C76.8456 22.4572 76.0062 22.9128 75.0926 23.4709Z" fill="url(#paint45_linear_170_224)"></path><path d="M81.2581 21.6855L76.8721 26.0715L78.7382 27.9377C78.9532 28.1527 79.3136 28.1105 79.4721 27.8512C81.3593 24.7614 82.0857 22.5132 81.2581 21.6855Z" fill="url(#paint46_linear_170_224)"></path><path d="M81.2581 21.6855L76.8721 26.0715L78.7382 27.9377C78.9532 28.1527 79.3136 28.1105 79.4721 27.8512C81.3593 24.7614 82.0857 22.5132 81.2581 21.6855Z" fill="url(#paint47_linear_170_224)"></path><path d="M75.8161 29.6969C71.8572 33.6558 68.0728 36.2899 67.3635 35.5806C66.6541 34.8712 69.2882 31.0868 73.2471 27.1279C77.206 23.1691 80.9903 20.5349 81.6997 21.2443C82.4091 21.9537 79.7748 25.7381 75.8161 29.6969Z" fill="url(#paint48_linear_170_224)"></path><path d="M81.6996 21.2442C81.4808 21.0254 80.9692 21.1251 80.2506 21.4831L67.6022 34.1314C67.2442 34.8501 67.1446 35.3617 67.3633 35.5804C68.0727 36.2898 71.8571 33.6557 75.816 29.6968C79.7748 25.7379 82.4091 21.9536 81.6996 21.2442Z" fill="url(#paint49_linear_170_224)"></path><defs><linearGradient id="paint0_linear_170_224" x1="23.7276" y1="26.5227" x2="68.5721" y2="71.3672" gradientUnits="userSpaceOnUse"><stop stop-color="#F5FBFF"></stop><stop offset="1" stop-color="#91DCFA"></stop></linearGradient><linearGradient id="paint1_linear_170_224" x1="34.524" y1="26.2857" x2="27.2024" y2="18.9641" gradientUnits="userSpaceOnUse"><stop stop-color="#60B7FF" stop-opacity="0"></stop><stop offset="1" stop-color="#60B7FF"></stop></linearGradient><linearGradient id="paint2_linear_170_224" x1="26.0364" y1="17.7981" x2="34.5074" y2="26.2691" gradientUnits="userSpaceOnUse"><stop stop-color="#F5FBFF"></stop><stop offset="1" stop-color="#91DCFA"></stop></linearGradient><linearGradient id="paint3_linear_170_224" x1="42.6014" y1="73.163" x2="42.6014" y2="77.7075" gradientUnits="userSpaceOnUse"><stop stop-color="#60B7FF" stop-opacity="0"></stop><stop offset="1" stop-color="#60B7FF"></stop></linearGradient><linearGradient id="paint4_linear_170_224" x1="57.1525" y1="45.3965" x2="64.4466" y2="45.3965" gradientUnits="userSpaceOnUse"><stop stop-color="#60B7FF" stop-opacity="0"></stop><stop offset="1" stop-color="#60B7FF"></stop></linearGradient><linearGradient id="paint5_linear_170_224" x1="42.4559" y1="27.751" x2="42.6394" y2="54.8216" gradientUnits="userSpaceOnUse"><stop stop-color="#60B7FF" stop-opacity="0"></stop><stop offset="1" stop-color="#60B7FF"></stop></linearGradient><linearGradient id="paint6_linear_170_224" x1="42.4559" y1="33.2646" x2="42.6394" y2="60.3353" gradientUnits="userSpaceOnUse"><stop stop-color="#60B7FF" stop-opacity="0"></stop><stop offset="1" stop-color="#60B7FF"></stop></linearGradient><linearGradient id="paint7_linear_170_224" x1="42.4559" y1="38.7793" x2="42.6394" y2="65.8498" gradientUnits="userSpaceOnUse"><stop stop-color="#60B7FF" stop-opacity="0"></stop><stop offset="1" stop-color="#60B7FF"></stop></linearGradient><linearGradient id="paint8_linear_170_224" x1="42.4559" y1="44.293" x2="42.6394" y2="71.3635" gradientUnits="userSpaceOnUse"><stop stop-color="#60B7FF" stop-opacity="0"></stop><stop offset="1" stop-color="#60B7FF"></stop></linearGradient><linearGradient id="paint9_linear_170_224" x1="40.9823" y1="34.9196" x2="43.1973" y2="42.7463" gradientUnits="userSpaceOnUse"><stop stop-color="#8AC9FE"></stop><stop offset="1" stop-color="#0172FB"></stop></linearGradient><linearGradient id="paint10_linear_170_224" x1="48.7417" y1="37.5668" x2="51.806" y2="36.9021" gradientUnits="userSpaceOnUse"><stop stop-color="#2740B0" stop-opacity="0"></stop><stop offset="1" stop-color="#2740B0"></stop></linearGradient><linearGradient id="paint11_linear_170_224" x1="45.3002" y1="38.4176" x2="40.1316" y2="35.9441" gradientUnits="userSpaceOnUse"><stop stop-color="#2740B0" stop-opacity="0"></stop><stop offset="1" stop-color="#2740B0"></stop></linearGradient><linearGradient id="paint12_linear_170_224" x1="42.4007" y1="33.7218" x2="43.2037" y2="35.9922" gradientUnits="userSpaceOnUse"><stop stop-color="#FFDFCF"></stop><stop offset="1" stop-color="#FFA78F"></stop></linearGradient><linearGradient id="paint13_linear_170_224" x1="42.6012" y1="35.5312" x2="42.6012" y2="34.5898" gradientUnits="userSpaceOnUse"><stop stop-color="#F89580" stop-opacity="0"></stop><stop offset="0.2699" stop-color="#F08F7A" stop-opacity="0.271"></stop><stop offset="0.6945" stop-color="#D97F69" stop-opacity="0.696"></stop><stop offset="0.9972" stop-color="#C5715A"></stop></linearGradient><linearGradient id="paint14_linear_170_224" x1="42.364" y1="34.6012" x2="41.6302" y2="35.3211" gradientUnits="userSpaceOnUse"><stop stop-color="#F89580" stop-opacity="0"></stop><stop offset="0.2699" stop-color="#F08F7A" stop-opacity="0.271"></stop><stop offset="0.6945" stop-color="#D97F69" stop-opacity="0.696"></stop><stop offset="0.9972" stop-color="#C5715A"></stop></linearGradient><linearGradient id="paint15_linear_170_224" x1="41.2366" y1="35.0428" x2="39.5476" y2="36.2888" gradientUnits="userSpaceOnUse"><stop stop-color="#8AC9FE"></stop><stop offset="1" stop-color="#0172FB"></stop></linearGradient><linearGradient id="paint16_linear_170_224" x1="41.2981" y1="36.2401" x2="41.6211" y2="36.8585" gradientUnits="userSpaceOnUse"><stop stop-color="#2740B0" stop-opacity="0"></stop><stop offset="1" stop-color="#2740B0"></stop></linearGradient><linearGradient id="paint17_linear_170_224" x1="43.8893" y1="34.9762" x2="45.4537" y2="36.1945" gradientUnits="userSpaceOnUse"><stop stop-color="#8AC9FE"></stop><stop offset="1" stop-color="#0172FB"></stop></linearGradient><linearGradient id="paint18_linear_170_224" x1="43.8828" y1="36.2407" x2="43.6244" y2="36.813" gradientUnits="userSpaceOnUse"><stop stop-color="#2740B0" stop-opacity="0"></stop><stop offset="1" stop-color="#2740B0"></stop></linearGradient><linearGradient id="paint19_linear_170_224" x1="36.6034" y1="28.1168" x2="38.1596" y2="29.6729" gradientUnits="userSpaceOnUse"><stop stop-color="#FFDFCF"></stop><stop offset="1" stop-color="#FFA78F"></stop></linearGradient><linearGradient id="paint20_linear_170_224" x1="46.6312" y1="27.8213" x2="48.8087" y2="29.9987" gradientUnits="userSpaceOnUse"><stop stop-color="#FFDFCF"></stop><stop offset="1" stop-color="#FFA78F"></stop></linearGradient><linearGradient id="paint21_linear_170_224" x1="42.2332" y1="27.9476" x2="47.0557" y2="32.7701" gradientUnits="userSpaceOnUse"><stop stop-color="#FFDFCF"></stop><stop offset="1" stop-color="#FFA78F"></stop></linearGradient><linearGradient id="paint22_linear_170_224" x1="44.9202" y1="28.315" x2="47.9923" y2="28.315" gradientUnits="userSpaceOnUse"><stop stop-color="#F89580" stop-opacity="0"></stop><stop offset="0.2699" stop-color="#F08F7A" stop-opacity="0.271"></stop><stop offset="0.6945" stop-color="#D97F69" stop-opacity="0.696"></stop><stop offset="0.9972" stop-color="#C5715A"></stop></linearGradient><linearGradient id="paint23_linear_170_224" x1="42.6007" y1="32.7654" x2="42.6007" y2="35.4761" gradientUnits="userSpaceOnUse"><stop stop-color="#F89580" stop-opacity="0"></stop><stop offset="0.2699" stop-color="#F08F7A" stop-opacity="0.271"></stop><stop offset="0.6945" stop-color="#D97F69" stop-opacity="0.696"></stop><stop offset="0.9972" stop-color="#C5715A"></stop></linearGradient><linearGradient id="paint24_linear_170_224" x1="37.6633" y1="27.0314" x2="41.3592" y2="29.5901" gradientUnits="userSpaceOnUse"><stop stop-color="#5A5A5A"></stop><stop offset="1" stop-color="#444444"></stop></linearGradient><linearGradient id="paint25_linear_170_224" x1="42.4533" y1="27.0314" x2="46.1492" y2="29.5901" gradientUnits="userSpaceOnUse"><stop stop-color="#5A5A5A"></stop><stop offset="1" stop-color="#444444"></stop></linearGradient><linearGradient id="paint26_linear_170_224" x1="42.6003" y1="29.8214" x2="42.6003" y2="31.6144" gradientUnits="userSpaceOnUse"><stop stop-color="#C4573A" stop-opacity="0"></stop><stop offset="0.2342" stop-color="#BE5539" stop-opacity="0.234"></stop><stop offset="0.5454" stop-color="#AD4E35" stop-opacity="0.545"></stop><stop offset="0.8984" stop-color="#914330" stop-opacity="0.898"></stop><stop offset="1" stop-color="#883F2E"></stop></linearGradient><linearGradient id="paint27_linear_170_224" x1="42.9097" y1="30.0356" x2="43.9677" y2="30.2929" gradientUnits="userSpaceOnUse"><stop stop-color="#C4573A" stop-opacity="0"></stop><stop offset="0.2342" stop-color="#BE5539" stop-opacity="0.234"></stop><stop offset="0.5454" stop-color="#AD4E35" stop-opacity="0.545"></stop><stop offset="0.8984" stop-color="#914330" stop-opacity="0.898"></stop><stop offset="1" stop-color="#883F2E"></stop></linearGradient><linearGradient id="paint28_linear_170_224" x1="42.2909" y1="30.0356" x2="41.2329" y2="30.2929" gradientUnits="userSpaceOnUse"><stop stop-color="#FFDDCD" stop-opacity="0"></stop><stop offset="0.9972" stop-color="#FFDDCD"></stop></linearGradient><linearGradient id="paint29_linear_170_224" x1="42.6009" y1="40.6906" x2="42.6009" y2="41.9089" gradientUnits="userSpaceOnUse"><stop stop-color="#2740B0" stop-opacity="0"></stop><stop offset="1" stop-color="#2740B0"></stop></linearGradient><linearGradient id="paint30_linear_170_224" x1="46.5812" y1="25.3134" x2="49.093" y2="25.3134" gradientUnits="userSpaceOnUse"><stop stop-color="#5A5A5A"></stop><stop offset="1" stop-color="#444444"></stop></linearGradient><linearGradient id="paint31_linear_170_224" x1="48.6514" y1="24.4998" x2="45.9932" y2="26.7518" gradientUnits="userSpaceOnUse"><stop stop-color="#433F43" stop-opacity="0"></stop><stop offset="0.3444" stop-color="#403C40" stop-opacity="0.344"></stop><stop offset="0.6223" stop-color="#363336" stop-opacity="0.622"></stop><stop offset="0.8763" stop-color="#252425" stop-opacity="0.876"></stop><stop offset="1" stop-color="#1A1A1A"></stop></linearGradient><linearGradient id="paint32_linear_170_224" x1="39.6742" y1="21.2066" x2="41.8893" y2="25.5814" gradientUnits="userSpaceOnUse"><stop stop-color="#5A5A5A"></stop><stop offset="1" stop-color="#444444"></stop></linearGradient><linearGradient id="paint33_linear_170_224" x1="41.2901" y1="24.7414" x2="41.2901" y2="28.0304" gradientUnits="userSpaceOnUse"><stop stop-color="#433F43" stop-opacity="0"></stop><stop offset="0.3444" stop-color="#403C40" stop-opacity="0.344"></stop><stop offset="0.6223" stop-color="#363336" stop-opacity="0.622"></stop><stop offset="0.8763" stop-color="#252425" stop-opacity="0.876"></stop><stop offset="1" stop-color="#1A1A1A"></stop></linearGradient><linearGradient id="paint34_linear_170_224" x1="43.1082" y1="23.1595" x2="45.2495" y2="25.4853" gradientUnits="userSpaceOnUse"><stop stop-color="#433F43" stop-opacity="0"></stop><stop offset="0.3444" stop-color="#403C40" stop-opacity="0.344"></stop><stop offset="0.6223" stop-color="#363336" stop-opacity="0.622"></stop><stop offset="0.8763" stop-color="#252425" stop-opacity="0.876"></stop><stop offset="1" stop-color="#1A1A1A"></stop></linearGradient><linearGradient id="paint35_linear_170_224" x1="63.0952" y1="63.094" x2="53.3379" y2="48.9256" gradientUnits="userSpaceOnUse"><stop stop-color="#60B7FF" stop-opacity="0"></stop><stop offset="1" stop-color="#60B7FF"></stop></linearGradient><linearGradient id="paint36_linear_170_224" x1="50.2716" y1="51.4737" x2="52.0143" y2="53.2165" gradientUnits="userSpaceOnUse"><stop stop-color="#60B7FF" stop-opacity="0"></stop><stop offset="1" stop-color="#60B7FF"></stop></linearGradient><linearGradient id="paint37_linear_170_224" x1="60.9074" y1="38.008" x2="63.5036" y2="40.6041" gradientUnits="userSpaceOnUse"><stop stop-color="#5A5A5A"></stop><stop offset="1" stop-color="#444444"></stop></linearGradient><linearGradient id="paint38_linear_170_224" x1="61.7472" y1="38.8477" x2="65.6287" y2="42.7292" gradientUnits="userSpaceOnUse"><stop stop-color="#433F43" stop-opacity="0"></stop><stop offset="0.3444" stop-color="#403C40" stop-opacity="0.344"></stop><stop offset="0.6223" stop-color="#363336" stop-opacity="0.622"></stop><stop offset="0.8763" stop-color="#252425" stop-opacity="0.876"></stop><stop offset="1" stop-color="#1A1A1A"></stop></linearGradient><linearGradient id="paint39_linear_170_224" x1="77.4541" y1="37.5541" x2="73.7056" y2="31.4746" gradientUnits="userSpaceOnUse"><stop stop-color="#433F43" stop-opacity="0"></stop><stop offset="0.3444" stop-color="#403C40" stop-opacity="0.344"></stop><stop offset="0.6223" stop-color="#363336" stop-opacity="0.622"></stop><stop offset="0.8763" stop-color="#252425" stop-opacity="0.876"></stop><stop offset="1" stop-color="#1A1A1A"></stop></linearGradient><linearGradient id="paint40_linear_170_224" x1="74.7345" y1="28.1993" x2="76.909" y2="26.0249" gradientUnits="userSpaceOnUse"><stop stop-color="#433F43" stop-opacity="0"></stop><stop offset="0.3444" stop-color="#403C40" stop-opacity="0.344"></stop><stop offset="0.6223" stop-color="#363336" stop-opacity="0.622"></stop><stop offset="0.8763" stop-color="#252425" stop-opacity="0.876"></stop><stop offset="1" stop-color="#1A1A1A"></stop></linearGradient><linearGradient id="paint41_linear_170_224" x1="59.3629" y1="43.571" x2="61.4743" y2="41.4595" gradientUnits="userSpaceOnUse"><stop stop-color="#433F43" stop-opacity="0"></stop><stop offset="0.3444" stop-color="#403C40" stop-opacity="0.344"></stop><stop offset="0.6223" stop-color="#363336" stop-opacity="0.622"></stop><stop offset="0.8763" stop-color="#252425" stop-opacity="0.876"></stop><stop offset="1" stop-color="#1A1A1A"></stop></linearGradient><linearGradient id="paint42_linear_170_224" x1="60.3823" y1="37.4827" x2="64.9084" y2="42.0087" gradientUnits="userSpaceOnUse"><stop stop-color="#FEF0AE"></stop><stop offset="1" stop-color="#FAC600"></stop></linearGradient><linearGradient id="paint43_linear_170_224" x1="65.0445" y1="42.145" x2="66.1824" y2="43.2829" gradientUnits="userSpaceOnUse"><stop stop-color="#FE9738" stop-opacity="0"></stop><stop offset="1" stop-color="#FE9738"></stop></linearGradient><linearGradient id="paint44_linear_170_224" x1="77.3783" y1="22.1871" x2="80.5653" y2="25.3742" gradientUnits="userSpaceOnUse"><stop stop-color="#FEF0AE"></stop><stop offset="1" stop-color="#FAC600"></stop></linearGradient><linearGradient id="paint45_linear_170_224" x1="77.6953" y1="25.2377" x2="76.8922" y2="26.0408" gradientUnits="userSpaceOnUse"><stop stop-color="#FE9738" stop-opacity="0"></stop><stop offset="1" stop-color="#FE9738"></stop></linearGradient><linearGradient id="paint46_linear_170_224" x1="78.9077" y1="23.83" x2="80.7346" y2="25.468" gradientUnits="userSpaceOnUse"><stop stop-color="#FE9738" stop-opacity="0"></stop><stop offset="1" stop-color="#FE9738"></stop></linearGradient><linearGradient id="paint47_linear_170_224" x1="81.7257" y1="25.8708" x2="78.4812" y2="23.8863" gradientUnits="userSpaceOnUse"><stop stop-color="#FE9738" stop-opacity="0"></stop><stop offset="1" stop-color="#FE9738"></stop></linearGradient><linearGradient id="paint48_linear_170_224" x1="73.7217" y1="27.5972" x2="74.765" y2="28.6405" gradientUnits="userSpaceOnUse"><stop stop-color="#FEF0AE"></stop><stop offset="1" stop-color="#FAC600"></stop></linearGradient><linearGradient id="paint49_linear_170_224" x1="74.0593" y1="27.9347" x2="75.6191" y2="29.4945" gradientUnits="userSpaceOnUse"><stop stop-color="#FE9738" stop-opacity="0"></stop><stop offset="1" stop-color="#FE9738"></stop></linearGradient></defs></svg>