<svg xmlns="http://www.w3.org/2000/svg" width="72" height="72" viewBox="0 0 72 72" fill="none"><circle cx="35.9371" cy="35.937" r="33.3995" fill="#FDE9F3" stroke="#FDEDF5" stroke-width="3.66022"></circle><g clip-path="url(#clip0_87_565)"><path d="M35.4159 47.0923C35.795 47.0923 36.1028 46.7845 36.1028 46.4054C36.1028 46.0263 35.795 45.7185 35.4159 45.7185C35.0368 45.7185 34.729 46.0263 34.729 46.4054C34.729 46.7845 35.0368 47.0923 35.4159 47.0923Z" fill="#E1177D"></path><path d="M45.7193 42.9711H41.598C41.2186 42.9711 40.9111 43.2786 40.9111 43.658V47.7793C40.9111 48.1587 41.2186 48.4662 41.598 48.4662H45.7193C46.0987 48.4662 46.4062 48.1587 46.4062 47.7793V43.658C46.4062 43.2786 46.0987 42.9711 45.7193 42.9711ZM45.0325 47.0924H42.2849V44.3448H45.0325V47.0924Z" fill="#E1177D"></path><path d="M29.234 26.4858H25.1127C24.7333 26.4858 24.4258 26.7933 24.4258 27.1727V31.2941C24.4258 31.6735 24.7333 31.9809 25.1127 31.9809H29.234C29.6134 31.9809 29.9209 31.6735 29.9209 31.2941V27.1727C29.9209 26.7933 29.6134 26.4858 29.234 26.4858ZM28.5471 30.6072H25.7996V27.8596H28.5471V30.6072Z" fill="#E1177D"></path><path d="M37.4767 26.4858H33.3553C32.9759 26.4858 32.6685 26.7933 32.6685 27.1727V31.2941C32.6685 31.6735 32.9759 31.9809 33.3553 31.9809H37.4767C37.8561 31.9809 38.1636 31.6735 38.1636 31.2941V27.1727C38.1636 26.7933 37.8561 26.4858 37.4767 26.4858ZM36.7898 30.6072H34.0422V27.8596H36.7898V30.6072Z" fill="#E1177D"></path><path d="M40.9111 27.1727V31.2941C40.9111 31.6735 41.2186 31.9809 41.598 31.9809H45.7193C46.0987 31.9809 46.4062 31.6735 46.4062 31.2941V27.1727C46.4062 26.7933 46.0987 26.4858 45.7193 26.4858H41.598C41.2186 26.4858 40.9111 26.7933 40.9111 27.1727ZM42.2849 27.8596H45.0325V30.6072H42.2849V27.8596Z" fill="#E1177D"></path><path d="M29.234 34.7286H25.1127C24.7333 34.7286 24.4258 35.0361 24.4258 35.4155V39.5369C24.4258 39.9162 24.7333 40.2237 25.1127 40.2237H29.234C29.6134 40.2237 29.9209 39.9162 29.9209 39.5369V35.4155C29.9209 35.0361 29.6134 34.7286 29.234 34.7286ZM28.5471 38.85H25.7996V36.1024H28.5471V38.85Z" fill="#E1177D"></path><path d="M37.4767 34.7286H33.3553C32.9759 34.7286 32.6685 35.0361 32.6685 35.4155V39.5369C32.6685 39.9162 32.9759 40.2237 33.3553 40.2237H37.4767C37.8561 40.2237 38.1636 39.9162 38.1636 39.5369V35.4155C38.1636 35.0361 37.8561 34.7286 37.4767 34.7286ZM36.7898 38.85H34.0422V36.1024H36.7898V38.85Z" fill="#E1177D"></path><path d="M45.7193 34.7286H41.598C41.2186 34.7286 40.9111 35.0361 40.9111 35.4155V39.5369C40.9111 39.9162 41.2186 40.2237 41.598 40.2237H45.7193C46.0987 40.2237 46.4062 39.9162 46.4062 39.5369V35.4155C46.4062 35.0361 46.0987 34.7286 45.7193 34.7286ZM45.0325 38.85H42.2849V36.1024H45.0325V38.85Z" fill="#E1177D"></path><path d="M29.234 42.9711H25.1127C24.7333 42.9711 24.4258 43.2786 24.4258 43.658V47.7793C24.4258 48.1587 24.7333 48.4662 25.1127 48.4662H29.234C29.6134 48.4662 29.9209 48.1587 29.9209 47.7793V43.658C29.9209 43.2786 29.6134 42.9711 29.234 42.9711ZM28.5471 47.0924H25.7996V44.3448H28.5471V47.0924Z" fill="#E1177D"></path><path d="M44.3455 17.8309H26.4864C26.107 17.8309 25.7995 18.1384 25.7995 18.5178V22.3644H22.3651C21.9857 22.3644 21.6782 22.6719 21.6782 23.0513V51.6258H19.6176C19.2382 51.6258 18.9307 51.9333 18.9307 52.3127C18.9307 52.6921 19.2382 52.9996 19.6176 52.9996H51.2144C51.5938 52.9996 51.9013 52.6921 51.9013 52.3127C51.9013 51.9333 51.5938 51.6258 51.2144 51.6258H49.1537V23.0513C49.1537 22.6719 48.8462 22.3644 48.4668 22.3644H45.0324V18.5178C45.0324 18.1384 44.7249 17.8309 44.3455 17.8309ZM27.1733 19.2047H43.6586V22.3644H27.1733V19.2047ZM38.1635 51.6258H36.1029V49.153C36.1029 48.7736 35.7954 48.4661 35.416 48.4661C35.0366 48.4661 34.7291 48.7736 34.7291 49.153V51.6258H32.6684V44.3448H38.1635V51.6258ZM47.7799 51.6258H39.5373V43.6579C39.5373 43.2785 39.2298 42.971 38.8504 42.971H31.9815C31.6021 42.971 31.2946 43.2785 31.2946 43.6579V51.6258H23.052V23.7382H47.7799V51.6258Z" fill="#E1177D"></path></g><defs><clipPath id="clip0_87_565"><rect width="35.1687" height="35.1687" fill="white" transform="translate(17.8315 17.8312)"></rect></clipPath></defs></svg>