<svg xmlns="http://www.w3.org/2000/svg" width="34" height="35" viewBox="0 0 34 35" fill="none"><path d="M17.1484 34.2336C26.3475 34.2336 33.8048 26.7763 33.8048 17.5772C33.8048 8.3782 26.3475 0.920898 17.1484 0.920898C7.94937 0.920898 0.492065 8.3782 0.492065 17.5772C0.492065 26.7763 7.94937 34.2336 17.1484 34.2336Z" fill="#E1177D" fill-opacity="0.1"></path><path d="M17.1484 27.7072C22.743 27.7072 27.2783 23.1718 27.2783 17.5772C27.2783 11.9826 22.743 7.44727 17.1484 7.44727C11.5538 7.44727 7.01843 11.9826 7.01843 17.5772C7.01843 23.1718 11.5538 27.7072 17.1484 27.7072Z" fill="#E1177D"></path><path d="M23.5944 15.5268L16.6966 22.424C16.1858 22.9349 15.3573 22.9349 14.846 22.424L11.2853 18.8631C10.7744 18.3522 10.7744 17.5235 11.2853 17.0126C11.7964 16.5015 12.6249 16.5015 13.1358 17.0124L15.7716 19.6482L21.7436 13.6761C22.2547 13.1651 23.0833 13.1654 23.5942 13.6761C24.1051 14.1871 24.1051 15.0155 23.5944 15.5268Z" fill="white"></path></svg>