<svg xmlns="http://www.w3.org/2000/svg" xmlns:xlink="http://www.w3.org/1999/xlink" id="Capa_1" x="0px" y="0px" viewBox="0 0 1080 1080" style="enable-background:new 0 0 1080 1080;" xml:space="preserve"><style type="text/css">	.st0{fill:#00B3E1;}	.st1{fill:#FF4B91;}	.st2{fill:#000E3D;}</style><g>	<path class="st0" d="M817.84,426.83c-23.85,0-47.71,0.02-71.56-0.03c-3.59-0.01-7.92,1.08-9.6-3.53c-1.52-4.16,2.28-6.09,4.62-8.27   c15.18-14.11,30.42-28.17,45.82-42.03c4.41-3.97,6.48-8.2,6.72-14.35c0.71-17.58,2.32-35.13,3.48-52.7   c0.45-6.74,3.37-9.44,9.55-5.58c43.73,27.34,75.97,63.91,90.88,114.07c3.41,11.47,2.4,12.38-9.28,12.4   C864.94,426.85,841.39,426.83,817.84,426.83"></path>	<path class="st1" d="M899.47,480.2c0-15.47-12.54-28-28-28c-15.43,0-27.94,12.48-28,27.9h-0.01   c-0.25,75.74-61.93,137.29-137.73,137.29c-75.75,0-137.41-61.48-137.72-137.16c0-0.04,0-0.09,0-0.13h0h0   c-0.06-15.42-12.57-27.9-28-27.9c-15.43,0-27.94,12.48-28,27.9h0h0c0,0.04,0,0.08,0,0.12c-0.31,75.69-61.97,137.17-137.72,137.17   c-75.8,0-137.48-61.55-137.73-137.29h-0.01c-0.06-15.42-12.57-27.9-28-27.9c-15.47,0-28,12.54-28,28c0,0.02,0,0.05,0,0.07   c0,0.09,0,0.18,0,0.27h0.01c0.49,106.42,87.2,192.84,193.73,192.84c70.17,0,131.73-37.5,165.73-93.51   c33.99,56.01,95.56,93.51,165.73,93.51c106.53,0,193.24-86.43,193.73-192.84h0.01c0-0.09,0-0.18,0-0.28   C899.46,480.24,899.47,480.22,899.47,480.2"></path>	<path class="st1" d="M208.54,426.91c15.47,0,28.01-12.54,28.01-28.01V285.87c0-15.47-12.54-28-28.01-28   c-15.47,0-28.01,12.54-28.01,28V398.9C180.53,414.37,193.07,426.91,208.54,426.91"></path>	<path class="st1" d="M512.11,401.34c0.03,0.33,0.07,0.65,0.1,0.97c0.06,0.52,0.14,1.04,0.24,1.56c0.11,0.61,0.24,1.21,0.39,1.8   c0.08,0.3,0.15,0.61,0.23,0.91c0.15,0.51,0.31,1.02,0.49,1.52c0,0.01,0.01,0.03,0.01,0.04c1.26,3.59,3.21,6.83,5.72,9.58   c0.01,0.01,0.02,0.02,0.03,0.03c0.65,0.71,1.34,1.39,2.06,2.03c0.09,0.08,0.19,0.17,0.28,0.26c0.34,0.29,0.68,0.58,1.04,0.86   c0.34,0.27,0.7,0.53,1.05,0.79c0.37,0.26,0.75,0.52,1.13,0.77c0.43,0.28,0.87,0.54,1.31,0.8c0.22,0.12,0.43,0.25,0.66,0.37   c0.64,0.34,1.3,0.65,1.96,0.94c0.2,0.09,0.4,0.17,0.6,0.25c0.71,0.29,1.43,0.56,2.17,0.79c0.11,0.03,0.22,0.06,0.33,0.09   c0.68,0.2,1.38,0.38,2.09,0.54c0.18,0.04,0.37,0.08,0.55,0.12c0.76,0.15,1.54,0.27,2.33,0.36c0.2,0.02,0.41,0.04,0.61,0.06   c0.8,0.07,1.6,0.12,2.42,0.12c0.03,0,0.05,0,0.08,0c0,0,0,0,0,0s0,0,0,0c0.01,0,0.01,0,0.02,0c0.01,0,0.02,0,0.03,0   c0.88,0,1.75-0.05,2.61-0.13c0.23-0.02,0.46-0.06,0.69-0.08c0.63-0.07,1.26-0.17,1.88-0.29c0.28-0.05,0.56-0.11,0.84-0.17   c0.56-0.12,1.11-0.27,1.66-0.43c0.29-0.08,0.58-0.16,0.87-0.25c0.57-0.18,1.13-0.39,1.68-0.61c0.59-0.23,1.16-0.49,1.73-0.76   c0.31-0.14,0.61-0.28,0.91-0.44c0.48-0.25,0.94-0.52,1.4-0.79c0.2-0.12,0.39-0.23,0.59-0.36c0.5-0.32,0.99-0.64,1.47-0.99   c0.09-0.07,0.19-0.14,0.28-0.21c2.24-1.66,4.21-3.63,5.86-5.87c0.05-0.07,0.1-0.13,0.15-0.2c0.36-0.5,0.71-1,1.03-1.52   c0.13-0.21,0.26-0.43,0.39-0.64c0.25-0.42,0.5-0.84,0.73-1.27c0.74-1.39,1.38-2.84,1.9-4.37c18.42-54.39,69.93-93.65,130.46-93.65   c10.5,0,20.73,1.18,30.57,3.42c17.65,4.02,34.52-9.12,34.52-27.23c0-12.96-8.86-24.32-21.49-27.24   c-14.02-3.24-28.61-4.96-43.6-4.96c-49.58,0-94.85,18.75-129.16,49.5v-21.49c0-15.47-12.54-28.01-28-28.01S512,270.4,512,285.87   v28.79c0,0.05-0.01,0.09-0.01,0.14v84.09c0,0.16,0.02,0.31,0.02,0.46C512.03,400.03,512.06,400.69,512.11,401.34"></path>	<path class="st2" d="M199.68,794.87l-16.16-46.64c-0.37-1.11-0.87-2.96-0.87-4.57c0-4.32,3.46-8.51,9.01-8.51   c4.69,0,7.77,2.96,9.13,7.28l10.12,33.56l10.37-33.44c1.36-4.44,4.81-7.53,9.62-7.53h1.11c4.81,0,8.27,3.09,9.62,7.53l10.49,33.56   l10.36-33.81c1.24-3.95,4.07-7.16,9.01-7.16c5.18,0,8.76,3.95,8.76,8.64c0,1.23-0.37,2.96-0.61,3.82l-16.66,47.26   c-1.97,5.8-5.8,8.39-10.37,8.39H252c-4.57,0-8.39-2.59-10.12-8.02l-10.49-33.31l-10.61,33.31c-1.73,5.43-5.55,8.02-10.12,8.02   h-0.62C205.48,803.26,201.66,800.67,199.68,794.87"></path>	<path class="st2" d="M321.95,803.5c-19.86,0-34.55-13.94-34.55-34.18v-0.24c0-18.88,13.45-34.43,32.7-34.43   c22.09,0,31.83,18.14,31.83,31.83c0,5.43-3.82,9.01-8.76,9.01h-37.14c1.85,8.51,7.77,12.95,16.16,12.95c5.18,0,9.5-1.6,13.32-4.44   c1.36-0.99,2.59-1.48,4.57-1.48c4.2,0,7.28,3.21,7.28,7.4c0,2.47-1.11,4.32-2.47,5.55C339.1,800.42,331.57,803.5,321.95,803.5    M334.04,763.77c-1.11-8.39-6.05-14.07-13.94-14.07c-7.77,0-12.83,5.55-14.31,14.07H334.04z"></path>	<path class="st0" d="M366.23,720.59c0-5.18,4.2-9.38,9.38-9.38c5.18,0,9.38,4.19,9.38,9.38v24.8c4.57-6.17,10.86-10.74,20.6-10.74   c15.42,0,30.11,12.09,30.11,34.18v0.25c0,22.09-14.44,34.18-30.11,34.18c-9.99,0-16.16-4.57-20.6-9.87v0.12   c0,5.06-4.2,9.25-9.38,9.25c-5.18,0-9.38-4.2-9.38-9.38V720.59z M416.94,769.08v-0.25c0-10.98-7.4-18.26-16.16-18.26   c-8.76,0-16.04,7.28-16.04,18.26v0.25c0,10.98,7.28,18.26,16.04,18.26C409.54,787.34,416.94,780.18,416.94,769.08"></path>	<path class="st0" d="M446.3,769.33v-0.25c0-19,15.3-34.42,35.91-34.42c20.48,0,35.66,15.18,35.66,34.18v0.25   c0,19-15.3,34.42-35.91,34.42C461.47,803.5,446.3,788.33,446.3,769.33 M499.35,769.33v-0.25c0-9.75-7.03-18.26-17.4-18.26   c-10.73,0-17.15,8.27-17.15,18.01v0.25c0,9.75,7.03,18.26,17.4,18.26C492.94,787.34,499.35,779.07,499.35,769.33"></path>	<path class="st0" d="M528.21,769.33v-0.25c0-19,15.3-34.42,35.91-34.42c20.48,0,35.66,15.18,35.66,34.18v0.25   c0,19-15.3,34.42-35.91,34.42C543.39,803.5,528.21,788.33,528.21,769.33 M581.27,769.33v-0.25c0-9.75-7.03-18.26-17.4-18.26   c-10.73,0-17.15,8.27-17.15,18.01v0.25c0,9.75,7.03,18.26,17.4,18.26C574.85,787.34,581.27,779.07,581.27,769.33"></path>	<path class="st0" d="M613.34,720.59c0-5.18,4.2-9.38,9.38-9.38c5.18,0,9.38,4.19,9.38,9.38v40.96l23.44-22.21   c2.72-2.59,4.94-4.19,8.27-4.19c5.06,0,8.27,4.07,8.27,8.39c0,3.21-1.73,5.67-4.32,8.14l-14.81,12.71l17.64,23.81   c1.6,2.22,2.34,3.95,2.34,6.05c0,5.06-4.07,8.51-8.76,8.51c-3.7,0-5.93-1.23-8.15-4.32l-16.41-22.58l-7.53,6.79v10.73   c0,5.18-4.2,9.38-9.38,9.38c-5.18,0-9.38-4.2-9.38-9.38V720.59z"></path>	<path class="st1" d="M688.72,820.41c-2.71-0.99-5.92-3.21-5.92-7.77s3.58-7.65,7.4-7.65c1.48,0,2.34,0.25,3.08,0.49   c1.6,0.49,2.59,0.74,3.95,0.74c3.33,0,4.94-0.62,6.66-3.95l0.62-1.48l-22.58-52.31c-0.49-1.23-0.99-3.08-0.99-4.32   c0-5.3,4.07-9.01,9.26-9.01c4.69,0,7.4,2.59,9.01,7.03l14.31,38.5l13.82-38.37c1.48-3.95,4.2-7.16,9.01-7.16   c4.81,0,8.88,3.7,8.88,8.64c0,1.48-0.49,3.58-0.86,4.44l-23.07,55.4c-5.55,13.45-11.1,18.51-22.33,18.51   C694.76,822.14,691.8,821.52,688.72,820.41"></path>	<path class="st1" d="M752.13,769.33v-0.25c0-19,15.3-34.42,35.91-34.42c20.48,0,35.66,15.18,35.66,34.18v0.25   c0,19-15.3,34.42-35.91,34.42C767.31,803.5,752.13,788.33,752.13,769.33 M805.19,769.33v-0.25c0-9.75-7.03-18.26-17.4-18.26   c-10.73,0-17.15,8.27-17.15,18.01v0.25c0,9.75,7.03,18.26,17.4,18.26C798.77,787.34,805.19,779.07,805.19,769.33"></path>	<path class="st1" d="M897.35,793.39c0,5.18-4.2,9.38-9.38,9.38c-5.18,0-9.38-4.2-9.38-9.38v-0.74   c-4.32,5.55-9.87,10.61-19.37,10.61c-14.19,0-22.46-9.38-22.46-24.55v-34.18c0-5.18,4.2-9.38,9.38-9.38s9.38,4.2,9.38,9.38v28.25   c0,8.88,4.2,13.45,11.35,13.45s11.72-4.57,11.72-13.45v-28.25c0-5.18,4.19-9.38,9.38-9.38c5.18,0,9.38,4.2,9.38,9.38V793.39z"></path></g></svg>